
<svg xmlns="http://www.w3.org/2000/svg" viewBox="0 0 352 40" fill="none">
<path d="M100 5C116 5 227.5 5 251 5C270 8 273 15.5 293 20C273 25 268.5 32.5 251 35C237.5 35 110 35 100 35C82.5 32 76 24 58.5 20C76 15.5 88.5 5 100 5Z" fill="#AAFF00"/>
<path d="M351.07 20C351.07 20 315.035 20 297.186 20C279.337 20 266.069 5 248.302 5C230.535 5 175.535 5 175.535 5C175.535 5 121.535 5 102.767 5C83.9997 5 71.5369 20 53.8853 20C36.2338 20 3.05176e-05 20 3.05176e-05 20" stroke="black"/>
<path d="M0 20C0 20 36.0345 20 53.8837 20C71.7329 20 85.0004 35 102.767 35C120.535 35 175.535 35 175.535 35C175.535 35 229.535 35 248.302 35C267.07 35 279.533 20 297.185 20C314.836 20 351.07 20 351.07 20" stroke="black"/>
</svg>