<svg xmlns="http://www.w3.org/2000/svg" width="352" height="41" viewBox="0 0 352 41" fill="none">
<path d="M0 0.5C0 0.5 36.0345 0.5 53.8837 0.5C71.7329 0.5 85.0004 15.5 102.767 15.5C120.535 15.5 175.535 15.5 175.535 15.5C175.535 15.5 229.535 15.5 248.302 15.5C267.07 15.5 279.533 0.5 297.185 0.5C314.836 0.5 351.07 0.5 351.07 0.5" stroke="rgba(50, 50, 50, 1)"/>
<path d="M351.07 40.5C351.07 40.5 315.035 40.5 297.186 40.5C279.337 40.5 266.069 25.5 248.302 25.5C230.535 25.5 175.535 25.5 175.535 25.5C175.535 25.5 121.535 25.5 102.767 25.5C83.9997 25.5 71.5369 40.5 53.8853 40.5C36.2338 40.5 3.05176e-05 40.5 3.05176e-05 40.5" stroke="rgba(47, 47, 47, 1)"/>
</svg>