<svg viewBox="0 0 960 144" fill="none" xmlns="http://www.w3.org/2000/svg">
  <path fill="#262626" d="M960 144h-48V96h48zm-48 0h-48V96h48zm-48 0h-48V96h48zm-48 0h-48V96h48zm-48 0h-48V96h48zm-48 0h-48V96h48zm-48 0h-48V96h48zm-48 0h-48V96h48zm-48 0h-48V96h48zm-48 0h-48V96h48zm-48 0h-48V96h48z"/>
  <path fill="#9AE600" d="M432 144h-48V96h48z"/>
  <path fill="#262626" d="M384 144h-48V96h48zm-48 0h-48V96h48zm-48 0h-48V96h48zm-48 0h-48V96h48z"/>
  <path fill="#9AE600" d="M192 144h-48V96h48z"/>
  <path fill="#262626" d="M144 144H96V96h48zm-48 0H48V96h48zm-48 0H0V96h48zm912-48h-48V48h48z"/>
  <path fill="#9AE600" d="M912 96h-48V48h48z"/>
  <path fill="#262626" d="M864 96h-48V48h48zm-48 0h-48V48h48zm-48 0h-48V48h48zm-48 0h-48V48h48z"/>
  <path fill="#9AE600" d="M672 96h-48V48h48z"/>
  <path fill="#262626" d="M624 96h-48V48h48zm-48 0h-48V48h48z"/>
  <path fill="#262626" d="M432 96h-48V48h48z"/>
  <path fill="#262626" d="M336 96h-48V48h48zm-48 0h-48V48h48zm-48 0h-48V48h48z"/>
  <path fill="#262626" d="M144 96H96V48h48z"/>
  <path fill="#262626" d="M48 96H0V48h48zm912-48h-48V0h48z"/>
  <path fill="#262626" d="M816 48h-48V0h48z"/>
  <path fill="#262626" d="M624 48h-48V0h48z"/>
  <path fill="#262626" d="M480 48h-48V0h48z"/>
  <path fill="#262626" d="M288 48h-48V0h48z"/>
  <path fill="#262626" d="M96 48H48V0h48z"/>
</svg>