<svg viewBox="0 0 960 144" fill="none" xmlns="http://www.w3.org/2000/svg">
  <path fill="#262626" d="M960 144h-48V96h48zm-48 0h-48V96h48zm-48 0h-48V96h48zm-48 0h-48V96h48zm-48 0h-48V96h48zm-48 0h-48V96h48z"/>
  <path fill="#9AE600" d="M672 144h-48V96h48z"/>
  <path fill="#262626" d="M624 144h-48V96h48zm-48 0h-48V96h48zm-48 0h-48V96h48zm-48 0h-48V96h48zm-48 0h-48V96h48zm-48 0h-48V96h48z"/>
  <path fill="#9AE600" d="M336 144h-48V96h48z"/>
  <path fill="#262626" d="M288 144h-48V96h48zm-48 0h-48V96h48zm-48 0h-48V96h48zm-48 0H96V96h48zm-48 0H48V96h48zm-48 0H0V96h48zm912-48h-48V48h48zm-48 0h-48V48h48z"/>
  <path fill="#9AE600" d="M864 96h-48V48h48z"/>
  <path fill="#262626" d="M816 96h-48V48h48zm-48 0h-48V48h48z"/>
  <path fill="#262626" d="M624 96h-48V48h48zm-48 0h-48V48h48zm-48 0h-48V48h48zm-48 0h-48V48h48zm-48 0h-48V48h48zm-48 0h-48V48h48z"/>
  <path fill="#262626" d="M240 96h-48V48h48zm-48 0h-48V48h48z"/>
  <path fill="#9AE600" d="M144 96H96V48h48z"/>
  <path fill="#262626" d="M96 96H48V48h48zm-48 0H0V48h48zm912-48h-48V0h48z"/>
  <path fill="#262626" d="M816 48h-48V0h48z"/>
  <path fill="#262626" d="M576 48h-48V0h48z"/>
  <path fill="#262626" d="M336 48h-48V0h48z"/>
  <path fill="#262626" d="M192 48h-48V0h48z"/>
  <path fill="#262626" d="M48 48H0V0h48z"/>
</svg>
