<svg xmlns="http://www.w3.org/2000/svg" version="1.0" width="1800" height="1200" viewBox="0 0 1350 900">
  <path d="M1256 178.4c-2.5 1.3-6.5 3.5-9 4.9s-8.1 4.4-12.5 6.7c-10.4 5.4-11.4 6-29.5 17.9-9.6 6.3-11.6 7.6-14.5 9.1-1.1.6-3.3 1.9-5 3-8.9 5.7-23.9 12-28.7 12-4.1 0-22.6 10-28.9 15.6-5.8 5.1-15.6 10-27.4 13.9-6 1.9-12.2 4.2-13.7 5-1.4.8-3.3 1.5-4.2 1.5-.8 0-3 .6-4.8 1.4s-5.1 2.1-7.3 2.9-5.8 2.1-8 3c-2.2.8-5.8 2.1-8 3-9.7 3.6-13.2 5-16 6.2-1.6.7-5.5 2.3-8.5 3.5-24.7 9.9-58.5 30.3-73.1 44-2.4 2.3-5.3 4.6-6.4 5.1s-4.7 2.4-8 4.3c-13 7.5-16.1 8.7-31.5 12.1-8.3 1.9-10.9 3-21.7 9.2-4.1 2.4-7.8 4.3-8.2 4.3-.5 0-2.2.6-3.8 1.4-4.8 2.4-24.4 7.6-28.9 7.6-2.9 0-14.7 2.9-19.4 4.8-5.4 2.1-10.7 3.6-15 4.3-8 1.2-15.8 4.6-27.1 11.9-9.9 6.3-24.1 13.7-29.8 15.7-9.4 3.1-23.3 10.6-28 15.1-7.4 7.1-21.3 17.1-28.7 20.5-3.7 1.8-7.6 7-7.6 10.2 0 3.4 5 9.9 10.2 13.3 7.7 4.9 12.2 6.2 22 6.2 8 0 9.7-.3 15.7-3.2 9.2-4.3 20.8-11.3 26.3-15.8 3.9-3.2 5.4-3.8 11.5-4.4 9.5-.9 19.1-4 32-10.3 8.4-4.1 10.8-5.5 12.7-7.1 1-.7 7.4-1.3 18.4-1.6 18.6-.5 40-2.8 41.7-4.5 1.6-1.6 8.4-1.3 12 .6 5.4 2.8 18.7 11.5 18.7 12.3 0 .4-1.1 3.2-2.4 6.1-1.2 3-2.6 6.7-3 8.3-1.3 5.1-20 25.3-39.1 42.3-4.8 4.2-4.8 4.2-4.2 9.2.7 5.8 3.4 10.4 11 18.4 5.4 5.7 11.5 9.7 14.8 9.7 4.1 0 4.9 2.5 4.9 15.9 0 14 1 21.3 3.9 27.6 1 2.2 2.5 5.8 3.3 8 .9 2.2 3 7.6 4.8 12s3.9 9.8 4.7 12 2.1 5.3 2.9 7c.7 1.6 2.3 5.9 3.4 9.5 3.8 11.3 7.9 15 16.8 15 9.2 0 17.6-4.8 20.2-11.6.8-2 1.8-2.2 9.8-2.5 7.9-.4 9.3-.7 12.5-3.2 6.3-4.8 7.9-10 7.9-26.2 0-10.2-.4-15.2-1.5-18.2l-1.6-4.2 4.2-8.3c3.8-7.5 4.2-9 4.2-15.8 0-4.1-.3-8.2-.8-9-.5-1 1.3-4 5.8-9.5 7.8-9.5 10-13.1 13-21.5 3.4-9.2 5.1-1 4.1 19.5-.8 15.4-.8 15.4 5.8 29.7 1.4 3.1 2.6 6.6 2.6 7.7 0 3.9 4.7 13.5 10.2 20.9 4.3 5.7 11.8 11.2 15.4 11.2 4 0 12.2-3.2 15.9-6.2 9.7-8 12-19.5 6.6-32.8-1.6-3.9-3.7-8-4.6-9-1.2-1.3-1.3-2.3-.5-4.5 1.1-2.9-.5-15-2.1-16.1-1.2-.7-1.1-5.8.1-7 .5-.5 1.3-3.8 1.6-7.2.4-3.4 1.2-6.6 1.8-7 .6-.5 4.6-1.4 8.9-2.1 13-2.1 21-6.4 25.6-13.8 2.4-3.8 4-5 10.4-7.8 11.4-5 20.4-12.2 40.7-32.5 12.8-12.8 12.5-12.5 24.7-28.3 14.2-18.4 30-32.7 40.3-36.5 18.3-6.8 42.8-8.3 88.8-5.5 8.7.5 10.2.4 10.2-1 0-2.6-17.5-4.2-48.5-4.2-28.9 0-36.7.7-49 4.5-8.5 2.6-12.4 4.4-17.1 7.8-6.5 4.7-22.2 20.1-24.6 24.1-7.4 12.2-36.1 43.5-48.8 53.1-2.5 1.9-6.5 5.1-8.9 7.2-6.2 5.4-12.2 7.8-19.2 7.8-5.9 0-8.5 1.5-5.5 3.2 3.9 2.2.2 8.9-6.9 12.5-7.6 4-24.1 5.7-26.5 2.8-.8-1-2.1-1.3-3.4-.9-3.1 1-3.2 1.2-.6 3.6 2.1 2 2.2 2.7 1.7 10.1-.4 4.4-1.1 8.5-1.7 9.2s-4.1 1.5-7.8 1.9c-7.6.8-9.8 1.7-8.9 4 .8 2 6 2.1 7.7.1 1.7-2.1 3.6-1.9 7 .7 2.8 2 3 2.6 3 9v6.8h-9.1c-5.6 0-10.3.5-12.2 1.4-1.8.8-4 1.7-5 2-2.2.7-1.3 2.6 1.1 2.6.9 0 2.6-.7 3.6-1.5 1.4-1.1 4.5-1.5 10.3-1.5 8.2 0 8.5.1 11.4 3.2 1.6 1.8 2.9 3.8 2.9 4.4 0 .7.7 1.4 1.5 1.8.9.3 1.5 1.8 1.5 3.5 0 2.9-.2 3-3.6 2.8-2.4-.1-3.9.3-4.2 1.2-.4 1.1.4 1.3 4.1.8 3.9-.6 4.8-.4 5.7 1.3 1.6 2.9 1.2 10.7-.8 14.3-4.5 8.5-9.5 11.9-16.4 11.3-3.7-.4-5-1.2-9.3-5.8-4.9-5.4-10.7-15.6-12-21.2-.3-1.6-1.5-4.8-2.6-7-5.3-10.9-5.8-13.8-5.4-35.4.3-13.5.8-20.9 1.6-21.8.8-1 2.3-1.2 5.1-.7 3.6.5 4 .4 3.6-1.3-.2-1.5-1.5-2-6.2-2.4-5-.5-6.1-1-7.9-3.5-2.6-3.5-7.4-8.5-8.2-8.5-.6 0-8.2-5.4-11.2-8-.7-.5-2-1-3-1-2-.1-6.3-3.3-6.3-4.7.1-1 8.5-7.3 9.8-7.3.5 0 1.5-.7 2.2-1.5s2.1-1.5 3-1.5c1 0 2-.4 2.2-.8.4-1 14.3-8.2 15.8-8.2.7 0 2.6-.6 4.3-1.4 3.2-1.4 19.7-3.4 36-4.5 12.4-.8 11.5-2.5-1.8-3.1-8.3-.4-12.9-.1-18.5 1.2-4.1 1-8.7 1.7-10.2 1.8-1.5 0-3.4.7-4.3 1.6s-1.9 1.4-2.2 1c-.4-.3-.1-1.2.5-1.8.7-.7 1.2-1.8 1.2-2.6 0-.7.7-2 1.5-2.8.8-.9 1.5-2.2 1.5-3s-.7-1.4-1.5-1.4-1.5.6-1.5 1.4c0 1.6-8.3 9.3-11.5 10.7-1.1.5-2.9 1.5-4 2.1-5.1 3.3-10.3 6.4-13.7 8.1-4.8 2.4-15.9 12.6-17.8 16.3-1.8 3.8-10.6 16.9-13.3 20.1-7.9 9.2-17.1 16.6-24.7 20-9.5 4.3-12.1 5.3-13.5 5.3-.8 0-1.8.6-2.2 1.4s-2.1 1.6-3.7 1.8c-4.1.4-4.6 2.8-.7 2.8 1.9 0 3.4.6 3.7 1.5.7 1.7 4 2 4.9.6.3-.6-.4-1.5-1.5-2.1-2.5-1.4-1.7-3 1.5-3 1.3 0 3.6-.5 5-1.2 2.1-.9 3.1-.9 4.6 0 1.7 1.1 1.9.9 1.9-1.9 0-2.4.4-3 1.8-2.7 1.3.2 1.8 1.5 2 6.2.4 7.8-.6 8.5-12.5 8.6-5 0-9.4.4-9.7.9-.7 1 5.1 2.1 11.7 2.1 3.3 0 4.7.4 4.7 1.4 0 .8.7 1.6 1.5 2 1.2.4 1.5 2.9 1.5 13.9 0 12.1-.2 13.6-2 15.2-2.7 2.5-2.5 3.7 1.3 6.1 3.7 2.5 9.7 13.1 9.7 17.3 0 1.6.7 3.4 1.5 4.1 1.9 1.6 1.8 18.1-.2 26-2 8-8.4 13-17 13-2.8 0-7.9-4.3-8.6-7.2-.5-2.3-1.5-5.3-4.5-13.3-3.6-10-4.4-12-8.6-21.8-.9-2.1-1.6-4.4-1.6-5.2 0-.7-.8-2.8-1.7-4.7-.9-1.8-2.2-4.5-3-6-.7-1.4-1.3-3.5-1.3-4.7 0-1.1-.7-4.6-1.5-7.8-1.5-5.7-2.1-27.5-.9-30.7.9-2.3 2.1-2 2.8.6.4 1.8.8 2 1.8 1 .7-.7 1.3-2 1.3-3 0-1.1 1-1.9 2.9-2.2 3.7-.6 4.7-3 1.3-3-1.3 0-3.7 1-5.2 2.1-2.6 2.1-2.8 2.2-8.8.5-8.4-2.3-15.9-6-19.4-9.4-1.5-1.6-4.3-6.1-6.2-10-2.9-6-3.3-7.6-2.5-9.9.8-2.2 1.6-2.8 3.7-2.6 1.8.1 2.8-.4 3.2-1.7.8-2.5 9.2-10 12.5-11.1 1.4-.5 3.4-2.5 4.5-4.4 2.8-5.4 12.4-14.5 22-21.1 11-7.5 13.6-9.2 15.5-10.1 4.4-2.1 15.2-10.3 20-15.3 3-3.1 8.2-9.7 11.5-14.6 3.2-4.9 6.2-9.1 6.5-9.4.4-.3 1-1.2 1.3-2 .4-.8 1.6-2.9 2.7-4.5 1.1-1.7 2.4-3.9 3-5 .5-1.1 1.4-2.7 1.8-3.5 1.5-2.7 3.1-5.4 5.3-9.5 1.1-2.2 3.4-5.9 5-8.3 3.2-4.7 3.6-6.2 1.6-6.2-1.9 0-9.9 13.1-14.1 23-.3.8-1.5 2.8-2.6 4.5-1.1 1.6-2.3 3.7-2.7 4.5-.3.8-2.3 3.4-4.3 5.7s-5 6.1-6.6 8.5-3.2 4.4-3.6 4.6c-.5.2-.8.9-.8 1.5 0 2.9-21.8 21.7-30 26-.8.4-2.8 1.6-4.5 2.6-1.6 1.1-3.7 2-4.7 2-1.9.1-1.3-2.2 3-11.7 2.5-5.8 2.4-8.2-.6-8.2-1.1 0-2.5-.7-3.2-1.5s-1.6-1.5-2.1-1.5c-1.3 0-10.1-6.1-13.3-9.2-1.7-1.5-3.3-2.8-3.7-2.8-1.1 0-6.9-8.8-6.9-10.4 0-.8-.7-1.9-1.5-2.6s-1.5-2.3-1.5-3.5-.7-2.8-1.5-3.5-1.5-1.9-1.5-2.6c0-1.6-1.6-1.9-2.5-.5-.3.5.2 1.6 1 2.4.8.9 1.5 2.7 1.5 4 0 1.4.7 3 1.5 3.7s1.5 2.2 1.5 3.4.5 2.7 1.1 3.3c2.1 2.1-1.6 5.7-7.8 7.5-11.2 3.2-17.9 4-34.9 4.5-18 .5-21.4 0-21.4-3.6 0-1-.7-2.4-1.5-3.1s-1.5-2.3-1.5-3.5-.6-2.8-1.4-3.5c-.8-.6-1.6-2.4-1.8-3.8-.2-1.5-.7-2.6-1.3-2.5-1.7.4-1.7 4-.1 5.6.9.9 1.6 2.6 1.6 3.9.1 1.3.7 3.4 1.5 4.8 2.1 3.6 1.8 7.2-.8 9.6-2.4 2.2-13.6 7.7-24.7 12.2-7.8 3.1-21.7 5-24.9 3.3-2.5-1.4-2.8-3.6-.5-4.5.9-.3 1.4-1.5 1.2-2.6-.5-3.1-2.3-2.9-2.6.3-.4 3.1-2.5 3.2-3.1.1-.2-1-.9-2.3-1.7-2.7s-1.4-1.5-1.4-2.2c0-.8-.7-1.5-1.5-1.5-1.8 0-2 2.1-.4 3.7 1.2 1.2 2 2.6 5.6 9l2.2 4-4.8 3.7c-6 4.5-13.6 8.6-16 8.6-1 0-2.1.8-2.3 1.7-1.5 5.5-24.8 7.8-34 3.5-5.4-2.6-10.8-7.6-10.8-10.1 0-2.7 2.6-5.7 8.7-9.8 13.1-8.8 18.2-12.6 24.2-17.6 6.2-5.3 14.2-9.8 23.1-13.2 8.3-3.2 27.2-12.9 31.6-16.2 2.3-1.8 4.5-3.3 4.8-3.3s2.4-1.3 4.8-2.9c2.4-1.5 5.4-3.1 6.8-3.4s3.9-1 5.5-1.5c1.7-.6 5.9-1.8 9.5-2.7 9-2.3 16.8-4.5 21.3-6.1 2-.8 5.4-1.4 7.3-1.4 4 0 15.4-2.3 22.4-4.6 2.5-.8 5.1-1.4 5.7-1.4 2 0 14.2-5.9 19.8-9.6 5.6-3.6 7.5-4.5 15.5-6.8 15.5-4.5 28.9-8.9 32-10.6 1.9-1 4.4-2.3 5.5-2.9 1.1-.5 6.3-4.4 11.5-8.6 11-8.8 25-18.3 36.5-24.5 4.4-2.4 9.4-5.1 11-6.1 8.5-5 35.7-17.9 37.8-17.9.7 0 2.2-.7 3.3-1.5 1-.8 2.8-1.5 4-1.5 1.1 0 2.4-.4 3-.9.9-1 7.7-3.6 12.9-5.1 5.3-1.4 20.1-6.8 26-9.5 3.2-1.4 6.5-2.5 7.4-2.5s2.5-.7 3.5-1.5c1.1-.8 2.8-1.5 3.8-1.5 1.6 0 13.8-5.5 18.3-8.3 1.1-.6 5.4-3.7 9.5-6.8 10.3-7.6 19-11.9 24-11.9 2.1 0 9.9-3.4 24.2-10.5 7.9-3.9 26.8-16.1 44.3-28.6 3.9-2.7 7.9-5.4 9-6 1.1-.5 4.7-2.5 8-4.4s8.3-4.5 11-5.9c5.5-2.8 8.9-6.6 5.8-6.6-1 0-3.8 1.1-6.3 2.4M988.5 482.1c.4.5 1.7 1.4 2.8 2 1.2.5 2.9 1.3 3.7 1.8s2.2 1.2 3 1.5c2.2.9 4.9 2.7 8.8 6.3 3 2.6 3.4 3.4 2.3 4.7-.7.8-1.9 4.3-2.6 7.8-1.4 6.5-2.6 9.9-4.7 13.2-4.6 7.1-9.7 14.4-11.3 16.3-2.2 2.6-6.3 3-7.1.8-.4-.8-1.8-1.5-3.4-1.5-1.5 0-3.3-.7-4-1.5-.8-1-3-1.5-6.1-1.5-2.6 0-5.1-.5-5.4-1-.3-.6-1.3-1-2.2-1s.1 1.1 2.1 2.5 4.7 2.5 6 2.5c1.2 0 3.1.7 4.2 1.5 1 .8 2.8 1.5 4 1.5 1.1 0 3 1.3 4.2 3 4.2 5.6 2.4 23.9-3.1 32.2-2.2 3.2-2.6 3.3-9.5 3.6-4 .2-7.2.7-7.2 1.2 0 1 5 2.2 9.5 2.2 4.2 0 6.2 2.7 8.1 10.7 1.7 7 1.7 15.2.1 21.1-2.7 9.6-6.9 12.9-16.5 12.5-4.2-.1-6.7-.6-7.3-1.6-.5-.8-.9-5.7-.9-10.9 0-6.7-.5-10.1-1.5-11.4-.8-1.1-1.5-3.6-1.5-5.5-.1-2-1.2-5.4-2.5-7.6-1.4-2.2-2.9-4.9-3.4-6s-1.8-2.8-2.9-3.8c-1.8-1.6-1.9-2.3-.9-5 1-3 1.4-19.5.7-29.9-.2-3.3.1-5.1 1.3-6.3 1.3-1.2 1.7-3.4 1.7-8.3 0-6 .3-6.9 2.8-9 12.4-10.5 15.2-13.2 18-16.9 1.8-2.3 3.2-4.6 3.2-5.2 0-.5.7-1.1 1.5-1.5.8-.3 1.5-1 1.5-1.6 0-.7 2.1-3.8 4.6-7.1 3.3-4.3 5.2-5.9 6.9-5.9 1.3 0 2.7.5 3 1.1"/>
  <path d="M987 488.5c.7.8 2 1.5 3 1.5s2.3.7 3 1.5 1.8 1.5 2.5 1.5 1.8.7 2.5 1.5c1.3 1.6 5 2.1 5 .7 0-1-5.5-5.2-6.8-5.2-.5 0-1.5-.7-2.2-1.5s-2.8-1.5-4.7-1.5c-3 0-3.4.2-2.3 1.5m-6.3 2.1c-1 1.1.3 2.4 2.4 2.4 1 0 1.9-.7 1.9-1.5 0-1.5-3.1-2.1-4.3-.9m-3.5 6.6c.3.7 1.3 1.5 2.4 1.7 1 .2 2.4 1 3 1.9.6.8 1.6 1.2 2.2.8 1.6-1 1.5-2.6-.2-2.6-.7 0-1.9-.7-2.6-1.5-1.5-1.8-5.3-2-4.8-.3m20.3 2.7c-.7 1.2 1.2 2.4 2.5 1.6 1.1-.7.4-2.5-1-2.5-.5 0-1.1.4-1.5.9m-25.3 3.3c.4 1.2 5.8 3.1 6.6 2.3.3-.2.2-1.1-.1-2-.8-1.8-7.1-2.2-6.5-.3m23.5 2.5c-1.2 1.1-.8 2.3.8 2.3.8 0 1.5.4 1.5 1 0 .5.7 1 1.5 1 1.9 0 1.9-1.4-.1-3.4-1.7-1.7-2.7-2-3.7-.9m-29.2 3.3c-.3.5.7 1.2 2.2 1.5 1.5.4 3.8 1 5.1 1.5 2.5 1.1 3.1-.7 1-2.8-1.4-1.4-7.4-1.6-8.3-.2m27.9 5.5c3 2.6 5.1 3.1 6.1 1.6.6-1-4.9-4.1-7.4-4.1-1.1 0-.7.8 1.3 2.5m-32.7.1c-1.1 1.2.3 2.4 2.9 2.4 1.6 0 2.4-.5 2.2-1.3-.5-1.3-4-2.2-5.1-1.1m23.5 3.6c.3.7 1.4 1.4 2.6 1.6 1.1.2 2.6 1 3.2 1.8 1.3 1.5 5 2 5 .6 0-.5-1.3-1.8-3-3-3.2-2.4-8.4-3-7.8-1m-29.5 2.4c-1.1 1.1.3 2.4 2.7 2.4 1.2 0 2.7.5 3.3 1.1s2.1.9 3.4.7c2.3-.3 2.2-.4-1.2-2.6-3.6-2.2-6.9-2.8-8.2-1.6m18.3.9c0 1 .7 1.5 1.8 1.3 2.1-.4 1.9-2.2-.2-2.6-1-.2-1.6.3-1.6 1.3m9 2.9c0 .9.7 1.6 1.5 1.6s1.5.4 1.5 1c0 .5 1 1 2.1 1 2 0 2-.2.7-2.3-1.8-2.7-5.8-3.6-5.8-1.3m-12.8 2.8c.3.7 1.7 1.4 3.2 1.6s3 1 3.3 1.8 1.7 1.4 3 1.4c1.4 0 3.1.7 3.7 1.6.7.9 1.8 1.3 3 .8 1.6-.6 1.5-.9-1.1-3-1.5-1.3-3.5-2.3-4.4-2.4-.8 0-2.4-.7-3.5-1.5-2.4-1.8-7.7-2-7.2-.3m-19.6 8.5c-1.1 1.1-.6 2.3.9 2.3.8 0 1.5-.4 1.5-.9 0-1.3-1.6-2.2-2.4-1.4m11.9 3.2c-.7 1.2 3.1 2.5 4.5 1.6.6-.4.8-1.1.5-1.6-.8-1.2-4.2-1.2-5 0m12.5 3.6c0 .9.9 1.5 2.5 1.5s2.5-.6 2.5-1.5-.9-1.5-2.5-1.5-2.5.6-2.5 1.5m-10.8 2.4c-1.9 1.1.8 2.1 5.8 2.1 2.5 0 4 .5 4.4 1.6.3.9 1.5 1.4 2.8 1.2 2.8-.4 2.6-2.2-.2-2.6-1.2-.2-2.4-1-2.7-1.8-.6-1.6-7.9-2-10.1-.5m8.3 8.1c-1 1.6 1.3 3 4.8 3 1.7 0 2.7-.5 2.7-1.5 0-.8-.9-1.5-1.9-1.5-1.1 0-2.6-.3-3.4-.6s-1.8 0-2.2.6m-22.5 7.5c0 .8.7 1.5 1.5 1.5s1.5-.7 1.5-1.5-.7-1.5-1.5-1.5-1.5.7-1.5 1.5m17.7-.9c-1.5 1.5.7 2.4 5.9 2.4 4 0 5.5-.4 5.2-1.3-.5-1.3-9.9-2.3-11.1-1.1m-2.2 6.4c-.3.5 0 1.3.8 1.6 2.3.9 12.2 0 12.2-1.1 0-1.4-12.2-1.9-13-.5m-4.5 7c0 .5.7 1 1.5 1s1.5-.5 1.5-1c0-.6-.7-1-1.5-1s-1.5.4-1.5 1m-12 1c-1.3.9-1.3 1.1 0 2 1.9 1.2 3.5.8 3.5-1s-1.6-2.2-3.5-1m1.5 6.9c-.3.5-.1 1.2.4 1.5 1.3.8 4.2-.4 3.5-1.5-.7-1.2-3.1-1.2-3.9 0m4 6.1c-.3.5 0 1.3.9 1.6 2.1.8 6.1.1 6.1-1.1 0-1.4-6.2-1.9-7-.5m18 3c-.4.6.5 1 2 1s2.4-.4 2-1c-.3-.6-1.2-1-2-1s-1.7.4-2 1m-16 2.9c-.6 1.1.9 2.3 1.9 1.4.9-.9.7-2.3-.3-2.3-.6 0-1.2.4-1.6.9m15.2 2.7c-1.2 1.2.4 2.4 3.3 2.4 1.6 0 3.1-.4 3.4-.9 1-1.6-5.2-3-6.7-1.5M959 608.5c0 1 .7 1.5 1.8 1.3 2.1-.4 1.9-2.2-.2-2.6-1-.2-1.6.3-1.6 1.3m14.7 2.1c-.9 1 .2 2.4 1.9 2.4.8 0 1.4-.7 1.4-1.5 0-1.5-2.1-2.1-3.3-.9m-2.7 6.9c0 .8.7 1.5 1.5 1.5s1.5-.7 1.5-1.5-.7-1.5-1.5-1.5-1.5.7-1.5 1.5m-11 2.5c0 1.4 4 2.8 6.2 2.2 2.5-.6 2.3-1.8-.4-2.6-3.5-.9-5.8-.7-5.8.4m206-377.6c0 .9.7 1.6 1.6 1.6 1.7 0 1.4-2.2-.4-2.8-.7-.2-1.2.3-1.2 1.2m-9 3.1c0 .8.7 1.5 1.5 1.5s1.5-.7 1.5-1.5-.7-1.5-1.5-1.5-1.5.7-1.5 1.5m-5.5 2.4c-.7 1.2 2.1 5.1 3.7 5.1 1.3 0 .9-1.3-1.1-3.9-1.3-1.7-2-2-2.6-1.2m-6.5 3.6c0 .9.5 1.5 1.1 1.3s1.1-.8 1.1-1.3-.5-1.1-1.1-1.3-1.1.4-1.1 1.3m-6 3c0 1.1 4.4 6.5 5.2 6.5 1.6 0 .8-2.7-1.5-4.8s-3.7-2.8-3.7-1.7m-10 8.3c0 .5 1.1 1.9 2.4 3.1 3.3 3.1 5.4 1.8 2.4-1.5-2.3-2.3-4.8-3.2-4.8-1.6m-7 3.2c0 .5.9 1.4 1.9 1.9 1.4.8 2 .7 2.4-.3.3-.8.3-1.7 0-2-1-1-4.3-.7-4.3.4m-10 5.5c0 1.6 2.7 3.2 3.7 2.1.7-.7-1.6-3.6-2.8-3.6-.5 0-.9.7-.9 1.5m-6.2 2.7c1.2 1.2 2.4 1.9 2.8 1.5 1-1-1.6-3.7-3.4-3.7-1.3 0-1.2.4.6 2.2m-11.6 4c.6 1.8 2.8 2.1 2.8.4 0-.9-.7-1.6-1.6-1.6s-1.4.5-1.2 1.2m98.8 39.6c0 1.9 1.2 4.2 2.2 4.2 1.4 0 .5-4.3-.9-4.8-.7-.2-1.3.1-1.3.6m-29 5.7c0 .2.9.9 2 1.5 1.6.9 1.8.8 1.4-.5-.5-1.3-3.4-2.2-3.4-1m10.7 1.2c.3 1 1.1 2.2 1.8 2.8.6.5 1.4 1.8 1.8 2.7.3 1 1.1 1.8 1.7 1.8 1.7 0 1.1-2.9-1.2-6-2.4-3.3-5.1-4.1-4.1-1.3m-14.2 2.2c-.4.7 0 2 .9 3s1.6 2.3 1.6 2.9c0 1 3 3.2 4.4 3.2.7 0-2-5.1-4.3-7.9-1.3-1.7-2-2-2.6-1.2m-5.5 5c0 1.2.6 2.1 1.5 2.1.8 0 1.5-.4 1.5-.9s-.7-1.4-1.5-2.1c-1.3-1-1.5-.9-1.5.9m-6 1.7c0 1.5 2.9 7.2 4.1 7.9.5.4.9 1.5.9 2.6 0 1 .7 1.9 1.5 1.9s1.5-.6 1.5-1.4-.7-2.1-1.5-3c-.8-.8-1.5-1.8-1.5-2.3-.1-1.3-5-6.9-5-5.7m-6.6 1.5c-.3.6-.1 1.6.5 2.2.8.8 1.1.5 1.1-1.1 0-2.4-.5-2.8-1.6-1.1m-15 3.3c1.4 1.9 2.6 3.9 2.6 4.5s.7 2.5 1.4 4.3c.8 1.8 1.8 6 2.2 9.3.8 7.1 2.2 5.2 2.3-3.1.1-6.2-2.4-12.4-6.5-15.9s-5.1-3.1-2 .9m9.3-.8c-.4.4-.1 1.4.7 2.3s1.6 2.5 1.7 3.5c.5 2.4 2.3 2.7 2.7.5.3-1.8-4.1-7.3-5.1-6.3m104.7.9c-.6 1.5 2.4 6 5.6 8.2 2.8 2 2.5.4-1.1-5-3.4-5.2-3.7-5.4-4.5-3.2m-81.1 2.2c-.4 1 .2 2.3 1.7 3.5 3 2.4 3.4 1.9 1.4-2-1.8-3.6-2.2-3.9-3.1-1.5m43.1 3.8c-.4.8-1.4 1.5-2.4 1.5s-2.3.7-3 1.5-2.1 1.5-3.1 1.5c-1.1 0-1.9.5-1.9 1 0 .6-1 1.5-2.2 2-2.8 1.2-5.5 3-7.8 5-.9.8-2.7 2.2-3.9 3-4 2.6-11.4 9.2-14.4 12.7-3.5 4.1 0 3.2 4.6-1.2 5-4.6 20.1-16.5 21.2-16.5.8 0 6.9-4.4 7.3-5.3.2-.4 1.2-.7 2.2-.7s2-.6 2.3-1.4 1.6-1.6 2.8-1.8 2.4-.9 2.7-1.6c.6-1.8-3.7-1.5-4.4.3m59.1-.5c-.3.6.1 1.3.9 1.6.9.3 1.6 1 1.6 1.5 0 1 6.5 7.9 7.5 7.9 1.6 0 0-3.2-3.9-7.3-4.6-5-5.1-5.3-6.1-3.7m-23.9 1.7c-1.2 1.2-.6 3.3.9 3.3.8 0 1.5-.6 1.5-1.4 0-1.7-1.4-2.8-2.4-1.9m18 .1c-.3.6 0 1.6.7 2.4 2.4 2.5 7.7 9.6 7.7 10.3 0 1.4 12.6 14.5 13.9 14.5 2.2 0 1.5-.9-7.6-10.6-1.8-1.9-3.3-3.9-3.3-4.4 0-.6-.7-1.3-1.5-1.6-.8-.4-1.5-1.1-1.5-1.8 0-.6-.8-1.8-1.8-2.7-.9-.8-2.7-2.8-3.8-4.3-1.3-1.8-2.4-2.5-2.8-1.8m-27.4 1.3c.2.6.8 1 1.3 1s1.1-.4 1.3-1-.4-1.1-1.3-1.1-1.5.5-1.3 1.1m-6 3.5c.4 2.1 2.2 2.3 2.6.1.2-1-.3-1.7-1.3-1.7s-1.5.6-1.3 1.6m27.5 1.3c.6 2.4 4.1 5.7 5 4.7.8-.7-2.7-5.8-4.4-6.3-.7-.3-.9.4-.6 1.6m-128.7 1.6c0 1.3 3.8 4.6 4.3 3.8.3-.5-.3-1.7-1.4-2.6-2-1.7-2.9-2.1-2.9-1.2m122.4 1c-.5 1.1-.1 2.2.9 3 1 .7 1.7 1.5 1.7 1.9 0 .3.8 1.4 1.8 2.4.9 1 3.9 4.4 6.5 7.5 5.1 6.1 8.7 8.7 8.7 6.5 0-.7-2.4-3.8-5.3-6.9s-7.2-8-9.5-10.9c-3.4-4.3-4.3-4.9-4.8-3.5m-824.4.1c-1.4.3-4.5 1.1-7 1.8-13.1 3.9-16.7 4.7-30.5 6.2-19.7 2.3-61 2.3-74 .1-18.9-3.2-30.5-4-42.1-2.8-11 1.2-23.5 3.1-37.4 5.6-7.7 1.4-20.5 3.2-43.5 6-15.8 1.9-26.6 4.1-32 6.3-6.7 2.8-24.7 13.8-30.5 18.7-12.1 10.1-14.8 12.3-22.4 17.4-4.3 2.9-12.4 9-17.9 13.4-9.5 7.6-17.6 13.5-20.8 15.1-.8.3-3.6 2-6.4 3.6-2.7 1.7-9.2 5.1-14.3 7.6-9.1 4.5-11.4 7.2-5.6 6.6 4.3-.5 21.1-9.2 34.3-17.8 11.9-7.8 19.6-13.3 54.9-39.4 11.2-8.3 22.7-16.3 25.5-17.9 6.3-3.4 15.5-5.5 34.2-7.6 7.7-.9 17.2-2.1 21-2.7 3.9-.6 10.6-1.4 15-1.8 4.4-.5 10.7-1.3 14-2 30-5.8 40.6-6.9 51.9-5.4 54.2 7.5 87.6 6.7 127.6-3.1 11.9-2.9 15.9-3.2 23-1.9 6.8 1.3 19.3 6.4 20.5 8.4.3.5 1.5 1 2.6 1s2.2.7 2.5 1.5c.4.8 1.3 1.5 2 1.5.8 0 4.2 1.7 7.4 3.9 6 3.8 6 3.9 3.8 5.4-2.3 1.5-2.2 1.5 1.7 2.1 2.2.3 6.5 1.1 9.5 1.7s7.5 1.3 10 1.6 8.3 1.6 13 3c4.7 1.3 13 3 18.5 3.8s16.1 2.3 23.5 3.4c7.4 1.2 15.2 2.1 17.3 2.1 2.2 0 5.5.7 7.5 1.6 8.8 3.8 9 3.9 32.1 24.4 5.3 4.7 12 10.5 14.9 12.9s8 7.9 11.2 12.1c7 9.2 23.1 24.5 32.7 31 8 5.4 8.8 7.7 4.5 11.8-9.5 9-8.9 8.7-17.1 8.6-8.6-.1-14.9-2-22.6-7-9-5.9-16.1-13.7-19.7-21.5l-1.6-3.6 3.3-3.6c1.9-2.1 3.7-3.7 4-3.7.8 0 4.4-4.2 4.5-5.3 0-1.3-2-.7-4 1.3-1.1 1.1-2 2.4-2 3 0 .5-.7 1-1.5 1s-1.5.4-1.5 1c0 1.8-3.9 5-6.1 5-1.2 0-3.5-.6-5.2-1.3-1.8-.8-5.9-2.2-9.2-3.2-3.3-1.1-7.1-2.6-8.5-3.4-3.6-2.2-14.2-10.2-16.2-12.2-1-.9-2.5-2.3-3.5-3.1-1-.7-2.7-2.3-3.7-3.6-1.8-2.1-1.8-2.3-.1-4.2 1.1-1.2 1.5-2.6 1.1-3.7-.7-1.6-1-1.5-2.8 1-4.2 5.7-7.7 6.6-27.4 6.8-14.4.2-18.8-.1-22.7-1.5-2.6-.9-6.1-1.6-7.7-1.6s-5.1-.6-7.7-1.3c-3.7-1-4.7-1-5 0-.3.7-1.5 1.3-2.8 1.3-3 0-5.5 1-5.5 2.1 0 1.5 5.7 1 7-.5.9-1.2 1.7-1.3 3.8-.4 2.6 1.1 6.7 1.7 26.2 3.7 12.2 1.3 32 1.4 35.2.2 3.5-1.3 7.4.7 13.9 7.3 3.1 3.1 6.3 5.6 7 5.6 1.5 0 6.9 6.2 6.9 7.9 0 .6-1 1.6-2.2 2.2-3.8 2-7.1 6-5.9 7.2s5.1-1.8 5.1-3.9c0-2 3.6-3.6 4.7-2.1.6.6 3.8 7 7.2 14.2 3.4 7.1 6.7 13.7 7.2 14.5s1.2 2.2 1.6 3 2.6 4.7 5 8.6 4.3 8 4.3 9.1c0 6.1 13.7 35 19.5 41.1 4.5 4.7 4.5 7.4.1 10.1-2.7 1.7-5 2.1-11.5 2.1-7.3 0-8.9-.4-13.9-3.1-5.4-2.9-14.3-11.2-15.6-14.4-.3-.8-1-1.5-1.6-1.5-1.6 0-1.2 3 .5 3.6 2.3.9 1.8 3.4-.7 3.4-2.5.1-6.8 3.2-6.8 4.9 0 1.6 2.5 1.4 3.9-.3.7-.8 2.3-1.7 3.7-2 2-.5 3.1-.1 5 1.9 1.3 1.4 2.4 3 2.4 3.4 0 .5.6 1.4 1.4 2s1.7 3.7 2.1 6.8c.8 6.8-.5 8.3-7.4 8.3-9.7 0-17.8-6.5-21-16.8-3.1-10.2-5.1-19.4-5.1-23.8.1-3.9 2.7-8.4 4.9-8.4.6 0 1.1-.7 1.1-1.5s-.6-1.5-1.4-1.5-1.6.7-2 1.5c-.7 2-4.5 1.9-7.8-.3-3.6-2.4-13.6-12.9-16.3-17.2-1.2-1.9-2.7-5-3.3-6.8-1.1-3.1-1-3.3 2.8-5.8 2.3-1.5 4-3.5 4-4.5 0-2.6-1-2.4-3.8.8-2.2 2.6-2.9 2.8-9.8 2.7-7.8-.2-15.1-2.5-20.9-6.9-1.6-1.2-3.9-2.5-5-2.8-1.1-.4-3.8-2.4-6-4.5s-5.2-4.6-6.7-5.5c-3.2-2-3.4-3.1-1.3-7.1 2.2-4.1 1.8-5.3-.7-2.8-4.5 4.1-7.4 4.5-13 1.7-5.2-2.6-12.7-3.3-21.3-1.8-3.6.6-3.8.7-1.5 1.4 1.4.4 5.9.7 10.1.8 4.9.1 8.2.6 9.5 1.6 1 .8 2.7 1.5 3.8 1.5 3.6 0 7.9 7.2 10.8 18 1.1 4.1 2.5 8.8 3.2 10.5 4.2 9.5 5.3 18.7 2.4 19.3-1.2.2-2.1-.5-2.8-2.2-.7-1.9-1.7-2.6-3.7-2.6-1.4 0-4.5-.8-6.7-1.9-2.3-1-4.9-2.1-5.9-2.5-1.4-.4-1.7-1.2-1.2-2.8.6-1.9.5-2.1-.6-1.1-.7.7-2.6 1.3-4.1 1.3-3.5 0-3.7 1.7-.3 2.6 1.3.3 2.9 1.2 3.6 2 .6.8 2.2 1.4 3.4 1.4s2.8.7 3.5 1.5 2.3 1.5 3.5 1.5c1.3 0 2.5.7 2.9 1.5.3.8 1.6 1.5 3 1.5 1.3 0 2.6.7 3 1.5.3.8 1 1.5 1.6 1.5.7 0 3.8 2 7 4.5s6.3 4.5 6.8 4.5c1.8 0 14.9 14.7 16.9 19.1 4.5 9.6 4.7 10.7 3.2 15.1-1.4 4.3-9.2 13.8-11.4 13.8-.7 0-1.5.7-1.9 1.5-.3.8-1.6 1.5-2.8 1.5-1.3 0-3.2.7-4.2 1.5-2.4 1.8-5 1.9-6.8.2-1.8-1.6-4.9-3.6-6.8-4.3-.8-.3-2.2-1-3-1.5s-2.4-1.4-3.5-1.9c-1.1-.6-3.3-1.9-5-3-4.4-2.9-5.5-3.3-6.3-2.5-.4.3.1 1.2 1.1 1.9 2.1 1.6 2.2 4.4.2 7-.8 1.1-1.5 2.6-1.5 3.4 0 2.1-5.1 8.2-6.9 8.2-2.1-.1-9.8-3.6-11.6-5.4-3.1-3-5.6-11.7-5.3-18 .3-5.1.6-6.2 2.6-7.2s1.1-1.7-11-7.7C428.2 552 417.4 547 416 547c-.5 0-2.4-.6-4.2-1.4-5.6-2.4-23-6.6-36.3-8.7-5.1-.9-18.6-1.4-37.5-1.4-30.6-.1-30.8-.1-50.5-5.2-8.2-2.1-18.4-6.5-24.7-10.7-8.1-5.3-22.1-17.7-34.4-30.2-6.1-6.3-11.6-11.4-12.3-11.4-.6 0-1.1-.5-1.1-1 0-.6-1-1.5-2.2-2-1.3-.6-3.6-1.9-5.3-2.9-4.1-2.7-4.9-2.5-2.8.4 1 1.3 2.3 2.5 2.9 2.5.7 0 1.4.7 1.8 1.5.3.8 1.1 1.5 1.8 1.5 1.1 0 12.4 10.4 17.4 16.1 2.3 2.6 1.7 3.6-5.3 7.9-10.8 6.6-22.9 15.3-28.1 20.2-11.8 11.2-19.4 20.1-23.7 27.4-2.5 4.3-5 8.6-5.5 9.4-.6.8-1.3 2.2-1.7 3-.9 1.9-13.9 21-21.3 31.2-3 4.2-7.1 10-9 12.8-3.8 5.7-26.8 36.5-31.3 42-.7.8-3.4 4.4-6.2 8-5.4 7.1-20.2 24.4-25.8 30.2-2 2-7.4 6.9-11.9 10.8-4.6 4-9.4 8.2-10.8 9.4s-4.2 3.5-6.2 5c-3.2 2.4-5.1 5.6-3.3 5.6 1.3 0 15.4-9.7 17.5-12 .3-.3 2.8-2.3 5.5-4.5 9.1-7.2 26.6-24.4 31.6-31 1.3-1.7 4.8-5.9 7.9-9.5 7.5-8.6 33.8-44.2 42.9-58.2 2.6-4 7.4-11.3 10.7-16.3 3.2-4.9 6.4-9.8 6.9-10.7.6-.9 2.9-4.8 5.3-8.5s4.8-7.7 5.5-8.8c5.9-9.7 9.6-14.5 18.7-23.9 9.6-9.9 19.1-18.2 23-19.9.8-.4 2.9-1.6 4.5-2.7 4.7-3 11.7-6.1 15.1-6.7 2.2-.4 3.7 0 5 1.4 1 1 5.5 5 9.9 8.8 4.4 3.9 8.9 7.8 10 8.8 2.7 2.4 12.1 7.9 16.5 9.5 7.3 2.7 13.8 4.3 23.8 5.7 5.6.8 10.8 1.7 11.4 2.1.7.5 13.2.8 27.8.9 16.1.1 29.2.6 33.5 1.3 22.5 4 38.9 8.5 55.5 15.2 18.6 7.6 20 8.8 20 18.3 0 8.1 2.1 14.3 6 18.3 5 5.1 8.6 6.7 15.6 6.8 6.8.1 8.4-1 12.1-8.6 2.3-4.9 4-4.8 13.9.2 4.3 2.2 8.9 4 10.2 4 5.1 0 13-5 20.6-13.1l7.6-8.1v-6.6c0-5.5-.5-7.4-3.1-12.1-5.4-9.6-11-16.1-19.1-22.2-4.3-3.3-8.2-6.7-8.6-7.7-.5-.9-1.3-4.6-1.6-8.2-.4-3.6-2-9.7-3.5-13.5-3.9-9.8-5.4-14.6-4.7-15.2 1.1-1.2 5.3.8 9.1 4.2 7.3 6.6 18.3 12.2 26.5 13.4 3.4.4 4.6 1.1 4.9 2.6.7 3.9 7.7 13.1 16.5 21.9l9 8.9 1.3 9.1c2.7 19.9 7.6 30.6 16.4 36.2 3.3 2 5.1 2.4 11.8 2.4 11.9 0 16-3.1 14.5-10.8-.8-3.8.5-4.5 5-2.7 4.6 2 13 1.9 19.2-.1 7-2.3 8.7-4.3 8.8-10.1 0-3.9-.7-5.8-3.7-10.2-6.8-10.1-17.7-33.9-17.7-38.7 0-1.3-1.3-3.9-6.7-12.9-.7-1.1-1.5-2.7-1.9-3.5-.6-1.6-2.1-4.4-10-19.7-2.7-5.1-4.6-9.4-4.3-9.7.5-.5 12.8 2.6 14.6 3.7.6.4 2.7 3.1 4.6 5.9 8.7 13.1 20.7 22.2 34.8 26.2 12.2 3.5 21.2 1.2 30.5-7.8 9.1-8.8 8.4-12.3-4.4-20.9-8-5.3-28.9-25.6-34.2-33-1.9-2.6-7.3-8.1-12-12.1-4.7-4.1-10.1-8.8-12-10.6s-7.1-6.4-11.5-10.3-8.9-8-10-9-4.9-3.2-8.4-4.9c-5.4-2.5-8.3-3.1-18-3.8-6.4-.5-13.2-1.4-15.1-1.9-1.9-.6-4.8-1.1-6.5-1.1-3.5 0-18.6-2.5-26.5-4.5-23.1-5.7-34.4-9.6-43.6-15-4.2-2.5-13.1-7.2-20-10.6-12.1-5.9-12.7-6.1-21.6-6.4-5.1-.2-10.4-.1-11.8.1m815 1.4c0 .5.8 1.8 1.8 2.8.9 1 2.4 2.9 3.2 4.1 4.1 6.1 12.4 15.1 14 15.1s1.2-1.4-1.2-4c-1.3-1.3-3.2-3.6-4.3-5-3.6-4.9-12-14-12.7-14-.5 0-.8.4-.8 1m-14.6 2.5c-.6 1.4 3.6 7.6 7.8 11.7 2 2.1 2.8 2.3 2.8.7 0-1.1-9-13.9-9.7-13.9-.2 0-.6.7-.9 1.5m10.3 3.5c.9 1.6 3.6 5.1 6 7.7 2.3 2.7 4.3 5.1 4.3 5.5 0 1.2 3 1 3-.2 0-.5-1.8-2.8-4-5.2s-5-5.8-6.3-7.5c-2.9-4.3-5.5-4.5-3-.3m67.3-.8c.1 1.7 3.5 5.8 4.9 5.8 1.8 0 1.3-1.7-1.3-4.4-2.6-2.9-3.6-3.2-3.6-1.4m-185.5.8c-.4.6-.3 1.6.3 2.2s1.2.6 1.7-.2c.4-.6.3-1.6-.3-2.2s-1.2-.6-1.7.2m101.5.5c0 .8.4 1.5.8 1.5s3.3 3.4 6.3 7.5c2.9 4.1 6 7.5 6.7 7.5 2.2 0 1.3-1.8-3.3-6.7-2.5-2.6-4.5-5.3-4.5-6 0-.8-.7-1.6-1.5-1.9-.8-.4-1.5-1.2-1.5-2s-.7-1.4-1.5-1.4-1.5.7-1.5 1.5m45-.7c0 1.7 11.7 13.5 12.9 13.1.9-.3-1-2.9-5.1-7.2-6.2-6.4-7.8-7.7-7.8-5.9m19 .6c0 1 .9 1.6 2.1 1.6 2.4 0 2.1-2.3-.4-2.8-1-.2-1.7.3-1.7 1.2m11.7-.8c-.8.8.1 2.4 1.4 2.4.5 0 .9-.7.9-1.5 0-1.5-1.2-2-2.3-.9m17.3.7c0 1.9 3.7 5 4.9 4.2q1.05-.6-.6-3c-2-2.7-4.3-3.3-4.3-1.2m-186 .6c0 .5.7 1.6 1.5 2.5.8.8 1.5 2.1 1.5 3 0 .8.6 1.9 1.4 2.3s1.5 1.6 1.7 2.6.8 1.8 1.4 1.8c1.6.1 1.7-1.8 0-3.4-.8-.9-1.5-2.2-1.5-3.1 0-.8-1.1-2.6-2.4-4-2.4-2.7-3.6-3.2-3.6-1.7m78.6 2c-.4.6 0 1.4.8 1.7.9.3 1.6 1.1 1.6 1.7 0 .5 1.7 3 3.8 5.5 2 2.4 4.5 5.4 5.4 6.6 1.2 1.5 2 1.8 2.8 1s0-2.4-3-5.9c-8.2-9.4-10.7-11.8-11.4-10.6m11.8 3.5c-.6 1.5 3.3 7.6 4.8 7.6.4 0 .8.6.8 1.2.1 1.8 4.7 5 5.5 3.8.3-.5-.2-1.8-1.2-2.8-4.1-4.3-7.3-8.2-7.3-9.1 0-1.7-2-2.3-2.6-.7"/>
  <path d="M437.6 370.5c.9 3.5-1 3.9-11.7 2.9-6.9-.7-9-.7-9.3.3-.4.9-3.1 1.3-8.9 1.3-12.1 0-24 1.1-22.9 2.2 1.5 1.5 21.6 1.4 37.8-.1 13.9-1.3 15.4-1.3 18.7.2 1.9.9 5.1 1.7 7 1.7s5.4.7 7.7 1.5c4.7 1.7 13 2 13 .6 0-1.2-6.7-3.4-8.4-2.8-.8.3-2.2-.1-3.3-.8-1-.8-3.8-1.5-6.3-1.5-2.5-.1-6.1-.7-8-1.3-2.9-1.1-3.5-1.7-3.3-4 .1-1.8-.3-2.7-1.3-2.7s-1.3.7-.8 2.5"/>
  <path d="M443.4 369.4c-.4 1-.2 2.2.4 2.8.8.8 1.3.7 1.8-.6.4-1 .2-2.2-.4-2.8-.8-.8-1.3-.7-1.8.6m6.2 1.4c-.3.6-.1 1.4.5 1.7 1.5 1 2.5-.3 1.2-1.6-.7-.7-1.3-.7-1.7-.1m836.4.7c0 .8.9 1.9 1.9 2.5 2.8 1.5 3 1.3 1.8-1.5-1.3-2.7-3.7-3.4-3.7-1m10-.7c0 1.2 3.4 4.2 4.8 4.2 1.7 0 1.5-1.6-.4-3.4-1.6-1.7-4.4-2.2-4.4-.8m-100 .8c0 .3 1.4 2.7 3.1 5.3 3.1 4.7 6.6 7.8 7.6 6.7.8-.8-8-12.5-9.4-12.6-.7 0-1.3.3-1.3.6m-836 3c0 1.3 1.4 1.5 8.5 1.2 4.7-.1 8.5-.6 8.5-.9 0-.7-8.6-1.9-13.7-1.9-2.3 0-3.3.5-3.3 1.6m752.6-.7c-.4.6-.1 1.4.7 1.7.9.3 1.8 1.6 2.1 3 .4 1.3 1.1 2.4 1.6 2.4.6 0 1 1.1 1 2.5s.7 2.8 1.5 3.1c.8.4 1.5 1.4 1.5 2.4 0 2.6 1.9 3.5 2.7 1.4.4-1 0-2.2-1-2.9s-1.7-1.9-1.7-2.7c0-.9-.7-2.1-1.5-2.8s-1.5-1.8-1.5-2.5c0-2-4.7-6.8-5.4-5.6m21.1 2.6c-.4 2.2-.2 4.4.3 4.9 1.5 1.5 2.2-1.8 1.2-5.5l-.8-3.4zm-12.5-.9c.1.9.9 1.9 1.6 2.2.9.3 1.3-.2 1-1.4-.1-.9-.9-1.9-1.6-2.2-.9-.3-1.3.2-1 1.4m2.8 5.8c0 2.4 1.6 4.3 2.7 3.2.8-.8-.6-5.6-1.7-5.6-.6 0-1 1.1-1 2.4m69.5-1.4c-.7 1.2 4.8 7 6.6 7 1.2 0 .1-1.7-3.7-5.8-1.5-1.5-2.5-1.9-2.9-1.2m-14.8 2.7c-.6 1 .4 2.6 6.2 9.4 3.2 3.7 5.1 4.9 5.1 3 0-.4-1.5-2.4-3.4-4.4-1.8-1.9-4.2-4.8-5.3-6.3s-2.3-2.3-2.6-1.7m-1014.1 6c-1.1 1.1-.6 4 1.5 8.8 1.7 3.8 2.3 4.5 3 3.2 1-1.7.2-4.7-1.2-4.7-.5 0-.9-1.5-.9-3.4 0-3.4-1.1-5.2-2.4-3.9m14.8.7c-.8 2.1.3 4.9 1.6 4.1.5-.3 1-1.5 1-2.5 0-2.5-1.8-3.6-2.6-1.6m15.3-.8c-.4.4-.7 2.5-.7 4.6 0 4.9 2.3 4.7 2.8-.2.3-3.2-.8-5.6-2.1-4.4m15 .1c-1 1-.8 7.3.2 7.3 1.1 0 2.1-2.5 2.1-5.6 0-2.3-1-3.1-2.3-1.7m956.8.4c-1 1.5.3 2.5 1.6 1.2.7-.7.7-1.3.1-1.7-.6-.3-1.4-.1-1.7.5m26.2-.5c-.8.9 1.1 4.4 2.4 4.4.6 0 .9-1 .7-2.2-.3-2.2-1.9-3.4-3.1-2.2m-1021.7 1c0 1.3 2.1 4.4 3 4.4 1.6 0 1.1-3.7-.6-4.4-1.9-.7-2.4-.8-2.4 0m-13 2.3c0 1.2.6 2.1 1.6 2.1.9 0 1.4-.7 1.2-1.7-.5-2.5-2.8-2.8-2.8-.4m957-.7c0 .7.4 1.9.9 2.7 1.1 1.7 2.5-.3 1.7-2.4-.7-1.8-2.6-2-2.6-.3m-914.6 1.2c-.8 2.1-.1 6.1 1.1 6.1.6 0 1.1-1.7 1.3-3.8.3-3.7-1.3-5.2-2.4-2.3m24 .3c-.3 1-1.2 3.1-2.1 4.6-1.5 2.9-1.1 6.3.7 5.2.5-.3 1-1.4 1-2.4s.7-2.4 1.5-3.1c1.7-1.4 2.1-6 .5-6-.6 0-1.3.8-1.6 1.7m257.6-.2c0 .9.5 1.5 1.1 1.3s1.1-.8 1.1-1.3-.5-1.1-1.1-1.3-1.1.4-1.1 1.3m6.4-.2c-.7 2-.2 4.7 1.1 5 1.4.3 1.9-4.3.6-5.6-.7-.7-1.2-.6-1.7.6m477-.1c-.4.6.1 1.7 1.1 2.5 3.4 2.4 4.6 1.3 2.1-2-1.5-2-2.2-2.1-3.2-.5m-749.7.5c-.4.3-.7 1.6-.7 2.8 0 1.3-.7 2.8-1.5 3.5-1.7 1.4-2.1 9-.5 9 .5 0 1.2-1.2 1.5-2.8.4-1.5 1.3-3.9 2.1-5.4 2.3-4.3 1.6-9.7-.9-7.1m16.1 1.5c-1 1.2-1.8 3.2-1.8 4.4s-.7 2.7-1.5 3.4c-1.6 1.3-2.1 6-.6 6 1.1 0 2.1-2.5 2.1-5 0-1 .7-2 1.5-2.4.8-.3 1.5-1.6 1.5-3s.5-2.8 1-3.1c1.2-.7 1.3-2.5.3-2.5-.5 0-1.6 1-2.5 2.2m262.7-1.2c-.7 1.2.2 3 1.6 3 .5 0 .9-.9.9-2 0-2.1-1.5-2.7-2.5-1m614.5 1.5c0 1.4.8 2.9 1.9 3.5 2.8 1.4 3.3 1.3 2.2-.8-.5-.9-1.2-2.5-1.5-3.5-.8-2.6-2.6-2.1-2.6.8m69-.3c0 1.9 4.8 6.1 6 5.3.6-.4-.2-1.8-1.9-3.6-3.2-3.2-4.1-3.5-4.1-1.7m-671.6 1.2c-.7 2 .2 4.6 1.6 4.6 1.3 0 1.3-4.7 0-5.5-.6-.3-1.3.1-1.6.9m438.1-.3c-1 1.5.3 2.5 1.6 1.2.7-.7.7-1.3.1-1.7-.6-.3-1.4-.1-1.7.5m159-.1c-.7 1.2.2 3 1.6 3 1.2 0 1.2-2.7 0-3.5-.5-.3-1.2-.1-1.6.5m-951.7.5c-.9 1 .7 6.8 2 7.3 1.7.5 1.6-5.2-.1-6.7-.8-.6-1.6-.8-1.9-.6m348.4 1.6c.1 1.3.8 2.3 1.3 2.1 1.5-.3 1.2-3.5-.3-4-.9-.3-1.3.3-1 1.9m363.8.2c0 1 .4 2.5.9 3.5 1.4 2.7 3.4 11.2 4 17 .3 2.9 1.1 5.4 1.6 5.5 1.7.4 1.7-9.8 0-13.8-.8-2.1-1.5-5-1.5-6.4 0-1.6-1-3.7-2.5-5.1-2.1-2-2.5-2.1-2.5-.7m95 1c0 2 3.3 4.7 5.8 4.7 3 0 2.8-1.2-.8-3.8-3.3-2.5-5-2.8-5-.9m159 .4c0 1 .4 2.5 1 3.3.8 1.2 1 1.2 1.6-.3.7-2-.1-4.7-1.6-4.7-.5 0-1 .8-1 1.7m57.1 1c2.1 3.2 7 6.6 8 5.6.6-.6-.3-1.8-2.6-3.4-1.9-1.3-3.5-2.7-3.5-3.2 0-.4-.7-.7-1.5-.7-1.2 0-1.3.4-.4 1.7m-68.6.3c-.8 1.3.3 5 1.6 5 1.2 0 1.2-4.7 0-5.5-.5-.3-1.2-.1-1.6.5m60 0c-.8 1.4 6.9 9 9.1 9 2.9 0 1.3-2-6.3-8.3-1.5-1.3-2.3-1.5-2.8-.7m-1021.5.9c0 .5.6 1.4 1.4 2 1.6 1.3 3.2-.2 2.1-1.9-.8-1.2-3.5-1.3-3.5-.1m91 .6c0 .9.5 1.5 1.1 1.3s1.1-.8 1.1-1.3-.5-1.1-1.1-1.3-1.1.4-1.1 1.3m714.6-.6c-1 1.5 7.6 8.1 10.6 8.1 2.4 0 2.3-2.1-.2-2.7-1.1-.3-2-.9-2-1.3 0-1.2-7.9-5-8.4-4.1m-707.9.7c-1.1 1.1-.8 4.4.3 4.4 1.5 0 2.4-3 1.3-4.1-.5-.5-1.2-.6-1.6-.3m606.7 2.4c.5 1.4 1 3.7 1.3 5.2.7 3.7 3.3 3.7 3.3 0 0-1.8-1-3.7-2.6-5.3l-2.7-2.4zm26-.7c-1 2.7.1 17 1.4 17.5.9.3 1.2-1.9 1.2-8.7 0-8.2-1.2-12.4-2.6-8.8m-17.8.6c-.4.7-.1 2.3.8 3.6s1.6 3.7 1.6 5.3c0 1.5.7 3.7 1.5 4.8.8 1 1.5 2.7 1.5 3.6 0 2.3 2 2.4 2 .2 0-.9-.4-3.3-1-5.3-.5-2-1.2-4.7-1.5-6.1-.7-3.6-4-7.6-4.9-6.1m242.8.5c-.6 1.7.2 3.6 1.7 3.6 1.2 0 1.2-3.7-.1-4.5-.6-.3-1.3.1-1.6.9m59.8-.2c.6 1.8 2.8 2.1 2.8.4 0-.9-.7-1.6-1.6-1.6s-1.4.5-1.2 1.2M140 407c0 1.8 3.6 4.7 4.7 3.7.6-.7-2.7-5.7-3.8-5.7-.5 0-.9.9-.9 2m693.7-.7c-.3.9.1 2.1.9 2.7.8.7 1.4 2.6 1.4 4.2 0 1.7.6 3.1 1.5 3.5 2.1.7 2.3.3 1.8-3.2-.6-4-4.8-9.3-5.6-7.2m8.3.4c0 1 .6 2.7 1.4 3.8.7 1.1 1.6 4 1.9 6.4.5 4.2 3 8.1 4.3 6.8.9-.9-1.5-10.6-3.7-14.7-2-3.9-3.9-5-3.9-2.3m267.4.6c-.8 2.3.5 8.9 1.7 8.2 1.2-.8 1.2-6.5-.1-8.5-.8-1.2-1-1.2-1.6.3m6.1.7c-.8 2.5.3 6.2 1.6 5.5.5-.4.9-1.9.9-3.5 0-3.5-1.6-4.8-2.5-2m-897.1.5c-.7 1.7.4 3.7 1.7 3 1.2-.8 1.2-4.5-.1-4.5-.6 0-1.3.7-1.6 1.5m-47.8 1.3c-.3.6-.1 1.4.5 1.7 1.5 1 2.5-.3 1.2-1.6-.7-.7-1.3-.7-1.7-.1m53.8 1.7c-.7 2.9-.1 4.1 1.5 3 1.4-.8 1.4-5.5.1-5.5-.5 0-1.2 1.1-1.6 2.5m684.2-1.8c-1.1 1.1-.6 2.3.9 2.3.8 0 1.5-.4 1.5-.9 0-1.3-1.6-2.2-2.4-1.4m7.9.3c-.3.6.1 1.2.9 1.5 2.8.9 4.1 1.5 7.1 3.5 1.7 1.1 4 2.4 5.2 2.9 1.1.5 2.4 1.5 2.8 2 .3.6 1.4 1.1 2.5 1.1 1 0 2 .7 2.4 1.5.6 1.7 3.2 2 4.1.5.3-.6-.4-1.5-1.7-2-1.3-.6-3.6-1.9-5.3-3-1.6-1.1-4-2.4-5.2-2.9-1.1-.5-2.4-1.5-2.8-2-.3-.6-1.4-1.1-2.4-1.1s-2.4-.7-3.1-1.5c-1.4-1.7-3.6-2-4.5-.5m14.5-.1c0 .6 1.1 1.6 2.4 2.3 13 6.9 17 8.8 18.8 8.8 1.1 0 1.8-.5 1.6-1.1-.4-1.3-12.4-7.9-14.3-7.9-.7 0-1.8-.7-2.5-1.5-1.4-1.6-6-2.1-6-.6m-102.2 1.3c.7.7 1.2 2.4 1.2 3.9s.6 3.2 1.4 3.9c.8.6 1.6 2.6 1.8 4.3.2 1.8.8 3.1 1.3 3 1.7-.4 1.7-4.3.1-6.8-.9-1.3-1.6-3.6-1.6-4.9 0-1.5-.8-3-1.9-3.6-2.6-1.4-3.8-1.3-2.3.2m268.9-.5c-1 1-.8 5.5.5 11.5 1.4 6.3 2.4 7.8 3.3 4.8.4-1.2.2-2.7-.4-3.3s-1.1-3.4-1.1-6.2c0-5-1.1-8.1-2.3-6.8m71.5 1c.2 1 1.4 2 2.8 2.2 2.5.3 2.5.3.6-1.8-2.3-2.6-3.9-2.7-3.4-.4m-216.2.7c0 1.7 2.3 2.7 4 1.6 1-.6.8-1.1-.8-1.9-2.7-1.4-3.2-1.4-3.2.3m-708.3 1.8c-.4 1.2-.4 2.4-.2 2.6.7.8 3.5-2 3.5-3.4 0-2.3-2.7-1.6-3.3.8m636.7.2c-.4 1-.2 2.2.4 2.8.8.8 1.3.7 1.8-.6.4-1 .2-2.2-.4-2.8-.8-.8-1.3-.7-1.8.6m14.6.2c0 .9 1.7 3.4 3.9 5.5 3.7 3.7 6.1 4.9 6.1 3 0-.8-8.9-10.1-9.6-10.1-.2 0-.4.7-.4 1.6m-767.6.8c-.4 1-.2 2.2.4 2.8.8.8 1.3.7 1.8-.6.4-1 .2-2.2-.4-2.8-.8-.8-1.3-.7-1.8.6m695.8 1.8c.3 3.5 2.8 5.2 2.8 2 0-2.8-1-5.2-2.2-5.2-.5 0-.8 1.4-.6 3.2m339.8-2.1c0 .5 0 1.2-.1 1.6 0 .4.9 1 2 1.5 1.7.6 2.1.3 2.1-1.1 0-1-.9-2.1-2-2.4s-2-.1-2 .4m-1026.4.7c-.3.6-.1 1.4.5 1.7 1.5 1 2.5-.3 1.2-1.6-.7-.7-1.3-.7-1.7-.1m662.9.1c-.6 1.1.9 2.3 1.9 1.4.9-.9.7-2.3-.3-2.3-.6 0-1.2.4-1.6.9m104.5.6c0 .8.7 1.5 1.5 1.5s1.5.7 1.5 1.5.6 1.5 1.4 1.5 1.6.7 2 1.5c.3.8 1.2 1.5 2 1.5.7 0 1.6.7 2 1.5.3.8 1.2 1.5 1.9 1.5.8 0 2 .7 2.7 1.5s2 1.5 3 1.5 2 .7 2.4 1.5c.7 1.8 6 2.1 5.4.2-.3-.6-1.4-1.3-2.6-1.5s-2.2-.7-2.2-1.2c0-.4-1.2-1.3-2.7-1.9-3.8-1.4-7.7-4-11.4-7.4-1-.9-2.3-1.7-2.9-1.7-.5 0-1-.7-1-1.5s-.7-1.5-1.5-1.5-1.5.7-1.5 1.5m186.5 1.7c-.7 2.8-.1 4.8 1.6 4.8 1.2 0 1.2-4 0-5.9-.8-1.2-1.1-.9-1.6 1.1m-282.3 1c.5 3.2 2.8 3.5 2.8.4 0-1.7-.5-2.6-1.6-2.6-1 0-1.4.7-1.2 2.2m45.4-1.5c-1 1-.7 5.1.5 5.9 1.5.9 2.8-1.3 2.2-3.7-.6-2.2-1.7-3.1-2.7-2.2m63.4.9c0 .8 1.1 1.6 2.5 2 1.3.3 2.9 1.2 3.6 2 .6.8 1.9 1.4 2.9 1.4s2 .7 2.4 1.5c.3.8 1.4 1.5 2.4 1.5 1.1 0 2.5.7 3.2 1.5s2 1.5 3 1.5 2.3.7 3 1.5c1.4 1.7 4.6 2 5.5.5.3-.6-.5-1.4-1.8-1.9-1.4-.6-2.8-1.5-3.2-2-.3-.6-1.7-1.1-3.1-1.1s-2.7-.7-3-1.5c-.4-.8-1.4-1.5-2.4-1.5s-2.3-.7-3-1.5-2-1.5-3-1.5-2.3-.6-2.9-1.4c-1.6-2-6.1-2.7-6.1-1m167.5-.4c-.2.7-.6 3.8-.9 6.8-.2 3-.8 7-1.2 8.9-.5 2.6-.4 3.2.6 2.6 2.1-1.3 4-7.3 4-12.9 0-5.1-1.5-8.4-2.5-5.4m-964.5.7c0 1.3 2.6 3.2 3.3 2.4 1.4-1.3.6-3.3-1.3-3.3-1.1 0-2 .4-2 .9m448.1 1.3c-1 2.5.1 4.4 1.8 3.4 1.4-.9 1.4-5.6.1-5.6-.6 0-1.5 1-1.9 2.2M1157 419c0 1.9 4.1 5.2 5.7 4.6 1.3-.5 1.1-1.1-1.1-3.1-2.8-2.6-4.6-3.2-4.6-1.5m-683.3.6c-1 1.1-.9 5.2.2 5.9 1.3.8 2.4-3.2 1.4-5-.5-.9-1.2-1.2-1.6-.9m5.9.1c-.9 1-.7 11.3.3 11.3 1.1 0 2.1-3.5 2.1-7.7 0-3.1-1.1-4.9-2.4-3.6m585 .8c-.9 2.6-.7 10.5.3 10.5 1.4 0 2.5-8.5 1.3-10.5-.8-1.6-.9-1.6-1.6 0m6-.8c-.3.3-.6 2.1-.6 4 0 2.3.5 3.3 1.5 3.3s1.5-1 1.5-3.4c0-3.4-1.1-5.2-2.4-3.9m-584.9 2.5c-.7 2.3-.1 3.8 1.4 3.8 1.2 0 1.2-4.7 0-5.4-.5-.3-1.1.4-1.4 1.6m-371.7-.1c.1 1.9 2.5 4.9 3.9 4.9 1.9 0 .8-3.1-1.6-4.8-1.9-1.2-2.3-1.2-2.3-.1m689.4.4c-.7 1.8 2.8 10.6 4.2 10.6 1.8 0 1.5-3.2-.6-7.6-2.4-4.9-2.8-5.2-3.6-3m324.2-.7c-.3.5.5 1.7 1.9 2.6 3 2 3.2 1.3.6-1.5-1-1.1-2.2-1.6-2.5-1.1M459 423.2c0 2 2.4 7.8 3.2 7.8 1.3 0 .9-6.5-.4-7.8-1.5-1.5-2.8-1.5-2.8 0m56.6.3c-.8 2.2.3 4 1.6 2.7.7-.7.7-1.6.1-2.7-.9-1.6-1-1.6-1.7 0m11.6.1c.4 2.1 2.2 2.3 2.6.1.2-1-.3-1.7-1.3-1.7s-1.5.6-1.3 1.6m-59.6 2.4c-1.2 6.3-.7 9.9 1.5 11 2.4 1.3 3.8.5 2.1-1.2-.7-.7-1.2-3.2-1.2-5.8 0-5.9-1.5-8.3-2.4-4m54-1.5c-.9 2.4-.7 4.5.3 4.5.5 0 1.3-.9 1.6-2.1.8-2.6-.9-4.8-1.9-2.4m12 .1c-.8 2.1-.1 2.8 1.9 2 .9-.3 1.5-1.1 1.3-1.8-.7-1.9-2.5-2-3.2-.2m510-.4c-.2.7-1 3.8-1.9 6.8s-1.8 7.2-2.1 9.3c-.4 3.2-.2 3.8 1.2 3.5 1.1-.2 1.9-1.7 2.3-4.3.4-2.2 1.2-5.3 1.8-6.8 1.4-3.6 1.4-8.4.1-9.2-.6-.3-1.2 0-1.4.7m-750.4 1.4c.4 2.1 2.2 2.3 2.6.1.2-1-.3-1.7-1.3-1.7s-1.5.6-1.3 1.6m503.4-.1c.4.9 1.1 1.4 1.6 1.3 1.5-.5 1.1-2.3-.6-2.6-1.1-.2-1.4.2-1 1.3m325-.7c-.3.6-.1 1.4.5 1.7 1.5 1 2.5-.3 1.2-1.6-.7-.7-1.3-.7-1.7-.1m32.9.2c-.3.6.1 1.3 1 1.6 1.9.8 3 0 2-1.5-.8-1.4-2.2-1.4-3-.1M233 426.4c0 .8.4 1.7.9 2 1 .7 2.3-1.9 1.4-2.8-1.1-1.1-2.3-.6-2.3.8m309.6-.7c-.3.3-.6 2.1-.6 4 0 2.9-.3 3.3-2.5 3.3-2.5 0-2.5 0-.8 2.6s1.7 2.6 2.7.5c1.1-2.5 1.9-2.6 3.6-.6 1.2 1.4 1.5 1.4 3.1-.1 1.1-1 1.9-2.4 1.9-3.3 0-1.2-.3-1.2-1.2-.3-2.2 2.2-3.8 1.3-3.8-2.2 0-3.4-1.1-5.2-2.4-3.9m534 1.6c-.3 1.2-.6 3.8-.6 5.9 0 2-.6 3.9-1.2 4.1-.9.4-1 .6-.1.6 2.4.2 4.3-3.1 4.3-7.4 0-4.8-1.4-6.8-2.4-3.2m34.2-.6c-1.6.8-2.8 1.8-2.8 2.4 0 .5-.6.9-1.4.9s-2.1.6-2.8 1.3-2 1.6-2.8 2-2.8 1.6-4.5 2.7c-1.6 1.1-3.7 2.2-4.5 2.6-2.6 1-8.4 3.5-11.3 5-1.6.8-3.6 1.4-4.6 1.4-.9 0-2.6.7-3.7 1.5-1.8 1.3-1.6 1.4 2.7 1.5 2.5 0 5.4-.7 6.5-1.5 1-.8 2.9-1.5 4.1-1.5s2.5-.5 2.8-1.1c.4-.5 1.7-1.5 2.8-2 1.2-.5 3.6-1.8 5.2-2.9 1.7-1.1 4-2.4 5.3-3 1.2-.5 2.2-1.4 2.2-2 0-.5.6-1 1.3-1s2.7-1.4 4.5-3c1.8-1.7 3.7-3 4.3-3 .5 0 .9-.5.9-1 0-1.3-.8-1.1-4.2.7m-811.1 1c-.4.3-.7 1.5-.7 2.5 0 2.6 2.4 1.7 2.8-1 .3-2.1-.8-2.9-2.1-1.5m191.7.8c-.8 2 .3 4.8 1.6 4s1.3-5.5 0-5.5c-.6 0-1.3.7-1.6 1.5m64.8.8c-2.4 2.5-3 6.7-.9 6.7 1.5-.1 4.9-7.2 3.9-8.2-.5-.5-1.8.2-3 1.5m18-1.1c-1.4 1.4-1.6 3.8-.4 3.8 1 0 4.2-3.3 4.2-4.3 0-1.1-2.5-.8-3.8.5m238.3-.3c-.7 1.2 1.2 2.4 2.5 1.6 1.1-.7.4-2.5-1-2.5-.5 0-1.1.4-1.5.9m346.7.3c.3.7 1.3 1.5 2.2 1.6 1.2.3 1.7-.1 1.4-1-.3-.7-1.3-1.5-2.2-1.6-1.2-.3-1.7.1-1.4 1M531 429.4c-1.4 1.8-1 5.8.8 6.4.8.2 1.2-.9 1.2-3.7 0-4.5-.2-4.8-2-2.7m382 1.1c1.3 1.4 2.9 2.5 3.7 2.5.7 0 1.3.4 1.3.9s1 1.3 2.3 1.7c1.2.3 3 1.3 3.9 2.1 1 .9 2.4 1.3 3.3.9 2-.7 1-2.6-1.5-2.6-1 0-2-.7-2.4-1.5-.3-.8-1.5-1.5-2.6-1.5s-2-.4-2-1c0-.5-1.1-1.2-2.5-1.6-1.4-.3-2.5-1-2.5-1.5s-.8-.9-1.7-.9c-1.4 0-1.2.4.7 2.5m136.6-.2c-.3 1.2-.6 3.6-.6 5.3s-.7 3.7-1.5 4.4c-1.7 1.4-1.7 5.6 0 5.3.6-.1 1.1-1.1 1.3-2.2s1-2.5 1.8-3.1c.8-.8 1.4-3.1 1.4-6.1 0-5.1-1.4-7.3-2.4-3.6m5.6 4.4c.4 8.6 2.2 8.5 2.6-.2.2-5.4 0-6.5-1.3-6.5s-1.5 1.1-1.3 6.7m-599.7-3.5c-.9 3.5-.3 7 1.3 7.6 1.4.4 1.7-6.5.3-8.7-.8-1.2-1.1-.9-1.6 1.1m51.2-1.5c-.4.3-.7 1.7-.7 3 0 3.3 2.4 2.4 2.8-1 .3-2.6-.7-3.5-2.1-2m278.5.7c.1 1 .8 1.7 1.3 1.7 1.5-.1 1.2-2.4-.3-2.9-.9-.3-1.3.2-1 1.2m6.3-.4c-.4.6 0 1.9.8 2.8s1.7 2.8 1.9 4.1c.5 3.6 2.8 3.9 2.8.4-.1-3.3-4.4-9.1-5.5-7.3m-567.3 1.6c.4 2.1 2.2 2.3 2.6.1.2-1-.3-1.7-1.3-1.7s-1.5.6-1.3 1.6m222.8.4c0 2.3 1 2.6 2.8.8s1.5-2.8-.8-2.8c-1.3 0-2 .7-2 2m52-1.6c0 1.9 2.2 5.6 3 5.1 1.6-1 1.2-4.2-.6-4.9-1.9-.7-2.4-.8-2.4-.2m19.5 1.6c-.7 2.3.2 4.3 1.6 3.5 1.2-.8 1.2-5.5 0-5.5-.5 0-1.2.9-1.6 2m600-1c-.4.7.2 1.8 1.3 2.6 1.2.8 2.8 2.1 3.6 2.9 1.7 1.7 3.6 2 3.6.5 0-.6-.4-1-.8-1-.5 0-2.2-1.4-3.9-3-2-2-3.4-2.7-3.8-2m33-.1c.6 1.1 6.7 4.3 7.2 3.8.1-.2-.6-1.3-1.7-2.5-2-2.1-6.7-3.2-5.5-1.3m-666.5 1c0 1.7 1.8 2.1 2.4.6.3-.9 0-1.5-.9-1.5-.8 0-1.5.4-1.5.9m27.4 1.5c-.4 1-.2 2.2.4 2.8.8.8 1.3.7 1.8-.6.4-1 .2-2.2-.4-2.8-.8-.8-1.3-.7-1.8.6m549.2.8c-1.1 4.1-.7 9 .7 8.6.7-.3 1.3-2.6 1.5-5.6.3-5.3-1.1-7.1-2.2-3m-757.8 1.3c-2.2 2.9-2.2 3.5-.5 3.5 1.6 0 4.7-3.2 4.7-4.8 0-2-2.4-1.3-4.2 1.3m171.8-.3c.8 2.9 1 3.1 2.3 2.3 2-1.2 1.3-4.5-1-4.5-1.6 0-1.9.4-1.3 2.2m101 1.6c-3.1 4.5-3.2 5.2-.8 5.2 1.9 0 5.2-4.7 5.2-7.4 0-2.6-1.6-1.8-4.4 2.2m202.4-1.5c0 1.3.6 3 1.4 3.7.8.6 1.6 2 1.8 3.1s.8 2 1.3 2c1.7 0 1.8-3.1.2-4.9-.8-.9-1.7-2.6-1.8-3.6-.6-3-2.9-3.2-2.9-.3m21.2-.1c.5 3.2 2.8 3.5 2.8.4 0-1.7-.5-2.6-1.6-2.6-1 0-1.4.7-1.2 2.2m345.3-1.2c-.3.6.2 1.3 1.2 1.7s2.4 1.3 3.1 2 1.8 1.3 2.3 1.3c1.6 0 1-2-.8-2.7-1-.4-2.2-1.2-2.6-2-1-1.6-2.3-1.7-3.2-.3m-78.1 1.4c-.8 2.2-.1 5.9 1.4 6.4.8.2 1.2-.9 1.2-3.7 0-4-1.5-5.5-2.6-2.7m45.6-.6c0 1 2.2 3.2 3.2 3.2 1.5 0 .8-1.5-1.2-2.8-1.1-.7-2-.9-2-.4m-543.8 1.6c.1 1 .8 1.7 1.3 1.7 1.5-.1 1.2-2.4-.3-2.9-.9-.3-1.3.2-1 1.2m16.9 0c-.8 1-.9 1.6-.1 2.1 1.3.8 3-.3 3-2.1s-1.4-1.8-2.9 0m442.4.6c-.7 2.1 0 4 1.6 4 1.2 0 1.2-4.7 0-5.5-.5-.3-1.2.4-1.6 1.5m5.5.9c0 1.8-.7 3.4-1.7 4-1.4.8-1.5 1.2-.6 2.2 2 2 5.5-1.8 5.1-5.5-.4-4-2.8-4.7-2.8-.7m-590.5-.6c-.4 1-.3 2.3.4 3 1.6 1.6 2.6 0 1.4-2.5-1-2.1-1.1-2.2-1.8-.5m494.5.2c0 .8.7 1.5 1.5 1.5s1.5-.7 1.5-1.5-.7-1.5-1.5-1.5-1.5.7-1.5 1.5m-149.6.8c-.8 2.2 1.1 4.6 2.6 3.1.7-.7.5-1.7-.4-3-1.4-1.8-1.5-1.8-2.2-.1m233.6.6c0 1.2.6 2.1 1.6 2.1.9 0 1.4-.7 1.2-1.7-.5-2.5-2.8-2.8-2.8-.4"/>
  <path d="M429.7 448.1c-4.8 4.9-9 8.9-9.2 8.9-.3 0-1.9 1.3-3.5 3-1.6 1.6-3.6 3-4.5 3-.8 0-1.5.7-1.5 1.5s-.9 1.5-2 1.5-2 .7-2 1.5c0 .9-.9 1.5-2.5 1.5-1.4 0-2.5-.5-2.5-1 0-.6 1.1-1.5 2.5-2s2.5-1.4 2.5-2c0-.5.4-1 1-1 .5 0 2.8-1.8 5.1-4 2.9-2.7 3.7-4 2.6-4-1 0-1.7.4-1.7 1 0 .5-.7 1-1.5 1-.9 0-1.8.7-2.1 1.5-.4.8-1.2 1.5-2 1.5s-1.4.4-1.4.9c0 1-3.8 3.4-7.2 4.7-2.4.8-2.3 2.1.2 3.4 2.6 1.4 1.7 3-1.6 3-1.6 0-3.6-1.2-5.5-3.2-2.2-2.4-2.9-2.8-2.9-1.5 0 .9.5 1.7 1 1.7.6 0 1 .6 1 1.4 0 1.4 9.7 10.6 11.2 10.6 1.4 0 .8-2.8-.6-3.3-2.1-.8-.8-4.7 2-5.8 1.3-.4 2.4-1.3 2.4-1.9 0-.5.6-1 1.3-1s2-.8 2.9-1.8c2.5-2.5 4.6-4.2 5.5-4.2.5 0 1.6-.8 2.4-1.8.9-.9 3.2-3.1 5.2-4.9 2.1-1.7 3.7-3.5 3.7-4 0-2.3 6.3-3.5 20.5-3.9 16.5-.6 19.5-.9 19.5-2.5 0-.7-4.9-.9-14.1-.8-14.5.2-17.5-.5-15-3.5.7-.8.8-1.6.4-1.9s-4.7 3.5-9.6 8.4m344.3-8.5c0 2 3.6 8.5 4.3 7.8 1.4-1.4.6-4.1-1.8-6.4-1.4-1.3-2.5-1.9-2.5-1.4m334 .2c0 1.2 4.4 5.2 5.8 5.2 1.9 0 1.4-1.3-1.5-3.7-2.7-2.4-4.3-2.9-4.3-1.5m37.5.3c-.8 1.2 2.3 4.9 4.1 4.9 2.5 0 2.3-1.7-.6-3.8-1.8-1.4-3.1-1.8-3.5-1.1M313.2 443c-2.5 3.3-2.7 4-1.1 4 1.4 0 4.8-4.1 4.9-5.8 0-2-1.5-1.4-3.8 1.8m703.4-2.3c-1.2 1.2-.6 4.3.9 4.3.8 0 1.5-.9 1.5-1.9 0-2.1-1.3-3.4-2.4-2.4m-544.9 2c-1.6 1.6-.4 2.3 3.8 2.3 3.3 0 4.5-.4 4.5-1.5s-1.1-1.5-3.8-1.5c-2.1 0-4.2.3-4.5.7m116 2.6c-3.8 3.7-4.8 6.7-2.3 6.7.8 0 1.8-.9 2.1-2s1.1-2 1.6-2 .9-.6.9-1.4.5-1.6 1.2-1.8c.6-.2.9-1 .6-1.8-.3-1-1.5-.4-4.1 2.3m514.3-2.5c0 1.6 4.9 5.4 6 4.7.8-.5.3-1.5-1.6-3.1-3.1-2.5-4.4-2.9-4.4-1.6m-781.3 1.6c-.4 1-.5 2.1-.2 2.4.9.9 1.7-.6 1.3-2.5-.3-1.7-.4-1.7-1.1.1m96.9 1.1c-1.5 1.4-2.9 2.5-3.1 2.5s-1.9 1.3-3.7 3c-3 2.8-3.1 3-1 3 1.2 0 2.5-.7 2.8-1.5.4-.8 1-1.5 1.6-1.5 1.1 0 6.8-6.1 6.8-7.2 0-1.2-.5-1-3.4 1.7m337.4-.8c.1 1 1.2 3.1 2.5 4.8 2.2 2.7 2.5 2.8 3.1 1 .5-1.2.3-2-.5-2.3-.7-.2-1.6-1.5-2.1-2.8-1.1-2.8-3-3.2-3-.7m171.6.8c-.7 1.9 1.7 3 4.2 2 1.6-.6 1.6-.7-.2-2.1-2.5-1.8-3.2-1.8-4 .1m-432 .3c-.3.6-.1 1.4.5 1.7 1.5 1 2.5-.3 1.2-1.6-.7-.7-1.3-.7-1.7-.1m83.9.2c-1.1 1.7.5 3.2 2.1 1.9.7-.6 1.1-1.5.8-2-.7-1.2-2.1-1.1-2.9.1m171.1-.3c-1.2 1.2-.6 4.3.9 4.3.8 0 1.5-.9 1.5-1.9 0-2.1-1.3-3.4-2.4-2.4m240.4.8c0 .8.9 1.5 2 1.5 2.4 0 2.7-1.5.4-2.4-2.2-.9-2.4-.8-2.4.9m11 .8c0 2.2 2.7 5.7 4.3 5.7 1.2 0 .7-3-.9-5.5-2-3.1-3.4-3.2-3.4-.2m8-1.5c0 .5.6 1.6 1.3 2.6 1.3 1.8 1.4 1.8 2 .2.4-1 .5-2.2.1-2.7-.7-1.1-3.4-1.2-3.4-.1m88 .2c0 1.3 3.7 5 5 5 .6 0 1-.7 1-1.5s-.6-1.5-1.4-1.5-1.6-.7-2-1.5c-.6-1.7-2.6-2.1-2.6-.5m-611.8 2.1c.1 1.3.8 2.3 1.3 2.1 1.5-.3 1.2-3.5-.3-4-.9-.3-1.3.3-1 1.9m14.3-.1c-1.7 1.8-1.7 2-.1 2 .9 0 1.9-.7 2.3-1.5.9-2.5-.2-2.7-2.2-.5m-174.2 1.6c-2.4 2.7-2.8 4-1.5 4.8 1.2.7 5.6-5.4 4.6-6.4-.5-.5-1.9.2-3.1 1.6m7.2-1.6c-.7 1.2.2 3 1.6 3 1.2 0 1.2-2.7 0-3.5-.5-.3-1.2-.1-1.6.5m147 0c-.8 1.3.4 3.2 1.6 2.5 1.2-.8 1.2-3.5 0-3.5-.6 0-1.3.4-1.6 1m56.9 1.4c-.8 2.2.3 3.3 1.8 1.8.9-.9.9-1.5 0-2.4s-1.3-.7-1.8.6m6.3-.8c-1 1-.9 4.4.2 4.4 1.3 0 2.3-3.2 1.3-4.2-.5-.5-1.1-.5-1.5-.2m5.9.1c-.3.3-.6 1.9-.6 3.3 0 1.5-.7 3.3-1.5 4s-1.5 2.3-1.5 3.6c0 1.5.6 2.4 1.5 2.4s1.5-1 1.5-2.6c0-1.4.7-3.2 1.5-4 .8-.9 1.5-2.6 1.5-3.9 0-2.5-1.2-3.9-2.4-2.8m194.4 1.2c0 1 .7 2.4 1.5 3.1s1.5 1.8 1.5 2.4c0 .7 1.1 2.3 2.4 3.5 3.6 3.4 4.3.7.8-3.7-1.6-2-3.2-4.5-3.5-5.5-.8-2.3-2.7-2.2-2.7.2m180.5-1c-.6 1.1.9 2.3 1.9 1.4.9-.9.7-2.3-.3-2.3-.6 0-1.2.4-1.6.9m167.5.2c0 1.1 7 7.9 8.3 7.9s.7-2-1.3-4c-1.1-1.1-2.4-2-3-2-.5 0-1-.7-1-1.5s-.7-1.5-1.5-1.5-1.5.5-1.5 1.1m-575 2c0 1.1.5 1.7 1 1.4.6-.3 1-1.3 1-2.1s-.4-1.4-1-1.4c-.5 0-1 .9-1 2.1m39.6-.5c-.9.8-1.6 2.4-1.6 3.5s-.7 3.1-1.6 4.5c-1.3 1.8-1.4 2.8-.6 3.6s1.3.6 1.8-.8c.4-1 1.3-2.3 2.1-2.7.7-.4 1.3-2.1 1.3-3.7s.5-3.2 1-3.5c1.3-.8 1.3-2.5.1-2.5-.5 0-1.7.7-2.5 1.6M384.2 453c0 1.9.2 2.7.5 1.7.2-.9.2-2.5 0-3.5-.3-.9-.5-.1-.5 1.8m16-1.2c-1 1-2.6 2.1-3.5 2.5-.9.3-1.7 1.1-1.7 1.7 0 .5-.7 1-1.5 1s-1.5.7-1.5 1.5c0 2 1.6 1.9 3.9-.3 3.2-2.8 4.5-3.8 6.4-4.5s2.2-2.2.7-3.2c-.5-.3-1.8.3-2.8 1.3m197 2.6c-3.9 5.4-2.5 7.2 1.8 2.4 2.8-3.1 4-6.8 2.2-6.8-.5 0-2.3 2-4 4.4m-283.5-2.7c-.4.3-.7 1.2-.7 2 0 1.1.4 1.1 2 .3 1.1-.6 1.8-1.5 1.5-2.1-.7-1.1-1.9-1.2-2.8-.2"/>
  <path d="M440 452c0 .5.7 1.3 1.6 1.8 1.5.8 1.5 1.1 0 3.5-1.8 2.7-.9 4.2 1.8 3.1 1-.4 1.8 0 2.2 1 .9 2.4 1.6 2.1 7.4-3.5 3.3-3.2 4.9-5.4 4.3-6s-2.6.7-5.5 3.6c-5.9 5.8-9.2 6.3-4.8.8 2.2-2.8 2.6-5.3 1-5.3-.6 0-1.3.7-1.6 1.5-.4.8-1.2 1.5-2 1.5s-1.4-.7-1.4-1.5-.7-1.5-1.5-1.5-1.5.4-1.5 1m21.8 1.2c-1.5 1.5-1.8 2.3-.9 2.6 1.7.6 5.7-3.3 4.2-4.2-.5-.4-2 .3-3.3 1.6m59.6-.7c-.8 2 .3 4.8 1.6 4s1.3-5.5 0-5.5c-.6 0-1.3.7-1.6 1.5m67.8.6c-.7 1.2-1.1 2.4-.7 2.7.9.9 4-1.3 4.3-3.2.5-2.3-2.1-2-3.6.5m147.8-.3c0 1 1.1 2.9 2.5 4.2 2.9 2.7 3.2 1.7.9-2.8-1.7-3.5-3.4-4.2-3.4-1.4m248-1.3c0 1.1 2.4 5.5 3 5.5.4 0 1 .9 1.3 2 .5 2.1 3.7 2.8 3.7.8s-5.2-8.8-6.6-8.8c-.8 0-1.4.2-1.4.5m100 .5c0 1.3 3.7 5 5 5 .6 0 1-.7 1-1.5s-.6-1.5-1.4-1.5-1.6-.7-2-1.5c-.6-1.7-2.6-2.1-2.6-.5m54.5-.1c-.7 1.2 1.2 2.4 2.5 1.6 1.1-.7.4-2.5-1-2.5-.5 0-1.1.4-1.5.9m-59.7 4.1c4.3 4.4 5.2 4.8 5.2 2.5 0-.8-.7-1.5-1.5-1.5s-1.5-.7-1.5-1.5-.7-1.5-1.5-1.5-1.5-.5-1.5-1c0-.6-.7-1-1.6-1-1.1 0-.3 1.3 2.4 4m-546.1-.1c-.4 1.9-.5 3.6-.2 3.9 1 1.1 1.6-.7 1.3-4l-.3-3.3zm443-2.2c-.4.3-.7 1-.7 1.4 0 1.1 2.9 1.9 3.5 1 .6-1.1-2-3.3-2.8-2.4m-633.9 1.4c-2.1 1.2-2.4 4.9-.4 4.9.7 0 1.6-.8 2-1.8.3-.9.9-2.3 1.2-3 .7-1.4-.5-1.5-2.8-.1m86.9-.4c-1.4 1.3-.6 2.3 1.8 2.3 1.6 0 2.5-.6 2.5-1.5 0-1.5-3.1-2.1-4.3-.8m130 2c-.6 3.3-.3 3.8 1.8 3 1.9-.8 2-5.7.1-5.7-.7 0-1.6 1.2-1.9 2.7m171.8-1.7c-.4.6 0 1.9.9 2.9s1.6 2.2 1.6 2.8c0 .5 1.1 2 2.4 3.2 3.8 3.6 4.2.6.5-4.2-4.7-6-4.6-6-5.4-4.7m264.5-.1c0 .6.9 1.5 2.1 2.1 1.8 1 2 .9 1.7-.7-.3-1.9-3.8-3.2-3.8-1.4m74.8-.3c-.8.7 3.1 5.4 4.5 5.4.4 0 .7-.7.7-1.5s-.5-1.5-1.1-1.5c-.7 0-1.7-.7-2.3-1.6-.6-.8-1.5-1.2-1.8-.8m-13.3 3.3c2 3.8 10.1 11.4 11.4 10.7 1.6-1 1.3-2.6-.4-2.6-.8 0-1.5-.7-1.5-1.5s-.7-1.5-1.5-1.5-1.5-.7-1.5-1.5-.7-1.5-1.5-1.5-1.5-.6-1.5-1.3c0-.6-1.1-1.7-2.5-2.3-2.4-1.2-2.4-1.1-1 1.5m6.5-1.6c0 1.4 6.8 8.7 8.1 8.7 1.5 0 1-1-2.7-5.6-3.7-4.5-5.4-5.5-5.4-3.1m-737.8 2.3c.4 2.1 2.2 2.3 2.6.1.2-1-.3-1.7-1.3-1.7s-1.5.6-1.3 1.6m165.8-.1c0 .8.7 1.5 1.5 1.5s1.5-.4 1.5-.9-.7-1.1-1.5-1.5c-.9-.3-1.5 0-1.5.9m74.5-.6c-.7 1.2 1.2 2.4 2.5 1.6 1.1-.7.4-2.5-1-2.5-.5 0-1.1.4-1.5.9m35.1 1.6c-2 3-2 3.5-.2 3.5 1.7 0 4.8-3.9 4-5.2-.9-1.4-2.1-.9-3.8 1.7m26.9-1.6c-.7 1.2 1.2 2.4 2.5 1.6 1.1-.7.4-2.5-1-2.5-.5 0-1.1.4-1.5.9m412 .1c-.6 1 2.9 5 4.5 5 .6 0 1-.6 1-1.3-.1-1.7-4.7-4.9-5.5-3.7m8.5.5c0 .9.5 1.5 1.1 1.3s1.1-.8 1.1-1.3-.5-1.1-1.1-1.3-1.1.4-1.1 1.3m86.7-.9c-.8.8.1 2.4 1.4 2.4.5 0 .9-.7.9-1.5 0-1.5-1.2-2-2.3-.9m-656.1 2c-1.6 1.6-1.3 3.4.5 3.4.5 0 1.3-.8 1.6-1.8.4-.9 1.1-2 1.7-2.4.7-.5.4-.8-.6-.8-.9 0-2.4.7-3.2 1.6m130.7.1c-2.2 1.5-3.2 4.3-1.5 4.3 1.3 0 4.5-3.8 4.1-4.8-.2-.6-1.4-.3-2.6.5m421.7-.4c0 2.2 9 9.9 10.8 9.2 1.2-.4.6-1.4-2.5-4.3-5.5-5-8.3-6.7-8.3-4.9m-634 2.2c0 .9.5 1.5 1.1 1.3s1.1-.8 1.1-1.3-.5-1.1-1.1-1.3-1.1.4-1.1 1.3m33-.2c0 1.6 2 3.7 3.6 3.7.9 0 .9-.6.1-2.5-1.3-2.6-3.7-3.4-3.7-1.2m551-.8c0 1.4 2.1 4.5 3.1 4.5 1.8 0 .5-4.5-1.3-4.8-1-.2-1.8-.1-1.8.3m40.7.3c-.8 1.1 3.1 5.4 4.3 4.7.5-.3 1-.9 1-1.3-.1-1.2-4.8-4.3-5.3-3.4m-841.6 2.5c1.8 3.4 3 4.7 3.9 4.2 1.5-.9-.1-4.2-2.6-5.4-2.3-1-2.4-1-1.3 1.2m389 2.1c-1.7 2.5-4.5 5.8-6.1 7.5-3.1 3.1-3.8 5.1-1.8 5.1 1.4 0 9.8-9 9.8-10.6 0-.7.7-1.4 1.5-1.8 1.6-.6 2.1-4.6.7-4.6-.5 0-2.3 2-4.1 4.4m403.9-3c0 .7.7 1.9 1.5 2.6s1.5 1.9 1.5 2.6c0 .8.7 1.4 1.5 1.4 2.3 0 1.8-3.4-.8-5.8-2.7-2.5-3.7-2.8-3.7-.8m-484.4 2.8c-1.8 2.5-.9 4.9.9 2.5 1.5-2.1 3.5-2.2 3.5-.2 0 .8.7 1.5 1.5 1.5 2.1 0 1.9-1.3-.8-3.8-2.9-2.7-3.2-2.7-5.1 0M728 465c0 1.9 3.6 4.7 4.8 3.6.9-.9-2-5.6-3.5-5.6-.7 0-1.3.9-1.3 2m285.6-1.2c-.5.9 12.7 11.2 14.4 11.2 2.2 0 .7-2.7-3.3-5.6-5.6-4.1-10.5-6.6-11.1-5.6M420.5 465c.3.5 1.5 1 2.6 1 1 0 1.9-.5 1.9-1 0-.6-1.2-1-2.6-1s-2.3.4-1.9 1m536.5-.2c0 .4 1.3 2.3 2.9 4.2 2.1 2.5 3.3 3.2 4 2.5.8-.8.2-2-1.9-4.3-2.7-3-5-4.1-5-2.4m-822.5 1.4c-.8 2 2.5 8 4 7.5 1.9-.7 1.5-3.2-1-6.2-2-2.4-2.5-2.6-3-1.3m833.5-.1c0 .6 1.4 2.8 3 4.9 1.7 2.1 3 4.3 3 4.9s.7 1.1 1.5 1.1 1.5-.9 1.5-2-.7-2.3-1.5-2.6c-.8-.4-1.5-1-1.5-1.6 0-.8-4.8-5.8-5.6-5.8-.2 0-.4.5-.4 1.1m-801 1.2c0 .8 1.1 2.4 2.4 3.6 3 2.8 4.4 1.1 1.9-2.4-2-2.6-4.3-3.3-4.3-1.2m42.2-.4c.4 1.3 1.8 1.6 1.9.4 0-.4-.5-.9-1.1-1.2-.7-.2-1.1.2-.8.8m6.2.5c-.8 2.1.3 4.9 1.6 4.1.5-.3 1-1.5 1-2.5 0-2.5-1.8-3.6-2.6-1.6m210.1-.4c-.6 1 .1 1.4 4.8 2.4 2.2.5 2.7.3 2.7-1.4 0-1.6-.7-2-3.4-2-1.9 0-3.8.5-4.1 1m26.5 0c0 .5.7 1 1.5 1s1.5-.5 1.5-1c0-.6-.7-1-1.5-1s-1.5.4-1.5 1m9.2-.1c.2.7.7 1.2 1.1 1.2 1.2-.1.9-1.5-.3-2-.7-.2-1.1.2-.8.8m157.6 1.2c-3.5 3.7-1.4 5.5 2.2 1.9 1.1-1.1 2-2.5 2-3 0-1.6-2.3-1-4.2 1.1m321.2-1.3c0 .5 1.4 2.1 3.1 3.8 1.7 1.6 3.5 3.9 4 5.1 1 2.6 4.9 3.2 4.9.8 0-.8-.4-1.5-1-1.5-.5 0-1-.4-1-.9 0-1.8-6.4-8.1-8.2-8.1-1 0-1.8.4-1.8.8m10 .3c0 .6 1.9 3.6 4.3 6.7 5.3 7.2 6.5 9.1 7.7 12.2s5 5.8 5 3.7c0-1.5-1.9-5.3-5-10.2-1.1-1.7-2.4-4-3-5.3-.5-1.2-1.4-2.2-2-2.2-.5 0-1-.5-1-1 0-1.3-3.7-5-5-5-.5 0-1 .5-1 1.1m55-.7c0 1.6 3.4 5.6 4.8 5.6.8 0 2 .7 2.7 1.7.8 1 1.9 1.4 3.1.9 1.6-.6 1.5-.9-1.1-3.1-1.7-1.3-3.6-2.4-4.4-2.5-.8 0-2.3-.7-3.3-1.7-1-.9-1.8-1.3-1.8-.9m-861.4 1.5c-.8 1.2.3 4.1 1.5 4.1.5 0 .9.6.9 1.3 0 1.6 5.5 7.7 6.9 7.7 1.7 0 1.3-1.5-1.3-4.2-1.2-1.4-2.6-3.3-2.9-4.2-.4-.9-1.1-1.6-1.7-1.6-.5 0-1-.6-1-1.4 0-1.8-1.7-3-2.4-1.7M176 469c0 1.1.7 2.3 1.5 2.6.8.4 1.5 1 1.5 1.5 0 1.2 3.8 4.9 5 4.9 1.5 0 1.2-2.8-.3-3.7-.8-.4-2.4-2.3-3.7-4.1-2.7-3.7-4-4.1-4-1.2"/>
  <path d="M554 474c-7.1 6.7-7.7 7-12.3 7-3 0-5.4-.6-6.3-1.5-.9-.8-2.6-1.5-3.8-1.5-1.3 0-2.9-.7-3.6-1.5s-2-1.5-3-1.5-2-.7-2.4-1.5c-.3-.8-1.7-1.5-3.1-1.5-1.6 0-2.5-.6-2.5-1.5s-.9-1.5-2.5-1.5-2.5.6-2.5 1.5c0 .8.9 1.5 1.9 1.5s2.1.7 2.5 1.5c.3.8 1.7 1.5 3.1 1.5s2.8.7 3.1 1.5c.4.8 1.6 1.5 2.9 1.5 1.2 0 2.8.7 3.5 1.5s2.3 1.5 3.5 1.5 2.8.7 3.5 1.5 2 1.5 2.9 1.5c2.9 0 6.5 4.7 6.5 8.5 0 2.9.4 3.4 2.6 3.7 1.9.2 2.4.8 2.2 2.4-.1 1.2.4 2.7 1.3 3.4.8.7 1.5 2.1 1.5 3.1s.6 2.2 1.4 2.6 3.8 3.9 6.6 7.6c2.8 3.8 5.8 7.1 6.6 7.4 1.9.7 1.8 2.3-.3 3.9-1 .7-1.4 1.6-1 2.1.5.4 1.4 0 2.1-1 1.7-2.2 2.2-2.1 4.6.3 2.9 2.9 3.5 6.6 1.3 8-1.7 1.1-1.7 1.1 0 .6 1-.3 2.3-.6 2.8-.6s.9-1.2.9-2.8c0-2.4 3.6-7.2 5.4-7.2.9 0 16.3-11.7 17.1-13 1.3-2.1-3.3-.9-5.9 1.5-1.5 1.4-3.1 2.5-3.7 2.5-.5 0-.9.5-.9 1 0 .6-1 1.5-2.2 2.1-3.4 1.5-6.8 3.5-8.1 4.8-.6.6-1.8 1.1-2.7 1.1-2.4 0-15.2-13.4-17.3-18-.4-.8-1.6-2.9-2.7-4.5-1.1-1.7-2.2-3.5-2.4-4-1.4-3.3-1.8-4.2-2.9-6-.7-1.1-2-3.2-3-4.7-2.3-3.3-2.1-3.7 6.5-11.7 7.3-6.7 9.8-10.1 7.6-10.1-.7.1-4.7 3.2-8.8 7m375-6.2c0 .7 7.3 7.5 10.9 10.2 1.7 1.3 8.7 11.4 9.7 14 1.3 3.5 4.4 8.5 5.1 8.5 1.5 0 1.4-4.2-.2-5.5-.8-.7-1.5-2-1.5-3s-.7-2.3-1.5-3-1.5-1.9-1.5-2.6c0-1.7-15.2-17.4-16.8-17.4-.7 0-1.2-.5-1.2-1 0-.6-.7-1-1.5-1s-1.5.4-1.5.8m128.1 1.7c1.3 1.3 3 2.5 3.7 2.5.6 0 1.2.4 1.2 1 0 .5 1.1 1.2 2.4 1.6 1.4.3 2.7 1.2 3 2 .6 1.6 3.6 1.9 3.6.3 0-.6-.9-1.3-2-1.6s-2-.9-2-1.4c0-.8-4-3.3-7.2-4.5-1-.3-1.8-1-1.8-1.5s-.7-.9-1.6-.9c-1.3 0-1.1.5.7 2.5m-929.1.4c0 1.2.6 2.1 1.6 2.1.9 0 1.4-.7 1.2-1.7-.5-2.5-2.8-2.8-2.8-.4m24.5.1c-.7 1.1 2.1 5 3.7 5 1.4 0 .9-2-1.1-4.1-1.3-1.4-2.1-1.7-2.6-.9m8.7.4c.1 1 .8 1.7 1.3 1.7 1.5-.1 1.2-2.4-.3-2.9-.9-.3-1.3.2-1 1.2m251.3-.5c-.7 1.2 1.2 2.4 2.5 1.6 1.1-.7.4-2.5-1-2.5-.5 0-1.1.4-1.5.9"/>
  <path d="M533.6 469.7c-1.2 1.2-.6 4.3.8 4.3.8 0 1.7.7 2 1.6.5 1.4.9 1.2 2.6-.9 1.1-1.4 2-3.1 2-3.9-.1-.9-.5-.8-1.4.4-1.6 2.2-3.6 2.3-3.6.4 0-1.7-1.4-2.8-2.4-1.9m92.4.8c0 .8.7 1.5 1.5 1.5s1.5-.7 1.5-1.5-.7-1.5-1.5-1.5-1.5.7-1.5 1.5m407.2-.3c.7 1.9 3.8 2.2 3.8.4 0-1-.9-1.6-2.1-1.6s-1.9.5-1.7 1.2m84.8.3c0 1 .7 1.5 1.8 1.3 2.1-.4 1.9-2.2-.2-2.6-1-.2-1.6.3-1.6 1.3m-998 .8c0 .9.5 1.9 1 2.2.6.3 1 1.5 1 2.5 0 1.8 3.6 4.7 4.6 3.7.7-.6-2.4-6.2-4.6-8.2-1.7-1.6-2-1.6-2-.2m303 .9c0 1.8 3.5 3.2 6.6 2.6 3.4-.6 2.3-2.4-2.1-3.4-4.1-.9-4.5-.9-4.5.8"/>
  <path d="M441.3 471.9c.2 2-.4 2.6-2.8 3.2-1.6.4-4.3 1.2-6 1.7-5.8 2.1-17.3 4.2-22.4 4.2-2.8 0-5.1.4-5.1.9 0 .6 3.7 4.3 8.3 8.2 4.5 4 9.3 8.4 10.7 9.7 4.1 3.9 12.3 8.2 15.6 8.2 1.7 0 7.5 1.4 12.8 3.1 5.4 1.7 10.5 2.8 11.4 2.4 1.5-.6 1.4-.8-.5-1.8-2.1-.9-6.4-8.5-8.4-14.7-2.5-7.9-4.3-11.6-6.5-13.7-1.4-1.3-2.9-2.3-3.5-2.3-.5 0-1.5-1.2-2.1-2.6-1-2.2-.9-2.7.5-3.5 2.1-1.2 2.2-2.9.3-2.9-.8 0-1.7-.6-2-1.3-.2-.6-.4-.1-.3 1.2m-4.5 11.2c4.9 1.2 9.2 4.3 9.2 6.6 0 .7 1.4 4.2 3.1 7.9 1.7 3.6 2.9 6.8 2.6 7-.3.3-2.6-.2-5.1-1-2.6-.9-5.8-1.6-7.2-1.6-3.9 0-9.5-3.3-16.4-9.8-6.6-6.1-7.1-8.1-2.2-8.3 1.5 0 3.6-.4 4.7-.9 2.8-1.2 5.9-1.2 11.3.1m-215.2-11.4c-1.2 1.2-.6 3.3.9 3.3.8 0 1.5-.6 1.5-1.4 0-1.7-1.4-2.8-2.4-1.9m-33.6 1.7c0 .7.7 1.9 1.5 2.6s1.5 1.7 1.5 2.2 2.7 4.5 6 8.8 6 8.4 6 9c0 1.6 3.3 7 4.2 7 1.1 0 1-2.6-.1-4.8-.5-.9-1.2-2.4-1.5-3.2-.4-.8-1.5-2.9-2.6-4.5-1.1-1.7-2.3-3.7-2.7-4.5-1.2-2.6-7.7-11-8.5-11-.4 0-.8-.7-.8-1.5s-.7-1.5-1.5-1.5-1.5.6-1.5 1.4m315.2.2c.4 2.1 2.2 2.3 2.6.1.2-1-.3-1.7-1.3-1.7s-1.5.6-1.3 1.6m124.9 3.3c-4.2 4.6-4.8 5.7-3.8 6.7.6.7 10.7-9 10.7-10.4 0-2.4-2.6-1-6.9 3.7m372.6-4.3c-1 1 .2 2.4 2 2.4 1.3 0 7.5 4.3 11.1 7.7 1.6 1.5 4.2 1.7 4.2.4 0-1.2-7.8-7.5-10.2-8.4-1-.4-1.8-1.1-1.8-1.7 0-1.1-4.3-1.4-5.3-.4m110.5.6c.7 2 4.8 2.3 4.8.4 0-1.1-.9-1.6-2.6-1.6-1.6 0-2.4.5-2.2 1.2m-601.5 2.4c-1.2 1.2-.8 2.4.7 2.4.8 0 1.6.9 1.8 2 .4 2.9 2.2 3 2.6.2.2-1.2-.2-2.2-.9-2.2-.6 0-1.7-.7-2.3-1.6-.6-.8-1.5-1.2-1.9-.8m32.5.6c.6 1.8 2.8 2.1 2.8.4 0-.9-.7-1.6-1.6-1.6s-1.4.5-1.2 1.2m34.9 1.4c-1.7 1.8-2.1 2.8-1.3 3.6 1.3 1.3 6.7-3.6 5.7-5.2-.9-1.5-1.8-1.2-4.4 1.6m517.5-1.7c-.4.6 0 1.4.8 1.7 2.4.9 1.9 3.4-.6 3.4-1.2 0-3-.8-4-1.7-1.4-1.3-2.1-1.4-3.1-.4-.9.9-.7 1.3 1.1 1.7 3.3.9 2.8 3.4-.8 3.4-1.9 0-3.3.7-4 1.9-1.4 2.6-1.3 3.8.2 2.3.7-.7 2.5-1.2 4-1.2 1.8 0 2.8-.5 2.8-1.5q0-1.5 3-1.5t3-1.5c0-.8.9-1.5 2-1.5 2.5 0 2.6-1.8.3-2.7-1-.4-2.3-1.3-2.9-2.1-.8-1.1-1.3-1.2-1.8-.3m8.4.1c0 .6.8 1.3 1.8 1.6.9.3 2.5 1 3.5 1.5 2.9 1.6 3.3.2.6-2-2.6-2.2-5.9-2.8-5.9-1.1m-869.4 1.2c-1.1 3.4-1.3 5.8-.7 5.8 1.5 0 3.1-2.5 3.1-4.7 0-2.4-1.8-3.2-2.4-1.1m402.5 1.9c-2.1 2.1-2.9 3.5-2.1 3.7 1.6.6 6.4-4.2 5.8-5.8-.2-.8-1.6 0-3.7 2.1m360.5-.6c1 1.5 2.6 2.5 4 2.5 3.3 0 3-1.6-.8-3.4-4.3-2.2-5.1-2-3.2.9m-862.9.1c-.8.9 1.1 4.4 2.4 4.4.6 0 .9-1 .7-2.2-.3-2.2-1.9-3.4-3.1-2.2m42.3.8c0 .8.7 1.6 1.5 2 1 .4 1.5-.1 1.5-1.4 0-1.1-.7-2-1.5-2s-1.5.6-1.5 1.4m24.6-.6c-.4.6 0 1.4.7 1.9.7.4 1.7 1.5 2.1 2.3.8 1.7 2.1 3.8 5.9 9.7 1.5 2.4 2.7 4.7 2.7 5.3 0 .5.7 1 1.5 1s1.5-.9 1.5-1.9-.7-2.1-1.5-2.5c-.8-.3-1.5-1.5-1.5-2.6s-.7-2.3-1.5-2.6c-.8-.4-1.5-1.1-1.5-1.8 0-1.9-7.7-9.9-8.4-8.8"/>
  <path d="M448.7 478.6c-1.3 1.3.5 2.4 3.8 2.4 4.1 0 6.7-.9 5.9-2.1-.6-1-8.7-1.2-9.7-.3m15.3 1.6c-2.4 2.6-2.6 3.8-.6 3.8 1.9 0 6.8-4.5 5.9-5.3-1.2-1.3-3.2-.7-5.3 1.5m43-.2c0 1.9.3 2.1 1.2 1.2s.9-1.5 0-2.4-1.2-.7-1.2 1.2m59.7-1.4c-.8.8.1 2.4 1.4 2.4.5 0 .9-.7.9-1.5 0-1.5-1.2-2-2.3-.9m401.5 1.6c.2 1.5 1.1 2.4 2.6 2.6 2 .3 2.1.1 1.1-2.2-1.5-3.3-4.2-3.5-3.7-.4m53.8-.8c0 1 .9 1.6 2.1 1.6 2.4 0 2.1-2.3-.4-2.8-1-.2-1.7.3-1.7 1.2m51.6-.7c-.3.3-.3 1 0 1.4.7 1.2 3.4 1.1 3.4 0s-2.6-2.2-3.4-1.4m-834.2 2c-.3 1-1.2 3.1-2.1 4.6-1 1.9-1.2 3.2-.5 3.9 1.2 1.2 5.2-5 5.2-8.1 0-2.5-1.8-2.8-2.6-.4m690.6-.8c0 1.2 2.9 3.5 3.6 2.8 1.1-1-.5-3.7-2.1-3.7-.8 0-1.5.4-1.5.9M110.5 481c-.3.5.4 2.4 1.7 4.1 1.9 2.6 2.4 2.8 2.7 1.3.2-1-.2-2-.8-2.2s-1.1-1-1.1-1.7c0-1.8-1.7-2.8-2.5-1.5m408.3-.3c-.3.4-.8 2-1.2 3.5-.5 2.1-.3 2.8.9 2.8 1.8 0 3.2-4.7 1.7-6.2-.5-.5-1.2-.6-1.4-.1m-45.1.9c-1.1 1.2.3 2.4 2.9 2.4 1.6 0 2.4-.5 2.2-1.3-.5-1.3-4-2.2-5.1-1.1m107.7.9c-.4.8-1.2 1.5-2 1.5s-1.4.7-1.4 1.5.6 1.5 1.3 1.5c1.6 0 4.7-3.2 4.7-4.8 0-1.7-2-1.5-2.6.3m58.2 1.6c-1.6 1.6-3.3 2.9-3.8 2.9-.4 0-.8.7-.8 1.5 0 2.5 2.4 1.7 6-2 2.1-2.2 3-3.9 2.4-4.4-.5-.6-2 .1-3.8 2m439.1-2.5c-1.1 1.1.3 2.4 2.4 2.4 1.2 0 1.9-.5 1.7-1.3-.5-1.4-3.1-2.1-4.1-1.1m-959 1.1c-.7 1.1 1 4 1.8 3.1.4-.4.3-1.4-.3-2.4-.5-.9-1.2-1.2-1.5-.7m127.1.4c-1 .5-1.8 1.8-1.8 2.8s-.7 2.4-1.5 3.1-1.5 2.3-1.5 3.6c0 1.5.6 2.4 1.5 2.4s1.5-.9 1.5-2.4c0-1.3.7-2.9 1.5-3.6s1.5-2 1.5-2.9.5-2.2 1.2-2.9c1.5-1.5 0-1.5-2.4-.1m7.5.6c-.4 1-1.2 2.2-2 2.6-1.5.9-1.7 4.3-.3 5.2.6.3 1.3-.2 1.6-1.2s1.2-3 2-4.5c1.7-3.1 1.7-3.8.4-3.8-.6 0-1.4.8-1.7 1.7m-65.7 1.1c-.8 1.3.3 4.2 1.5 4.2.5 0 .9.5.9 1.1s1.4 2.8 3 4.9c1.7 2.1 3 4.3 3 4.9s.7 1.1 1.5 1.1c2.6 0 1.6-3-3.2-9.3-6.1-8.1-6-8-6.7-6.9m23.9.3c-.4.5 0 1.8.9 2.8s1.6 2.3 1.6 2.9 1.1 2.3 2.5 3.8c2.1 2.3 2.6 2.4 3.1 1 .4-.9-.1-2.5-1-3.5s-1.6-2.2-1.6-2.8-.7-1.3-1.5-1.7c-.8-.3-1.5-1.2-1.5-2.1 0-1.7-1.6-2-2.5-.4m317.5.6c0 .9-.7 2.4-1.6 3.4s-1.4 2.5-1 3.4c.8 2.1 2.6 1 2.6-1.6 0-1 .7-1.9 1.5-1.9.9 0 1.5.9 1.5 2.4 0 3.1 1.8 4.4 2.6 1.9.3-1 1-2.6 1.5-3.6.8-1.5.6-1.7-1.6-1.1-2.2.5-2.5.3-2.5-2 0-1.6-.6-2.6-1.5-2.6-.8 0-1.5.8-1.5 1.7m368.8-1c-3.6.9-1.7 2.3 3.2 2.3 2.8 0 5 .4 5 .9s.9 1.2 1.9 1.6c1.1.3 2.3 1.5 2.6 2.7.5 1.2 1.1 1.6 1.6 1.1 1.7-1.7-.3-4.3-5.3-6.8s-5.8-2.7-9-1.8m55.2.2c0 .6.9 1.5 2.1 2.1 1.8 1 2 .9 1.7-.7-.3-1.9-3.8-3.2-3.8-1.4m53 .5c0 .9.7 1.6 1.6 1.6s1.4-.5 1.2-1.2c-.6-1.8-2.8-2.1-2.8-.4m65.7-.8c-.9 1 .2 2.4 1.9 2.4.8 0 1.4-.7 1.4-1.5 0-1.5-2.1-2.1-3.3-.9m-134.3 2.7c-.7 1.8 2.5 6.6 4.4 6.7 2.1 0 1.3-3.5-1.3-6-2.1-2-2.5-2.1-3.1-.7m-773.4.5c0 1 3.3 4.2 4.3 4.2 1.2 0 .7-1.8-.9-3.4-1.7-1.7-3.4-2.1-3.4-.8m8.7-.2c-.5.5 2.7 5.9 4.4 7.4.3.3.9 1.2 1.2 2 .4.8 1.6 2.8 2.7 4.5 1.1 1.6 2.4 4 3 5.2.5 1.3 1.4 2.3 1.9 2.3s1.1 1 1.3 2.2.9 2.3 1.6 2.6c1.6.5 1.6-3.3-.1-5-.7-.7-1.6-2-2-2.8s-1.6-2.9-2.7-4.5c-1.1-1.7-2.3-3.7-2.7-4.5-1.3-2.5-6.7-10-7.4-10-.3 0-.8.3-1.2.6m86.3 1.5c-.5 1.3-1.4 3.1-1.9 3.9-2.7 4.5-4.3 8.8-4 10.5.6 2.8 2.3 2.1 2.7-1.1.2-1.5 1-3.3 1.8-4.1s1.4-2.1 1.4-2.9.7-2.6 1.6-4c1.3-1.8 1.4-2.8.6-3.6s-1.4-.5-2.2 1.3m211-1.2c-3.1.6-2.8.8 2.9 1.2 4.5.4 6.6 1 7.3 2.2 1 1.9 2.8 2.3 2.8.7 0-.5-.8-1.9-1.7-3-1.8-2.1-4.6-2.3-11.3-1.1m111.7 1.5c-2.6 2.1-2.7 3.6-.3 3.6 1.4-.1 4.8-4.7 3.9-5.3-.5-.3-2 .5-3.6 1.7m347-1.8c-.4.4.6 2.3 2.2 4.3 3.5 4.5 7.8 12.9 9.5 18.4.8 2.4 2.6 1.2 2.6-1.6 0-2.5-5.2-13.2-7.8-16.2-3-3.4-5.8-5.5-6.5-4.9m-645 3.1c-1.2 1.1-.8 2.3.8 2.3.8 0 1.5-.7 1.5-1.5 0-1.6-1.2-2-2.3-.8m356.9 1.5c-1.2 1.7-1.3 2.4-.4 3 1.4.8 6-3 5.2-4.3-.9-1.6-3.3-.9-4.8 1.3m254.4-.7c0 1 .7 1.5 1.8 1.3 2.1-.4 1.9-2.2-.2-2.6-1-.2-1.6.3-1.6 1.3m138-.7c0 1.2 4.4 5.2 5.8 5.2 1.8 0 1.4-1.4-1.1-3.8-2.4-2.2-4.7-2.9-4.7-1.4m27.5.3c-1 1.5.3 2.5 1.6 1.2.7-.7.7-1.3.1-1.7-.6-.3-1.4-.1-1.7.5m24-.2c-.7 1.2 3.1 2.5 4.5 1.6.5-.3 1-1 1-1.6 0-1.2-4.7-1.2-5.5 0m-900.8 1.8c.4 1 1.9 3.6 3.3 5.8 4.6 7.2 5 8 6 10.3.5 1.3 1.4 2 2 1.7 1.3-.8 1.3-4.2-.1-5-.5-.4-1.5-1.7-2-2.8-1.1-2.5-2.6-4.9-5.3-9-2.1-3-5-3.8-3.9-1m402.7 1.5c-1.2 1.9-13 10.8-14.3 10.8-.6 0-1.1.7-1.1 1.5 0 2.6 3 1.6 8.8-2.9 7.7-5.9 9.8-8.4 8.5-9.7-.8-.8-1.3-.7-1.9.3m338.6 1c0 1.2.6 2.9 1.3 3.7.7.9 2.1 3.6 3.1 6.1 2.7 6.6 5 10.8 6.1 11.1 2.4.6 1.3-3.9-3.2-13.1-4.6-9.6-7.3-12.4-7.3-7.8m100-1.3c0 .5.7 1.4 1.5 2.1 1.8 1.5 4.2-.1 3.1-1.9-.8-1.3-4.6-1.5-4.6-.2m51 .1c0 .6.8 1.3 1.8 1.6.9.3 2.5 1 3.4 1.5 1 .5 2.6.9 3.5.9 1.4 0 1.1-.6-1.2-2.5-3-2.5-7.5-3.4-7.5-1.5m-811 1.7c0 .9-.7 2.4-1.6 3.4s-1.1 1.9-.5 2.3c1.1.7 5.1-4 5.1-6 0-.8-.7-1.4-1.5-1.4s-1.5.8-1.5 1.7m390.5.4c-1 1.5.3 2.5 1.6 1.2.7-.7.7-1.3.1-1.7-.6-.3-1.4-.1-1.7.5m363.5.4c0 .8.7 1.5 1.6 1.5 1.4 0 1.4-.3.4-1.5-.7-.8-1.4-1.5-1.6-1.5s-.4.7-.4 1.5M248 498c0 1.3.5 2 1.3 1.7.6-.2 1.2-1 1.2-1.7s-.6-1.5-1.2-1.8c-.8-.2-1.3.5-1.3 1.8m233.5-1.1c-.8 1.4 1 2.2 3 1.5 1.3-.5 1.4-.8.3-1.5-1.7-1.1-2.6-1.1-3.3 0m91.1-.1c-.3.6-.1 1.4.5 1.7 1.5 1 2.5-.3 1.2-1.6-.7-.7-1.3-.7-1.7-.1m497.4.7c0 .8.8 1.5 1.9 1.5 1 0 2.4.7 3.1 1.5 1.4 1.7 5.1 1.7 5.1 0 0-.6-.9-1.1-2-1.3s-2.5-1-3.1-1.8c-1.6-1.9-5-1.8-5 .1m-921 .8c0 2 2.3 3.7 3.8 2.8 1-.6 1-1 0-1.8-2.8-2.1-3.8-2.4-3.8-1m15-.4c0 .5.6 1.6 1.3 2.3 1.6 1.9 3.5 4.8 4.7 7.5.5 1.3 1.4 2.3 2 2.3.5 0 1 .9 1 2s.7 2.3 1.5 2.6c.8.4 1.5 1.7 1.5 3 0 1.5.6 2.4 1.5 2.4 1.9 0 2-3.4.1-4.9-.8-.7-1.7-2.3-2-3.6-.4-1.4-1.1-2.5-1.6-2.5-.6 0-1-.7-1-1.6 0-1-1.6-3.7-3.6-6-3.4-4.2-5.4-5.5-5.4-3.5m9 1c0 1 .7 2.4 1.5 3.1s1.5 1.8 1.5 2.4c.1 2.1 4.7 6.9 5.5 5.7.4-.7.1-1.9-.6-2.8-1.3-1.5-2.9-4-5-8.1-1.5-2.7-2.9-2.9-2.9-.3m772-.2c0 1 .4 2.3.9 2.8.5.6 1.1 2.1 1.3 3.5s1 2.5 1.8 2.5c2.3 0 1.3-5.5-1.6-8.3-2.2-2.3-2.4-2.3-2.4-.5m-787 1.4c0 .6 1.4 2.8 3 4.9 1.7 2.1 3 4.3 3 4.9s.5 1.1 1 1.1c.6 0 1.5 1.1 2 2.5s1.4 2.5 2 2.5c.5 0 1 .9 1 1.9 0 2.6 1.8 3.7 2.7 1.5.4-1 0-2.2-1-2.9s-1.7-2-1.7-2.9-.7-1.9-1.5-2.2c-.8-.4-1.5-1.5-1.5-2.5 0-1.1-.7-2.2-1.5-2.5-.8-.4-1.5-1.3-1.5-2 0-.8-.7-1.7-1.5-2-.8-.4-1.5-1.2-1.5-2s-.7-1.4-1.5-1.4-1.5.5-1.5 1.1m114 1.3c0 1.3-.7 2.9-1.5 3.6s-1.5 2.1-1.5 3.2c0 1-.7 3-1.6 4.4-1.3 1.8-1.4 2.8-.6 3.6s1.4.4 2.1-1.4c.5-1.5 1.5-2.9 2-3.3.6-.3 1.1-1.7 1.1-3.1s.7-3.2 1.5-4c.8-.9 1.5-2.4 1.5-3.5 0-1-.7-1.9-1.5-1.9-.9 0-1.5.9-1.5 2.4m8.3.5c-1.3 1.6-2.3 3.6-2.3 4.3s-.7 2.2-1.5 3.2c-1.9 2.5-2 7.9-.2 7.4.6-.3 1.3-1.6 1.5-3.1.2-1.4 1-3.1 1.8-3.7.8-.7 1.4-2.2 1.4-3.4s.5-2.7 1.1-3.3.9-1.9.7-2.8c-.2-1.3-.8-1.1-2.5 1.4m181.2-2c-.7 1.2 1.2 2.4 2.5 1.6 1.1-.7.4-2.5-1-2.5-.5 0-1.1.4-1.5.9m128.9.6c-.4.8-1.2 1.5-2 1.5s-1.4.7-1.4 1.5.6 1.5 1.3 1.5c1.7 0 5.9-4.4 5-5.3-1.1-1.1-2.3-.8-2.9.8m464.6-.1c0 1 .9 1.6 2.1 1.6 2.4 0 2.1-2.3-.4-2.8-1-.2-1.7.3-1.7 1.2m9 .1c0 .8.6 1.5 1.4 1.5s1.7.8 2 1.7c.5 1.1 1 1.3 1.7.6.8-.8.8-1.7 0-3.2-1.3-2.4-5.1-2.9-5.1-.6m-152.4 1.1c-.3.9-.6 2.9-.6 4.6 0 3.6-6.5 10.8-9.8 10.8-1.1 0-2.2.7-2.6 1.5-1 2.6-4.5 1.6-8.4-2.3-9.2-9.4-13.2-12.6-14.5-11.3-.9.9-.5 1.7 1.7 3.6 1.6 1.4 3.5 2.5 4.3 2.5s3.9 2.7 7 6c4.2 4.4 6.4 6 8.4 6 1.5 0 2.9-.7 3.3-1.5.3-.8 1.1-1.5 1.8-1.5 1.5 0 8.8-6.5 8.8-7.8 0-.5.7-1.5 1.5-2.2.9-.7 1.5-2.9 1.5-5.1 0-4-1.4-5.9-2.4-3.3m124.2-.9c1.8.2 4.5.2 6 0s0-.4-3.3-.4-4.5.2-2.7.4M920.5 502c-.4.6-.3 1.6.3 2.2s1.2.6 1.7-.2c.4-.6.3-1.6-.3-2.2s-1.2-.6-1.7.2m-439.1 1.4c-.4.9-1.8 1.6-3.4 1.6s-3.2.4-3.5 1c-.4.6.8 1 2.9 1 2 0 3.6-.4 3.6-.9s.9-1.1 2-1.3c2.4-.4 2.8-2.2.5-2.6-.8-.2-1.8.4-2.1 1.2m63.6.1c0 .8.7 1.5 1.5 1.5s1.5-.7 1.5-1.5-.7-1.5-1.5-1.5-1.5.7-1.5 1.5m504.2-.8c-.6.3-1 .9-.6 1.4.7 1.2 4.1 1.2 4.8 0 .7-1-2.3-2-4.2-1.4m-763.1 3.4c-2.2 2-2.4 4-.5 4.6.9.3 3.9-5.5 3.2-6.2-.3-.3-1.4.5-2.7 1.6m752.4-.1c-.8 1.2 1.7 2.3 4.1 1.8 1-.1 1.9-.9 2.2-1.6.5-1.5-5.4-1.7-6.3-.2m-777.8.7c-.4.3-.7 1.7-.7 3 0 3.3 2.4 2.4 2.8-1 .3-2.6-.7-3.5-2.1-2m287.8 1.3c-.8 1.3.4 3.2 1.6 2.5 1.2-.8 1.2-3.5 0-3.5-.6 0-1.3.4-1.6 1m40.5 3c-3 2.2-5.7 4-6.1 4-.9 0-2.1 3.1-1.5 3.7.5.6 8.6-4.9 12.4-8.3 4.4-3.9.6-3.4-4.8.6m-449-1.8c0 .6 2 3.8 4.5 6.9 2.5 3.2 4.5 6 4.5 6.4s1.2 2.4 2.8 4.4c3.6 4.8 5.1 7.2 5.8 9.3s3.4 2.4 3.4.4c0-.7-.7-1.9-1.5-2.6s-1.5-1.7-1.5-2.2c0-.6-1.3-3-3-5.5-1.6-2.4-3-4.7-3-5s-1.4-2.4-3.2-4.7c-6.3-8.1-8.8-10.2-8.8-7.4m9 .1c0 .8 1.1 2.7 2.5 4.3 3.4 3.9 9.5 13 9.5 14.2 0 .5.7 1.5 1.5 2.2s1.5 2.1 1.5 3.2c0 1 .7 2.1 1.5 2.4.8.4 1.5 1.7 1.5 3 0 1.5.6 2.4 1.5 2.4.8 0 1.5-.8 1.5-1.9 0-1-.7-2.4-1.5-3.1s-1.5-2.1-1.5-3.1-.5-2.1-1.1-2.4c-.5-.4-1.5-1.7-2-2.8-1.7-3.8-6.6-11.4-8.7-13.6-.7-.8-2-2.4-2.9-3.7-1.7-2.6-3.3-3.1-3.3-1.1m337-.3c-1.2.8-1.2 1 .3 1.6 2.2.8 5-.3 4.2-1.6-.8-1.2-2.5-1.3-4.5 0m92.5-.1c-.7 1.2 1.2 2.4 2.5 1.6 1.1-.7.4-2.5-1-2.5-.5 0-1.1.4-1.5.9m470.8.5c-.4.8-1.6 1.5-2.6 1.7-2.5.5-2.6 2.3-.1 2.7 3.4.5 7.4-1.5 7.4-3.8s-3.4-2.8-4.7-.6m-734.7 1.2c-.8 2 0 3.2 1.4 1.8.5-.5.5-1.5.1-2.2-.6-1.1-1-1-1.5.4m6 0c-.9 2.4-.7 12.4.3 12.4 1.2 0 2.1-3.6 2.1-8.7 0-4.3-1.3-6.4-2.4-3.7m-31.6 3.7c-2.2 4.4-2.4 7.6-.5 8 .6.1 1.1-1 1.3-2.5.2-1.4 1-3.2 1.8-3.8.8-.7 1.4-2.1 1.4-3.1 0-3.5-1.9-2.9-4 1.4m628.7-3.6c-1.2 1.1-.8 4 .8 5.3.8.7 1.5 2.2 1.5 3.4 0 3.1 1.8 5.5 2.8 3.8 1.2-1.8.3-5.9-2.1-9.9-2.1-3.6-2.1-3.6-3-2.6m-759 1c-1.2 1.1-.8 2.3.8 2.3.8 0 1.5-.7 1.5-1.5 0-1.6-1.2-2-2.3-.8m767.3 1.7c0 3.5 1 5.6 2.6 5.6 1.5 0 1.8-2.1.8-5.8-.8-3-3.4-2.9-3.4.2m-623.4.3c-1.2 1.3-.6 5.3.9 5.3.9 0 1.5-.9 1.5-2.4 0-2.6-1.2-4-2.4-2.9m-120 1.2c-.3.5.3 2 1.3 3.2 1.4 1.7 2.3 2.1 3.1 1.3.7-.7.5-1.7-.8-3.2-2.1-2.4-2.8-2.7-3.6-1.3m300.9.1c-.3.5 0 1.3.9 1.6 2.1.8 7.1.1 7.1-1.1 0-1.4-7.2-1.9-8-.5m115.9 3.3c-.3.9-1.2 1.7-2 1.7s-1.4.7-1.4 1.5c0 2.1 1.6 1.9 4.1-.6 1.5-1.5 1.8-2.4 1-3.2-.7-.7-1.2-.5-1.7.6m312.2-.5c-.8 1.3 2.7 8.1 4.2 8.2 1.8 0 1.4-4.2-.7-6.8-2.1-2.4-2.7-2.6-3.5-1.4m135.9.2c-.3.6.2 1.3 1.2 1.6s2.6 1 3.6 1.5c1.8 1 2.1.2 1.1-2.5-.7-1.8-4.9-2.2-5.9-.6m-958.3 2.1c.1 1.2.9 2.4 1.6 2.7.9.3 1.3-.3 1-1.9-.1-1.2-.9-2.4-1.6-2.7-.9-.3-1.3.3-1 1.9m38.8-1.4c0 .5.4 1.5 1 2.3 1.1 1.8 2.5.7 1.7-1.5-.6-1.5-2.7-2.1-2.7-.8m219.4.7c-.9 2.2 0 9.1 1.1 8.9 1.4-.4 1.9-10.3.5-10.3-.6 0-1.3.6-1.6 1.4m-182.9.6c-.4.6 0 1.9.9 2.9s1.6 2.2 1.6 2.8.7 1.6 1.5 2.3 1.5 2.3 1.5 3.6c0 1.5.6 2.4 1.5 2.4q1.5 0 1.5-3c0-1.8-.6-3.3-1.5-3.6-.8-.4-1.5-1.4-1.5-2.3 0-2.2-4.6-6.5-5.5-5.1m162 .2c-.9 2.4-.1 10.3 1 10.3 1.4 0 1.9-9.5.6-10.8-.7-.7-1.2-.5-1.6.5m-246 .8c-.3.6.1 1.3.9 1.6.9.3 1.6 1.2 1.6 1.9 0 1.8 3.7 4.8 5 4 .7-.4-.1-2.1-2.1-4.6-3.2-4-4.3-4.6-5.4-2.9m60 0c-.4.6 0 1.9.8 2.8.7.9 1.7 2.4 2.1 3.2 2 4.3 6.7 11 7.7 11 1.5 0 1-3.7-.6-5-.8-.7-1.5-1.7-1.5-2.2 0-.6-1.4-2.9-3.2-5.2-4.6-5.9-4.5-5.9-5.3-4.6m153 0c-.4.6-.3 1.6.3 2.2s1.2.6 1.7-.2c.4-.6.3-1.6-.3-2.2s-1.2-.6-1.7.2m6 1c-.7 2.3.2 4.3 1.6 3.5 1.2-.8 1.2-5.5 0-5.5-.5 0-1.2.9-1.6 2m33.1 1.5c-.7 3.7-.1 5.9 1.5 5 1.2-.8 1.2-8.5 0-8.5-.5 0-1.2 1.6-1.5 3.5m-153.4-.4c.1 1.3.8 2.3 1.3 2.1 1.5-.3 1.2-3.5-.3-4-.9-.3-1.3.3-1 1.9m200 2c-2 4.3-2 5.9-.1 5.9.5 0 .9-.9.9-2s.4-2 .9-2c1.4 0 2.2-3 1.2-4.8-.7-1.2-1.3-.7-2.9 2.9m-206-1c.1 1.3.8 2.3 1.3 2.1 1.5-.3 1.2-3.5-.3-4-.9-.3-1.3.3-1 1.9m192.2.4c-.7 3 .2 5.9 1.6 5 1.3-.8 1.3-7.5 0-7.5-.5 0-1.2 1.1-1.6 2.5m36.1.2c-.3 1.6-1 4.2-1.5 5.9-2.1 6.6-.4 8.8 2.4 3 1.8-3.7 2.2-11.6.6-11.6-.5 0-1.2 1.2-1.5 2.7m-60.5.8c0 1.4.5 2.5 1 2.5.6 0 1-1.1 1-2.5s-.4-2.5-1-2.5c-.5 0-1 1.1-1 2.5m12.5-.5c-.7 2.1 0 4 1.6 4 .5 0 .9-1.4.9-3 0-3.4-1.5-4-2.5-1m39.2-1.3c-1 1-.8 9.3.2 9.3 1.3 0 2.1-2.6 2.1-6.6 0-3.2-.8-4.2-2.3-2.7m168-.1c-.8.8.1 2.4 1.4 2.4.5 0 .9-.7.9-1.5 0-1.5-1.2-2-2.3-.9m39.6 1.9c-2.7 2.6-2.9 3.5-.8 3.5 1.7 0 5.5-3.5 5.5-5 0-1.7-2.4-.9-4.7 1.5m440.7-1c0 1.2 1.3 1.5 5.5 1.5s5.5-.3 5.5-1.5-1.3-1.5-5.5-1.5-5.5.3-5.5 1.5M311.5 526c-.7 2.3.2 4.3 1.6 3.5 1.2-.8 1.2-5.5 0-5.5-.5 0-1.2.9-1.6 2m99.2-1.3c-.4.3-.7 1.6-.7 2.9 0 1.2-.8 3.5-1.7 5.2-.9 1.6-1.3 3.6-1 4.6.9 2.2 2.7 1.1 2.7-1.7 0-1.2.7-3.1 1.5-4.1 2.5-3.3 1.7-9.5-.8-6.9m488.9.8c-.8 2.2.9 4.4 2.4 2.9.7-.7.6-1.6-.3-2.8-1.3-1.8-1.4-1.8-2.1-.1m-480.2.9c-.8 2.2.3 3.3 1.8 1.8.9-.9.9-1.5 0-2.4s-1.3-.7-1.8.6m28.7 2.9c-1.2 2.4-2.1 4.9-2.1 5.6s-.7 1.9-1.5 2.7c-1.8 1.8-2 3.4-.4 3.4.6 0 1.3-.9 1.6-1.9.3-1.1 1.1-2.2 1.9-2.5s1.4-1.3 1.4-2.1c0-.9.7-2.3 1.5-3.1 1.6-1.7 2.1-6.4.6-6.4-.5 0-1.9 1.9-3 4.3m-88.5-2.6c-1.1 1.1-.6 2.3.9 2.3.8 0 1.5-.4 1.5-.9 0-1.3-1.6-2.2-2.4-1.4m11.4 1.2c0 1.1.4 2.2.9 2.5 1.1.7 2.3-2.2 1.5-3.5-.9-1.6-2.4-1-2.4 1m-234.4 1.6c.9 1.4 2 2.5 2.4 2.5s1.1.8 1.4 1.7c.9 2.5 3.3 6.5 4.3 7.2.5.3 2 3 3.3 5.8 1.4 2.9 2.8 5.3 3.2 5.3.5 0 .8.9.8 1.9 0 1.1.5 2.3 1.1 2.6.5.4 1.5 1.8 2 3.3.8 2 1.2 2.3 2.2 1.3.9-1 .8-1.5-.5-2.5-1-.7-1.8-2.3-1.8-3.4s-.7-2.7-1.5-3.6c-.8-.8-1.5-2.1-1.5-2.8 0-.8-.5-1.9-1.1-2.5-1.3-1.3-3.3-4.7-4.8-8.1-.6-1.2-1.5-2.2-2.1-2.2-.5 0-1-.5-1-1.1 0-1.8-5.1-7.9-6.6-7.9-1.2 0-1.1.5.2 2.5m288.7.2c-.4 1-1.3 2.4-2 3.1s-1.3 2.1-1.3 2.9c0 .9-.7 2.4-1.6 3.4s-1.3 2.3-.9 2.9c.9 1.5 5.4-3.7 5.5-6.1 0-.9.7-2.2 1.5-2.9 1.7-1.4 2-3.6.5-4.5-.6-.3-1.3.2-1.7 1.2m-297.3.2c0 .6 1.2 2.3 2.6 3.8s3 3.9 3.5 5.2c.8 1.9 1.2 2.2 2.2 1.2.9-.9.9-1.5-.1-2.9-.7-.9-1.5-2.3-1.9-3.1-1.6-3.5-6.3-6.6-6.3-4.2m255 .6c0 .8.7 1.5 1.5 1.5s1.5-.7 1.5-1.5-.7-1.5-1.5-1.5-1.5.7-1.5 1.5m222 .5c0 .5-.7 1-1.5 1s-1.5.7-1.5 1.5c0 2.2 2.7 1.9 4-.4 1.3-2.5 1.3-3.1 0-3.1-.5 0-1 .4-1 1m-173.6 2.2c-.3 1.2-1.3 2.8-2 3.6-.8.7-1.4 2-1.4 2.8s-.4 1.4-1 1.4c-.5 0-1 .7-1 1.5s.4 1.5.8 1.5c1.4 0 4.2-3.5 4.2-5.2 0-.9.7-2.1 1.5-2.8 1.7-1.4 2-3.6.6-4.5-.5-.3-1.3.5-1.7 1.7M934 533c-1.2.8-1.2 1 .2 1.5 2.3.9 5 .3 5.6-1.3.4-1.4-3.6-1.6-5.8-.2m-518.9 3c-1.4 2-2 3.5-1.4 4.1 1.2 1.2 4.6-3.5 4.1-5.8-.2-1-1-.6-2.7 1.7m36.9-.7c0 1.3-.5 2.8-1.2 3.5-.9.9-.5.9 1.5 0 2.9-1.4 3.9-5.8 1.2-5.8-.9 0-1.5.9-1.5 2.3m41.6-.4c-1.1 1.2-1.6 2.4-1.2 2.8.9.9 3.9-2.2 3.4-3.7-.2-.7-1-.4-2.2.9m554.5 1.5c-.6.8-2.4 1.7-3.8 2.1-3.7.9-1.1 2.5 4 2.5 3.6 0 3.8-.2 3.5-2.7-.4-3.1-2-4-3.7-1.9m-470 2.9c-.7 1.7-1.8 2.7-3.1 2.7-1.4 0-2 .7-2 2.2 0 2.1 0 2.1 1.4.3 1.2-1.6 1.8-1.8 4-.7 3 1.4 2.6 4.6-.5 3.7-1.3-.5-1.9-.1-1.9 1 0 1.2.6 1.5 2 1 1.2-.4 2.7-.2 3.5.5 1 .8 1.5.8 2 0 .9-1.5-.3-6-1.5-6-.6 0-1-1-1-2.3 0-1.2-.4-2.9-1-3.7-.7-1.1-1.1-.9-1.9 1.3m-500.9.3c.4 2.1 2.2 2.3 2.6.1.2-1-.3-1.7-1.3-1.7s-1.5.6-1.3 1.6m527.5.5c-1 1.1-1.6 2.3-1.4 2.6.7.6 5.7-2.7 5.7-3.8 0-1.6-2.5-.9-4.3 1.2m-485.7.3c0 .7.7 1.9 1.5 2.6s1.5 1.6 1.5 2.1c0 1.2 3.8 4.9 5 4.9 1.5 0 1.3-.7-1.2-4.2-5-6.9-6.8-8.4-6.8-5.4m9 .6c0 1.1.7 2.3 1.5 2.6.8.4 1.5 1.3 1.5 2 0 .8.7 1.7 1.5 2 .8.4 1.5 1.5 1.5 2.5 0 1.1.6 2.2 1.4 2.5s1.7 1.6 2 3c.4 1.3 1.1 2.4 1.6 2.4.6 0 1 .8 1 1.9 0 1 .7 2.4 1.5 3.1s1.5 2.3 1.5 3.7c0 1.3.7 2.6 1.5 2.9.9.4 1.5 1.9 1.5 4.1 0 2.3.4 3.3 1.3 3.1 1.8-.7 2.1-4.7.4-6.6-.8-.9-1.7-2.9-2.1-4.5-.3-1.5-1.1-2.7-1.6-2.7-.6 0-1-.8-1-1.8s-.5-2.3-1.1-2.9c-1.4-1.4-3.5-5-5-8.6-.6-1.5-1.5-2.7-2-2.7s-.9-.7-.9-1.5c0-.9-.6-1.8-1.4-2.1s-1.6-1.4-1.9-2.5c-.7-2.5-2.7-2.5-2.7.1m306.4-.4c-.4 1-1.3 2.3-2.1 2.7-1.7 1-1.7 3.7 0 3.7 2 0 5.1-6 3.8-7.3-.7-.7-1.2-.5-1.7.9m22.9.1c-1.3.9-2.3 2.3-2.3 3.3s-.7 2.3-1.5 3-1.5 1.8-1.5 2.5-.7 1.8-1.5 2.5-1.5 1.9-1.5 2.6c0 2 2.7 1.7 3.4-.4.9-2.3 3.1-6.1 4.5-7.5.6-.6 1.1-2.1 1.1-3.3s.6-2.4 1.3-2.7c.6-.2 1-.7.7-1-.3-.2-1.5.2-2.7 1m154.2 1.5c-.4 1-1.1 1.8-1.6 1.8-1.4 0-6.9 4.2-6.9 5.2 0 1.7 2.7.6 6.4-2.6 2.1-1.9 3.6-4.1 3.3-4.8-.3-.9-.7-.8-1.2.4M155 544.4c0 1.3.7 2.9 1.5 3.6s1.5 2 1.5 2.9c0 2 1.9 4.1 3.6 4.1 1.3 0-.2-5.6-2.2-8.1-.6-.8-1.4-2.2-1.7-3.2-.9-2.5-2.7-2.1-2.7.7m284.2.6c-2.6 3.4-2.8 5-.7 5 .8 0 1.5-.6 1.5-1.4s.7-1.6 1.5-2c1.5-.6 2.1-4.6.7-4.6-.5 0-1.8 1.3-3 3M164 545c0 1.3.5 2 1.3 1.7.6-.2 1.2-1 1.2-1.7s-.6-1.5-1.2-1.8c-.8-.2-1.3.5-1.3 1.8m887.6-.5c-.3.9.1 1.8 1 2.2 1.9.7 2.8-.2 2.1-2.2-.8-1.9-2.3-1.9-3.1 0m-542.2.9c-.4 1-.2 2.2.4 2.8.8.8 1.3.7 1.8-.6.4-1 .2-2.2-.4-2.8-.8-.8-1.3-.7-1.8.6m408.1-.4c-.3.5 0 1.3.8 1.6 2.3.8 8.2 0 8.2-1.1 0-1.4-8.2-1.9-9-.5m15 0c-.8 1.3 2 2.4 4.1 1.6 2-.8.9-2.6-1.6-2.6-1 0-2.2.5-2.5 1M140 546.4c0 .8.6 2.1 1.4 2.8.7.8 1.7 2.4 2 3.6.4 1.2 1.2 2.2 1.7 2.2s.9.9.9 1.9c0 2.5 1.6 3.6 2.4 1.6.3-.8-.1-2.1-.9-2.9s-1.5-2.2-1.5-3.1c0-1.8-3.9-7.5-5.2-7.5-.4 0-.8.6-.8 1.4m329.2.9c-2.4 2.5-2.8 4.2-1.3 5.2 1 .6 4.7-6.2 3.9-7-.3-.3-1.4.5-2.6 1.8m-8.9 1.4c-1.3.9-2.3 2.3-2.3 3.3s-.7 2.3-1.5 3c-1.6 1.3-2.1 5-.7 5 1.2 0 5.2-5.7 5.2-7.3 0-.7.5-1.8 1.1-2.4 2-2 .5-3.2-1.8-1.6m22.4-1.1c-.4.4-.7 1.7-.7 2.8 0 1.9.1 1.9 1.7.3 1.2-1.1 1.4-2 .7-2.7-.6-.6-1.3-.7-1.7-.4m130.3 1.9c-2.4 2.6-2.2 4.2.4 3.2 1.9-.7 3.9-4.4 2.7-5.1-.4-.3-1.9.6-3.1 1.9m-169.5.5c-.8 1.3.4 3.2 1.6 2.5 1.2-.8 1.2-3.5 0-3.5-.6 0-1.3.4-1.6 1M119 551.1c0 .6 1.2 2.8 2.8 4.8 3.4 4.5 4.9 7 6.1 9.8.6 1.1 1.5 2.4 2 2.8.6.3 1.1 1.4 1.1 2.4s.7 2.4 1.5 3.1 1.5 2 1.5 3 .6 2.3 1.4 3c.8.6 1.6 2.3 1.8 3.7.2 1.5.9 2.8 1.6 3.1 1.7.5 1.5-4.3-.3-6.2-.8-.8-1.5-2.5-1.5-3.8s-.5-2.9-1.1-3.5c-1.1-1.1-2.6-3.6-4.9-7.8-.6-1.1-1.9-3.4-3-5-1.1-1.7-2.4-4-3-5.3-.5-1.2-1.4-2.2-2-2.2-.5 0-1-.7-1-1.5s-.7-1.5-1.5-1.5-1.5.5-1.5 1.1m354.1 1.1c-.5 1.3-2.1 4-3.5 6.1-2.9 4.3-3.3 6.7-1.1 6.7.8 0 1.5-.6 1.5-1.4 0-.7.7-1.9 1.5-2.6s1.5-2 1.5-3 .7-2 1.5-2.4c1.7-.6 2.1-5.6.5-5.6-.6 0-1.4 1-1.9 2.2m447.6-1.5c-1.8 1.8 0 2.3 8.3 2.3 7.3 0 9-.3 9-1.5s-1.6-1.5-8.3-1.5c-4.6 0-8.7.3-9 .7M490.8 553c-3.5 1.4-5.8 3.7-5.8 5.8 0 1.3-.7 3.1-1.6 4-1.2 1.1-1.5 2.8-1.1 6.5.3 3.9 1.1 5.4 3.6 7.8 1.8 1.6 3.6 2.9 4.1 2.9.4 0 1 .7 1.4 1.5.3.8 1.2 1.5 2.1 1.5.8 0 1.5.7 1.5 1.5 0 .9.9 1.5 2.5 1.5s2.5.6 2.5 1.5c0 1.1 1.2 1.5 4.5 1.5 5.6 0 5.9-1.6.6-2.5-2.2-.4-4.5-1.3-5.2-2.1-.6-.8-1.7-1.4-2.4-1.4s-1.5-.7-1.9-1.5c-.3-.8-1-1.5-1.6-1.5-.5 0-2.8-1.8-5-4-3.5-3.5-4-4.6-4-8.5 0-2.5.5-5.1 1-5.8.6-.7 1.9-2.3 2.9-3.7 1.7-2.2 2.6-2.5 8.3-2.4 5.9.2 10.8 1.9 14.9 5.2 8.4 6.9 8.9 7.5 8.9 10.7 0 2-.6 3.5-1.5 3.9-.8.3-1.5 1-1.5 1.6s-1.6 2.6-3.5 4.5c-2.4 2.2-3.2 3.6-2.4 4 1.2.8 8.9-7.1 8.9-9.3 0-.6.4-1.2.9-1.2 1.7 0 3.3-6.7 2.2-8.8-1.2-2.3-6.8-6.7-9.8-7.6-1.3-.4-2.3-1.2-2.3-1.7s-.8-.9-1.7-.9-2.4-.6-3.2-1.4c-1.6-1.4-13.8-2.6-16.3-1.6m-377.2 1.8c-.7 1.2.3 4.2 1.4 4.2.4 0 1 .8 1.4 1.7.3 1 1.5 3.1 2.6 4.8 1.1 1.6 2.4 4 3 5.2.5 1.3 1.4 2.3 2 2.3 1.5 0 1.2-3.7-.5-5.4-.8-.8-1.5-2-1.5-2.6 0-.7-1.4-3.1-3.2-5.4-4.5-5.9-4.5-5.9-5.2-4.8m17.4 2.1c0 1 .7 2.4 1.5 3.1s1.5 1.8 1.5 2.5.7 1.8 1.5 2.5 1.5 2 1.5 3 .7 2.3 1.5 3 1.5 2.2 1.5 3.5c0 1.2.8 2.9 1.8 3.8 2.3 2.1 3.2 2.1 3.2.2 0-.8-.4-1.5-1-1.5-.5 0-1-1.3-1-2.9s-.6-3.1-1.5-3.5c-.8-.3-1.5-1.7-1.5-3.1s-.5-2.5-1.1-2.5c-.5 0-1.5-1.4-2-3-.6-1.7-1.4-3-1.9-3-.4 0-1-.9-1.3-2-.7-2.5-2.7-2.6-2.7-.1m445.8-1.2c-2.1.5-2.4 3.3-.5 3.3 1.4 0 3.7-2 3.7-3.2 0-.8-.4-.9-3.2-.1m469.9.9c-1.7 1.7-.4 2.5 3.6 2.2 2.3-.2 4.2-.8 4.2-1.3 0-1.2-6.7-1.9-7.8-.9m-583.9 1.5c-2.1 1.2-2.4 3.9-.5 3.9.6 0 1.7-1.1 2.4-2.5 1.2-2.7.8-3-1.9-1.4M926 558c-2.2 1.3-1.1 1.8 5 2.1 4.5.3 5.5 0 5.8-1.4s-.5-1.7-4.5-1.7c-2.6 0-5.5.4-6.3 1m-317.4 1.7c-1.1 1.1-.6 2.3.9 2.3.8 0 1.5-.4 1.5-.9 0-1.3-1.6-2.2-2.4-1.4m-499.9 2.9c-.7.7.7 3.4 4.4 8.4 1.4 1.9 4 6.6 5.8 10.5 1.8 3.8 3.9 8.2 4.7 9.7.8 1.4 1.4 3.2 1.4 4 0 2 4.6 6.2 5.4 5 .3-.6 0-2.3-.8-3.9-.8-1.5-3.8-7.5-6.6-13.3-5.9-12-6.6-13.3-9.8-17.8-2.3-3.2-3.3-3.8-4.5-2.6m944 0c-1.1 1.2.3 2.4 2.8 2.4 1.3 0 2.6-.4 2.9-.9 1-1.5-4.3-2.9-5.7-1.5M473 566.5c0 .9.5 1.5 1.1 1.3s1.1-.8 1.1-1.3-.5-1.1-1.1-1.3-1.1.4-1.1 1.3"/>
</svg>
