<svg xmlns="http://www.w3.org/2000/svg" fill="currentColor" style="color:#000" viewBox="200 200 350 350">
    <defs>
        <linearGradient id="a" x1="0%" x2="100%" y1="0%" y2="100%">
            <stop stop-color="#00148cb3" offset="0%"/>
            <stop stop-color="#00c8ffb3" offset="36%"/>
            <stop stop-color="#00b4ff4d" offset="36.1%"/>
            <stop stop-color="#00b4ff80" offset="45%"/>
            <stop stop-color="#14c8ffb3" offset="45%"/>
            <stop stop-color="#b414ffb3" offset="58%"/>
            <stop stop-color="#b400ff4d" offset="58.1%"/>
            <stop stop-color="#a01eff80" offset="64%"/>
            <stop stop-color="#b400ffb3" offset="64.1%"/>
            <stop stop-color="#14008cb3" offset="100%"/>
        </linearGradient>
    </defs>
    <path d="M309.6 296.54c3.348 0 6.168-2.203 7.164-5.227l12.562-.004a7.57 7.57 0 0 0 1.496 2.657 7.6 7.6 0 0 0 5.688 2.562c4.183 0 7.582-3.406 7.582-7.582 0-4.035-3.563-7.59-7.59-7.586-3.348 0-6.168 2.207-7.164 5.227l-12.613.004c-1.051-2.957-3.934-5.227-7.137-5.223-4.184.004-7.582 3.41-7.582 7.59 0 1.848.676 3.629 1.899 5.016a7.607 7.607 0 0 0 5.695 2.566zm26.914-10.457c.82 0 1.602.36 2.144.973a2.86 2.86 0 0 1-2.144 4.75c-1.512 0-2.86-1.34-2.856-2.86a2.86 2.86 0 0 1 2.856-2.863zm-26.918.016c.824 0 1.602.351 2.148.964a2.863 2.863 0 0 1-2.148 4.75c-1.516 0-2.856-1.343-2.86-2.859a2.86 2.86 0 0 1 2.86-2.855zm65.774-61.389.027 73.969 4.727-.004 37.578-.02-.004-4.722h-.02l-.015-19.363-4.723.004-12.617.008c-1.055-2.957-3.93-5.223-7.137-5.223-4.183.004-7.582 3.406-7.582 7.586a7.56 7.56 0 0 0 1.899 5.015 7.58 7.58 0 0 0 5.683 2.57c3.352-.003 6.172-2.206 7.172-5.226l12.578-.004.008 14.645-32.828.008-.031-69.234c3.02-1 5.223-3.82 5.223-7.176-.004-4.031-3.57-7.586-7.59-7.582-2.027 0-3.93.785-5.36 2.227a7.534 7.534 0 0 0-2.222 5.367c0 1.848.676 3.629 1.894 5.016.91 1.011 2.074 1.718 3.34 2.14zm17.824 55.098c-1.516-.004-2.86-1.336-2.86-2.86a2.858 2.858 0 1 1 2.86 2.86zm-17.488-64.281a2.85 2.85 0 0 1 2.023-.844c.82 0 1.606.356 2.149.973a2.863 2.863 0 0 1-2.148 4.75c-1.516-.004-2.86-1.34-2.86-2.86a2.85 2.85 0 0 1 .836-2.019zm47.004 53.343.016 29.785h4.726l8.637-.004a7.45 7.45 0 0 0 1.492 2.652 7.593 7.593 0 0 0 5.692 2.567c4.183 0 7.578-3.406 7.578-7.586-.004-4.031-3.567-7.586-7.586-7.582-2.028 0-3.93.789-5.36 2.223-.855.855-1.449 1.886-1.812 3.003h-8.645l-.011-25.047a7.528 7.528 0 0 0 3.004-1.812 7.512 7.512 0 0 0 2.214-5.36c0-4.03-3.566-7.585-7.586-7.585a7.545 7.545 0 0 0-5.359 2.226 7.534 7.534 0 0 0-2.223 5.367 7.59 7.59 0 0 0 1.895 5.016c.906 1.016 2.066 1.727 3.328 2.137zm18.535 25.398a2.852 2.852 0 0 1 4.168.129c.465.516.71 1.187.71 1.887a2.854 2.854 0 0 1-2.855 2.855c-1.515.004-2.86-1.332-2.86-2.851.005-.77.298-1.485.837-2.02zm-18.191-34.582a2.828 2.828 0 0 1 2.016-.84c.82 0 1.605.352 2.144.973.461.515.715 1.187.715 1.887 0 .761-.297 1.48-.84 2.023a2.86 2.86 0 0 1-2.023.84c-1.516 0-2.86-1.34-2.86-2.86.012-.761.301-1.48.848-2.023zm-67.554.044.008 24.398c-3.02 1-5.219 3.82-5.219 7.172a7.594 7.594 0 0 0 7.586 7.586 7.54 7.54 0 0 0 5.36-2.23 7.533 7.533 0 0 0 2.226-5.36c0-3.207-2.273-6.082-5.227-7.137l-.007-24.418c1.109-.363 2.144-.957 2.996-1.812a7.557 7.557 0 0 0 2.222-5.367c-.004-4.028-3.57-7.586-7.59-7.583-2.023 0-3.925.79-5.359 2.231a7.539 7.539 0 0 0-2.223 5.36c0 1.847.676 3.632 1.899 5.015.898 1.012 2.058 1.727 3.328 2.144zm5.234 31.562c0 .762-.296 1.48-.843 2.027a2.844 2.844 0 0 1-2.016.84c-1.516-.004-2.86-1.34-2.86-2.86a2.854 2.854 0 0 1 2.852-2.859c.824 0 1.61.352 2.156.973.461.516.711 1.18.711 1.879zm-4.902-40.75a2.868 2.868 0 0 1 4.172.125c.453.52.71 1.195.71 1.89 0 .758-.296 1.481-.843 2.024-.535.543-1.25.84-2.016.844-1.511-.004-2.859-1.34-2.859-2.86.004-.761.3-1.48.836-2.023zM417.68 458.07h.02l.003-4.727-37.578-.02H375.4l-.028 73.97c-1.269.418-2.43 1.129-3.328 2.144a7.57 7.57 0 0 0-1.894 5.016c0 2.027.785 3.93 2.223 5.367a7.522 7.522 0 0 0 5.359 2.223c4.02.008 7.586-3.55 7.59-7.578 0-3.36-2.203-6.172-5.223-7.172l.031-69.242 32.828.02-.007 14.632h-12.578c-1-3.027-3.817-5.226-7.172-5.226a7.592 7.592 0 0 0-5.684 2.562 7.555 7.555 0 0 0-1.898 5.016c0 4.183 3.398 7.586 7.582 7.586 3.207.008 6.082-2.27 7.136-5.219l12.617.008h4.723zm-37.09 76.383c0 .7-.254 1.379-.71 1.895a2.9 2.9 0 0 1-2.15.972 2.863 2.863 0 0 1-2.855-2.86c0-1.523 1.34-2.859 2.86-2.862a2.857 2.857 0 0 1 2.855 2.855zm14.754-57.508a2.886 2.886 0 0 1-2.144.973 2.867 2.867 0 0 1-2.86-2.864c0-1.515 1.34-2.851 2.86-2.859a2.87 2.87 0 0 1 2.859 2.863 2.855 2.855 0 0 1-.715 1.887z" />
    <path d="M402.64 489.14a7.635 7.635 0 0 0-5.688 2.563 7.59 7.59 0 0 0-1.894 5.023c0 4.183 3.394 7.586 7.578 7.586 4.027 0 7.59-3.551 7.59-7.578 0-4.184-3.406-7.594-7.586-7.594zm2.14 9.48a2.863 2.863 0 0 1-5.004-1.898c.005-1.516 1.34-2.86 2.86-2.86a2.863 2.863 0 0 1 2.856 2.864 2.847 2.847 0 0 1-.711 1.894zm91.03-104.49a7.6 7.6 0 0 0-5.02 1.895 7.607 7.607 0 0 0-2.562 5.687c0 4.184 3.406 7.586 7.586 7.586 4.031 0 7.586-3.57 7.582-7.598-.008-4.172-3.406-7.57-7.586-7.57zm1.89 9.734c-.515.454-1.187.7-1.886.7a2.85 2.85 0 0 1-2.86-2.852c0-1.516 1.336-2.86 2.86-2.86a2.854 2.854 0 0 1 2.86 2.852 2.9 2.9 0 0 1-.973 2.16zM336.52 455.47a7.6 7.6 0 0 0-5.688 2.563 7.605 7.605 0 0 0-1.496 2.656h-12.562c-1-3.028-3.816-5.227-7.164-5.227a7.6 7.6 0 0 0-5.687 2.563 7.614 7.614 0 0 0-1.899 5.023c0 4.172 3.399 7.578 7.582 7.586 3.207 0 6.086-2.27 7.137-5.227l12.613.008c.996 3.016 3.816 5.227 7.164 5.227 4.028 0 7.586-3.551 7.59-7.586-.012-4.18-3.41-7.586-7.59-7.586zm-24.777 9.46a2.847 2.847 0 0 1-2.148.974 2.86 2.86 0 0 1-2.856-2.86c0-1.515 1.34-2.863 2.86-2.863a2.864 2.864 0 0 1 2.859 2.863 2.875 2.875 0 0 1-.715 1.887zm26.918.013a2.845 2.845 0 0 1-2.144.972 2.857 2.857 0 0 1-2.856-2.86c0-1.515 1.344-2.859 2.856-2.859a2.86 2.86 0 0 1 2.859 2.86c0 .691-.258 1.371-.715 1.887zM402.64 262.86c4.184 0 7.586-3.41 7.582-7.59 0-4.027-3.566-7.582-7.59-7.582-4.183.004-7.578 3.406-7.578 7.586 0 1.856.676 3.64 1.895 5.024a7.63 7.63 0 0 0 5.691 2.562zm-.004-10.445c.82 0 1.606.355 2.145.973.46.52.71 1.187.71 1.879a2.86 2.86 0 0 1-2.855 2.859c-1.52.004-2.86-1.336-2.86-2.86a2.864 2.864 0 0 1 2.86-2.851zM443.27 448.14a7.59 7.59 0 0 0-5.691 2.563 7.31 7.31 0 0 0-1.493 2.656h-8.636l-4.727-.008-.016 29.793c-1.265.418-2.425 1.117-3.324 2.144a7.556 7.556 0 0 0-1.894 5.016c0 2.016.785 3.93 2.222 5.355a7.549 7.549 0 0 0 5.36 2.231c4.02 0 7.586-3.563 7.586-7.586a7.493 7.493 0 0 0-2.215-5.355c-.855-.864-1.887-1.454-3.004-1.813l.016-25.047h8.644c.363 1.11.957 2.145 1.813 2.996a7.522 7.522 0 0 0 5.36 2.223c4.019.008 7.581-3.543 7.585-7.578-.008-4.184-3.402-7.59-7.586-7.59zm-15.344 42.164a2.89 2.89 0 0 1-.715 1.887 2.839 2.839 0 0 1-2.144.972 2.8 2.8 0 0 1-2.016-.843 2.818 2.818 0 0 1-.84-2.016c0-1.516 1.34-2.86 2.86-2.86.757 0 1.48.297 2.023.833.535.543.832 1.257.832 2.027zm17.48-32.691a2.88 2.88 0 0 1-2.144.973 2.824 2.824 0 0 1-2.024-.844 2.841 2.841 0 0 1-.84-2.027c0-1.516 1.344-2.852 2.86-2.852a2.86 2.86 0 0 1 2.855 2.86 2.78 2.78 0 0 1-.707 1.89zm-79.946 3.097c0-2.027-.79-3.93-2.227-5.367a7.522 7.522 0 0 0-5.359-2.223 7.607 7.607 0 0 0-5.688 2.563 7.61 7.61 0 0 0-1.898 5.015c0 3.348 2.2 6.172 5.219 7.172l-.008 24.398c-1.27.418-2.43 1.129-3.328 2.145a7.61 7.61 0 0 0-1.898 5.015c0 2.028.789 3.93 2.222 5.367a7.543 7.543 0 0 0 5.36 2.23c4.02 0 7.586-3.562 7.59-7.585a7.55 7.55 0 0 0-2.223-5.367c-.852-.852-1.887-1.445-2.996-1.813l.007-24.418c2.954-1.058 5.227-3.925 5.227-7.132zm-4.746 38.727c0 .691-.262 1.367-.711 1.894a2.873 2.873 0 0 1-2.145.961c-.761 0-1.48-.296-2.027-.843a2.843 2.843 0 0 1-.832-2.016c0-1.516 1.344-2.86 2.86-2.86.765 0 1.48.298 2.015.833.547.55.84 1.261.84 2.03zm-.692-36.844a2.857 2.857 0 0 1-5.008-1.89c0-1.508 1.34-2.852 2.86-2.86.762.008 1.48.305 2.016.844.543.543.843 1.258.843 2.027a2.83 2.83 0 0 1-.71 1.879z" />
    <path d="M538.9 371.45a7.533 7.533 0 0 0-5.36-2.227 7.617 7.617 0 0 0-5.019 1.899c-1.02.894-1.723 2.066-2.144 3.324l-73.965.031v4.723l.02 37.574h4.718v-.02l19.37-.007-.003-4.727-.004-12.617c2.95-1.055 5.219-3.93 5.219-7.133 0-4.183-3.406-7.586-7.586-7.586a7.575 7.575 0 0 0-5.016 1.895 7.619 7.619 0 0 0-2.57 5.695c.008 3.348 2.207 6.16 5.227 7.16l.008 12.578-14.645.008-.008-32.828 69.234-.031c1 3.02 3.82 5.223 7.176 5.223 4.03-.008 7.582-3.57 7.582-7.586a7.514 7.514 0 0 0-2.235-5.348zm-67.617 20.828c0-1.516 1.34-2.86 2.86-2.86a2.858 2.858 0 0 1 2.859 2.86 2.886 2.886 0 0 1-.965 2.144c-.527.465-1.2.711-1.895.711a2.862 2.862 0 0 1-2.859-2.855zm64.145-13.316a2.853 2.853 0 0 1-1.887.707 2.858 2.858 0 0 1-2.86-2.86c.005-1.511 1.34-2.859 2.86-2.855a2.852 2.852 0 0 1 2.864 2.848 2.908 2.908 0 0 1-.977 2.16zM459.77 315.84l.004 12.57a7.483 7.483 0 0 0-2.652 1.492 7.587 7.587 0 0 0-2.563 5.688c0 4.183 3.406 7.586 7.586 7.586 4.031-.004 7.586-3.567 7.578-7.598 0-3.348-2.203-6.168-5.223-7.164l-.003-12.613c2.957-1.055 5.222-3.934 5.218-7.14 0-4.184-3.406-7.583-7.586-7.579a7.583 7.583 0 0 0-7.582 7.582c-.004 3.371 2.2 6.18 5.223 7.176zm5.23 19.75c0 .82-.359 1.605-.972 2.144a2.85 2.85 0 0 1-1.89.711 2.858 2.858 0 0 1-2.86-2.859c0-1.508 1.34-2.86 2.86-2.86A2.875 2.875 0 0 1 465 335.59zm-2.875-29.773a2.86 2.86 0 0 1 2.86 2.86c0 .82-.348 1.605-.961 2.144-.52.465-1.195.71-1.895.71a2.865 2.865 0 0 1-2.859-2.855c-.004-1.515 1.336-2.855 2.856-2.86zM489.37 416.56a7.59 7.59 0 0 0-5.016 1.895c-1.02.894-1.73 2.066-2.144 3.32l-29.785.02v4.726l.008 8.637a7.483 7.483 0 0 0-2.656 1.488 7.619 7.619 0 0 0-2.57 5.695c.007 4.184 3.413 7.578 7.597 7.578 4.027-.007 7.582-3.57 7.578-7.586 0-2.027-.789-3.93-2.223-5.367a7.458 7.458 0 0 0-3.004-1.804l-.003-8.649 25.047-.008a7.527 7.527 0 0 0 1.812 2.996 7.48 7.48 0 0 0 5.367 2.211c4.028 0 7.586-3.562 7.582-7.578a7.517 7.517 0 0 0-2.226-5.367 7.552 7.552 0 0 0-5.364-2.207zm-31.715 25.781a2.87 2.87 0 0 1-.96 2.144 2.83 2.83 0 0 1-1.892.711 2.852 2.852 0 0 1-2.859-2.851c0-1.524 1.336-2.863 2.856-2.863.765 0 1.48.296 2.027.843.535.535.828 1.25.828 2.016zm33.613-16.051a2.844 2.844 0 0 1-1.89.71 2.83 2.83 0 0 1-2.024-.843 2.821 2.821 0 0 1-.84-2.015c0-1.516 1.336-2.86 2.856-2.86.765 0 1.48.297 2.027.832a2.864 2.864 0 0 1-.129 4.176zm-31.478-61.75c3.207 0 6.082-2.27 7.137-5.227l24.418-.007a7.528 7.528 0 0 0 1.812 3.003 7.542 7.542 0 0 0 5.367 2.215c4.028-.004 7.586-3.566 7.582-7.586a7.52 7.52 0 0 0-2.226-5.359 7.524 7.524 0 0 0-5.367-2.223 7.583 7.583 0 0 0-5.016 1.895c-1.02.898-1.73 2.066-2.144 3.328l-24.398.008c-1-3.028-3.82-5.223-7.172-5.22a7.58 7.58 0 0 0-5.016 1.892 7.603 7.603 0 0 0-2.57 5.69 7.546 7.546 0 0 0 2.23 5.36 7.507 7.507 0 0 0 5.364 2.23zm38.723-10.453c.766 0 1.48.297 2.027.832.54.54.832 1.258.84 2.023a2.85 2.85 0 0 1-2.855 2.855c-.762 0-1.48-.292-2.024-.839a2.831 2.831 0 0 1-.843-2.016c.007-1.515 1.34-2.855 2.855-2.855zm-38.73.012a2.862 2.862 0 0 1 1.895 5.004 2.82 2.82 0 0 1-1.891.71c-.758 0-1.48-.296-2.023-.831a2.848 2.848 0 0 1-.84-2.028c.011-1.511 1.344-2.855 2.86-2.855zM294.85 412.03l-14.637-.008.004-12.578c3.027-1 5.223-3.812 5.227-7.16a7.602 7.602 0 0 0-2.567-5.695 7.563 7.563 0 0 0-5.015-1.895c-4.176 0-7.582 3.406-7.582 7.586 0 3.203 2.265 6.074 5.218 7.133l-.004 12.617v4.726l19.363.008v.02h4.723l.02-37.574v-4.723l-73.97-.031c-.417-1.266-1.128-2.43-2.144-3.324a7.567 7.567 0 0 0-5.015-1.899 7.5 7.5 0 0 0-5.36 2.227 7.52 7.52 0 0 0-2.226 5.36c-.004 4.015 3.55 7.577 7.578 7.585 3.351 0 6.175-2.203 7.175-5.223l69.234.032zm-16.992-16.898a2.857 2.857 0 1 1-.004-5.715c1.52 0 2.86 1.34 2.86 2.86a2.85 2.85 0 0 1-2.856 2.855zm-59.398-15.465a2.893 2.893 0 0 1-1.89-.707 2.89 2.89 0 0 1-.973-2.156c0-.758.297-1.477.84-2.016a2.829 2.829 0 0 1 2.023-.832c1.52-.004 2.855 1.34 2.86 2.856a2.86 2.86 0 0 1-2.86 2.855zm63.82-44.087c-.004 4.031 3.55 7.59 7.582 7.598 4.184 0 7.582-3.407 7.586-7.586a7.6 7.6 0 0 0-2.563-5.688 7.458 7.458 0 0 0-2.652-1.492v-12.57c3.02-1 5.223-3.812 5.227-7.164 0-2.18-.938-4.246-2.567-5.688a7.57 7.57 0 0 0-5.015-1.894c-4.184-.004-7.582 3.394-7.586 7.578 0 3.207 2.265 6.086 5.219 7.14l-.004 12.614c-3.02.992-5.223 3.804-5.227 7.152zm4.734-26.91a2.863 2.863 0 0 1 2.86-2.86c1.515.005 2.86 1.344 2.86 2.86a2.862 2.862 0 0 1-4.75 2.145 2.862 2.862 0 0 1-.97-2.145zm2.852 24.059c1.52 0 2.86 1.352 2.86 2.86a2.86 2.86 0 0 1-5.723.003 2.865 2.865 0 0 1 2.863-2.863z" />
    <path d="M263.78 401.72a7.597 7.597 0 0 0-2.566-5.688 7.563 7.563 0 0 0-5.016-1.894 7.59 7.59 0 0 0-7.586 7.578c-.004 4.027 3.55 7.598 7.578 7.598 4.184-.012 7.59-3.414 7.59-7.594zm-10.441-.012a2.854 2.854 0 0 1 2.86-2.851c1.519 0 2.859 1.34 2.859 2.86a2.854 2.854 0 0 1-2.86 2.85 2.85 2.85 0 0 1-2.86-2.86zm51.451 40.642a7.602 7.602 0 0 0-2.566-5.695 7.408 7.408 0 0 0-2.653-1.489v-13.37l-29.785-.02c-.418-1.258-1.129-2.426-2.144-3.32a7.56 7.56 0 0 0-5.012-1.895 7.524 7.524 0 0 0-5.367 2.223 7.527 7.527 0 0 0-2.227 5.367c0 4.016 3.555 7.578 7.582 7.578a7.473 7.473 0 0 0 5.36-2.21 7.554 7.554 0 0 0 1.812-2.997l25.047.008v8.648a7.457 7.457 0 0 0-3.004 1.805 7.557 7.557 0 0 0-2.222 5.367c-.004 4.016 3.55 7.578 7.582 7.586 4.191-.016 7.593-3.406 7.597-7.586zm-40.141-16.188a2.857 2.857 0 0 1-4.887-2.012 2.855 2.855 0 0 1 2.863-2.86c1.52.001 2.856 1.34 2.856 2.86a2.78 2.78 0 0 1-.832 2.012zm32.555 19.031c-.691 0-1.367-.25-1.887-.71a2.852 2.852 0 0 1-.972-2.145c0-.766.297-1.48.84-2.016a2.833 2.833 0 0 1 2.023-.844c1.52 0 2.855 1.34 2.855 2.864a2.844 2.844 0 0 1-2.859 2.851zM253.48 364.52c2.023 0 3.93-.785 5.36-2.215.855-.855 1.449-1.887 1.812-3.004l24.422.008c1.05 2.957 3.926 5.227 7.133 5.227 2.027 0 3.93-.79 5.36-2.223a7.565 7.565 0 0 0 2.226-5.36c0-2.18-.938-4.245-2.567-5.69a7.56 7.56 0 0 0-5.015-1.891c-3.352-.004-6.172 2.191-7.172 5.218l-24.402-.007c-.418-1.27-1.13-2.43-2.145-3.329a7.563 7.563 0 0 0-5.015-1.894 7.484 7.484 0 0 0-5.36 2.223 7.526 7.526 0 0 0-2.226 5.36c.004 4.01 3.562 7.57 7.59 7.577zm38.734-10.426c1.516 0 2.856 1.344 2.86 2.86a2.852 2.852 0 0 1-2.868 2.859 2.86 2.86 0 0 1-2.86-2.86 2.875 2.875 0 0 1 2.868-2.859zm-40.754.816a2.87 2.87 0 0 1 2.027-.832c1.516 0 2.856 1.34 2.856 2.86 0 .762-.293 1.48-.84 2.015a2.83 2.83 0 0 1-2.023.84 2.877 2.877 0 0 1-1.891-.71 2.886 2.886 0 0 1-.973-2.145c.008-.77.305-1.485.844-2.028zm174.22-47.44h-98.504c-10.355 0-18.781 8.426-18.781 18.785v98.496c0 10.363 8.426 18.785 18.781 18.785h98.504c10.355 0 18.781-8.426 18.781-18.785l.004-98.492c0-10.363-8.426-18.789-18.785-18.789zm9.59 117.29c0 5.29-4.301 9.59-9.586 9.59H327.18c-5.285 0-9.59-4.301-9.59-9.59v-98.496c0-5.29 4.305-9.59 9.59-9.59h98.504c5.285 0 9.586 4.301 9.586 9.59z" />
    <path fill="url(#a)" stroke="#000" stroke-width="4" d="M422.64 324.48h-92.402a5.516 5.516 0 0 0-5.516 5.523v91.016a5.521 5.521 0 0 0 5.516 5.524h92.398a5.519 5.519 0 0 0 5.516-5.524l.004-91.016a5.521 5.521 0 0 0-5.516-5.523z" />
</svg> 