<svg style="color:rgba(0,0,0,.9)" width="280" height="280" fill="currentColor" viewbox="100 100 550 550" xmlns="http://www.w3.org/2000/svg">
    <path d="M457.12 549.65h-223.2a23.67 23.67 0 0 0-20.504 11.84 23.678 23.678 0 0 0 20.504 35.516h268.36a7.89 7.89 0 0 0 7.895-7.89V557.54H470.71a15.727 15.727 0 0 1-13.594-7.89zm-65.336 31.57h-126.29a7.892 7.892 0 1 1 0-15.785h126.29c4.36 0 7.89 3.535 7.89 7.894s-3.53 7.891-7.89 7.891zm71.039 0h-39.469a7.892 7.892 0 1 1 0-15.785h39.465a7.892 7.892 0 1 1 0 15.785zM226.04 164.34a23.672 23.672 0 0 0-15.785 22.226v355.39a39.383 39.383 0 0 1 15.785-7.285zm15.78-1.45v370.97h31.57v-39.465a7.895 7.895 0 0 1 15.789 0v39.465h15.785v-15.789a7.89 7.89 0 0 1 7.89-7.89 7.892 7.892 0 0 1 7.895 7.89v15.785h71.04v-39.461a7.892 7.892 0 1 1 15.784 0v39.465h47.36v-4.625h-.005a15.905 15.905 0 0 1 4.63-11.164l50.624-50.625a15.91 15.91 0 0 1 11.16-4.625h4.625v-55.25a23.66 23.66 0 0 1-14.105-4.66 23.669 23.669 0 0 1-8.555-12.145 23.679 23.679 0 0 1-16.805-22.66v-39.465a23.66 23.66 0 0 1 4.66-14.105 23.637 23.637 0 0 1 12.145-8.555 23.66 23.66 0 0 1 8.555-12.148 23.684 23.684 0 0 1 14.105-4.656v-55.254h-4.625a15.892 15.892 0 0 1-11.16-4.625l-50.625-50.625a15.903 15.903 0 0 1-4.629-11.16v-4.625h-124.84a9.507 9.507 0 0 0-7.953 4.254l-7.957 11.934a7.853 7.853 0 0 0-1.328 4.375v21.27a13.582 13.582 0 0 1-22.976 9.473l-17.445-17.445h.004a23.492 23.492 0 0 1-6.938-16.715V162.89zm39.465 125.45v-.004c0-3.648 1.27-7.187 3.59-10.004a15.715 15.715 0 0 1 9.14-5.426 23.67 23.67 0 0 0 11.906-6.433 23.65 23.65 0 0 0 6.438-11.902 15.742 15.742 0 0 1 15.438-12.746h96.406c3.652 0 7.187 1.273 10.004 3.593a15.752 15.752 0 0 1 5.43 9.137 23.711 23.711 0 0 0 18.347 18.351 15.706 15.706 0 0 1 12.734 15.43v49.051a15.735 15.735 0 0 1-3.598 10 15.708 15.708 0 0 1-9.136 5.43 23.712 23.712 0 0 0-18.347 18.351 15.741 15.741 0 0 1-5.43 9.141 15.73 15.73 0 0 1-10.004 3.59h-96.406c-3.649 0-7.188-1.27-10.004-3.59a15.715 15.715 0 0 1-5.426-9.14 23.67 23.67 0 0 0-6.434-11.907 23.65 23.65 0 0 0-11.902-6.437 15.742 15.742 0 0 1-12.746-15.438z" />
    <path style="color:#f08c00" d="M281.29 180.04c0 2.09.832 4.098 2.313 5.578l13.473 13.473v-15.633a23.583 23.583 0 0 1 3.718-12.672H281.29zm189.43 349.2v12.516h55.25a7.894 7.894 0 0 0 7.894-7.89V478.61h-12.52zm47.35-216.38a7.907 7.907 0 0 1-2.309 5.582 7.894 7.894 0 0 1-5.582 2.313 7.895 7.895 0 0 0-7.894 7.894v39.465c0 2.094.832 4.102 2.312 5.582 1.48 1.477 3.489 2.309 5.582 2.309s4.102.832 5.582 2.312a7.904 7.904 0 0 1 2.309 5.582 7.894 7.894 0 0 0 7.894 7.895h7.895V304.97h-7.894a7.895 7.895 0 0 0-7.895 7.89zm7.9-157.86h-55.25v12.52l50.625 50.625h12.52v-55.25a7.894 7.894 0 0 0-7.894-7.894zM327.86 367.95l96.348.16c1.52-7.562 5.223-14.512 10.656-19.984s12.355-9.226 19.906-10.8l.164-48.939v.004a40.153 40.153 0 0 1-21.703-12.629 39.579 39.579 0 0 1-9.078-17.988l-96.352-.168a39.048 39.048 0 0 1-9.02 18.22 39.642 39.642 0 0 1-21.547 12.565l-.16 48.992a39.048 39.048 0 0 1 18.22 9.02 39.642 39.642 0 0 1 12.565 21.547z" />
</svg> 