<svg xmlns="http://www.w3.org/2000/svg" xmlns:svg="http://www.w3.org/2000/svg" viewbox="0 0 600 250">
    <path d="m319.41402,147.69368c-9.01136,0 -18.02256,-3.42193 -24.88396,-10.26626c-1.86363,-1.85869 -1.86363,-4.88057 0,-6.73941c1.86363,-1.85869 4.89258,-1.85869 6.75622,0c9.99601,9.97098 26.2509,9.97098 36.24659,0l34.74586,-34.65975c9.99601,-9.97098 9.99601,-26.18544 0,-36.15643c-9.99553,-9.97098 -26.25058,-9.97098 -36.24628,0l-29.31813,29.24537c-1.86363,1.85885 -4.89274,1.85885 -6.75637,0c-1.86332,-1.85885 -1.86332,-4.88057 0,-6.73941l29.31829,-29.24521c13.72264,-13.68851 36.0459,-13.68851 49.75902,0c13.7131,13.68835 13.72249,35.95609 0,49.63526l-34.74602,34.65944c-6.86156,6.8445 -15.87308,10.26626 -24.88443,10.26626l0.00922,0l0,0.00016l-0.00002,-0.00002l0.00001,0zm-57.33655,57.1944c-9.01151,0 -18.02303,-3.42224 -24.88428,-10.26626c-13.72249,-13.68851 -13.72249,-35.95593 0,-49.63526l34.74618,-34.65975c13.72264,-13.68851 36.0459,-13.68851 49.75886,0c1.86348,1.85885 1.86348,4.88041 0,6.73941c-1.86348,1.85869 -4.89274,1.85869 -6.75589,0c-9.99601,-9.97098 -26.25106,-9.97098 -36.24674,0l-34.74634,34.65975c-9.99585,9.97067 -9.99585,26.1856 0,36.15627c9.99569,9.97067 26.25074,9.97067 36.24659,0l29.31813,-29.24537c1.86363,-1.859 4.89289,-1.859 6.75622,0c1.86363,1.85869 1.86363,4.88025 0,6.73941l-29.31798,29.24553c-6.8614,6.84402 -15.87292,10.26626 -24.88444,10.26626l0.00969,0l0.00001,0.00001l-0.00001,0z" fill="black" id="svg_1" transform="rotate(0.292119 308.112 123.877)" xmlns="http://www.w3.org/2000/svg"/>
    <path d="m399.92404,223.21057l0,-0.10593c0,-4.04851 -2.10665,-6.1004 -5.52715,-7.44991c2.10441,-1.186 3.89439,-3.13195 3.89439,-6.53105l0,-0.10593c0,-4.7509 -3.73717,-7.82759 -9.73822,-7.82759l-13.73816,0l0,30.28094l14.05483,0c6.68379,0.05297 11.05431,-2.75428 11.05431,-8.25823l0,-0.0023zm-8.10769,-12.95155c0,2.26606 -1.78998,3.18262 -4.68494,3.18262l-5.99879,0l0,-6.42281l6.42102,0c2.73775,0 4.26271,1.13303 4.26271,3.13195l0,0.10824zm1.63277,12.09026c0,2.26606 -1.73608,3.29316 -4.58163,3.29316l-7.73488,0l0,-6.64159l7.52601,0c3.31719,0 4.7905,1.24357 4.7905,3.29316l0,0.05527zm20.10753,9.17478l0,-30.3339l-6.52658,0l0,30.28094l6.52658,0l0,0.05297l0,-0.00001zm34.95291,0l0,-30.3339l-6.42327,0l0,18.67658l-13.84372,-18.67658l-6.00104,0l0,30.28094l6.42327,0l0,-19.21546l14.3176,19.26843l5.52491,0l0.00225,0l0,-0.00001zm36.00174,0l-12.68259,-30.4951l-5.9988,0l-12.68708,30.4951l6.68604,0l2.68385,-6.80049l12.47597,0l2.68385,6.80049l6.84326,0l-0.00449,0l-0.00001,0zm-11.84262,-12.68442l-7.84268,0l3.94829,-9.8219l3.89439,9.8219zm42.8495,12.68442l0,-30.3339l-6.42327,0l0,18.67658l-13.84372,-18.67658l-6.00104,0l0,30.28094l6.42327,0l0,-19.21546l14.3176,19.26843l5.52491,0l0.00225,0l0,-0.00001zm33.52902,-4.9121l-4.15716,-4.26268c-2.31777,2.15783 -4.37052,3.56029 -7.79102,3.56029c-5.05327,0 -8.57933,-4.31795 -8.57933,-9.4995l0,-0.1612c0,-5.18154 3.57771,-9.44423 8.57933,-9.44423c2.94662,0 5.26439,1.29423 7.5799,3.39909l4.15716,-4.9121c-2.7355,-2.75198 -6.05269,-4.69563 -11.63151,-4.69563c-9.05322,0 -15.42258,7.06993 -15.42258,15.65287l0,0.10824c0,8.68887 6.47268,15.5976 15.15981,15.5976c5.68437,0.05527 9.05322,-1.99662 12.10539,-5.34275l0.00001,0.00001l0,-0.00001zm27.74134,4.9121l0,-5.9369l-16.05592,0l0,-6.36984l13.94927,0l0,-5.9369l-13.94927,0l0,-6.15337l15.84481,0l0,-5.9369l-22.26583,0l0,30.28094l22.47695,0l0,0.05297l0,0.00001l-0.00001,0l0,-0.00001z" fill="black" id="svg_5"/>
    <path d="m102.409,119.679l-32.338,0l0,-51.334l-32.338,0l0,-32.665l64.676,0l0,84l0,-0.001zm64.676,0l-36.958,0l34.648,-84l36.958,0l-34.648,84z" fill="black" id="svg_2"/>
    <circle cx="130.127" cy="54.345" id="svg_3" r="16.827"/>
    <path d="m507.27133,169.14933l0,-33.15l7.025,0l0,33.15l-7.025,0z" fill="#F7A600" id="svg_6"/>
    <path d="m425.39933,178.99633l-15.06,0l0,-33.15l14.454,0c7.025,0 11.119,3.631 11.119,9.312c0,3.677 -2.63,6.053 -4.449,6.845c2.172,0.93 4.952,3.025 4.952,7.45c0,6.19 -4.597,9.543 -11.016,9.543zm-1.162,-27.376l-6.873,0l0,7.636l6.873,0c2.981,0 4.65,-1.537 4.65,-3.82c0,-2.279 -1.669,-3.816 -4.65,-3.816zm0.454,13.456l-7.327,0l0,8.148l7.327,0c3.185,0 4.7,-1.861 4.7,-4.098c0,-2.234 -1.518,-4.05 -4.7,-4.05zm33.152,0.325l0,13.595l-6.976,0l0,-13.595l-10.816,-19.555l7.63,0l6.723,13.362l6.62,-13.362l7.63,0l-10.812,19.555l0.001,0zm30.728,13.595l-15.06,0l0,-33.15l14.455,0c7.025,0 11.118,3.631 11.118,9.312c0,3.677 -2.63,6.053 -4.449,6.845c2.172,0.93 4.953,3.025 4.953,7.45c0,6.19 -4.597,9.543 -11.017,9.543zm-1.161,-27.376l-6.874,0l0,7.636l6.874,0c2.98,0 4.649,-1.537 4.649,-3.82c0,-2.279 -1.668,-3.816 -4.65,-3.816l0.001,0zm0.454,13.456l-7.328,0l0,8.148l7.328,0c3.185,0 4.699,-1.861 4.699,-4.098c0,-2.234 -1.514,-4.05 -4.7,-4.05l0.001,0zm49.074,-13.456l0,27.379l-7.025,0l0,-27.379l-9.4,0l0,-5.774l25.825,0l0,5.774l-9.4,0z" fill="black" id="svg_7"/>
</svg>