<svg viewbox="0 0 300 300" xmlns="http://www.w3.org/2000/svg" xmlns:svg="http://www.w3.org/2000/svg" preserveAspectRatio="none">
  <defs>
    <linearGradient id="grad1" x1="0%" y1="0%" x2="0%" y2="100%">
      <stop offset="0%" style="stop-color:rgb(64,64,64);stop-opacity:1"/>
      <stop offset="100%" style="stop-color:rgb(120,120,120);stop-opacity:1"/>
    </linearGradient>
    <linearGradient id="grad2" x1="0%" y1="0%" x2="0%" y2="100%">
      <stop offset="30%" style="stop-color:rgb(64,64,64);stop-opacity:1"/>
      <stop offset="100%" style="stop-color:rgb(240,160,10);stop-opacity:1"/>
    </linearGradient>
  </defs>
  <g transform="rotate(90 162.5 147.5)">
    <path fill="url(#grad1)" d="m62.5,55l40,0l40,55l0,60l-10,10l0,35l5,7.5l0,42.5l-35,-45l0,-55l25,-25l-65,-85zm200,0l-38.333,0l-41.667,55l0,60l10.417,10l0,35l-5.417,7.5l0,42.5l35,-45l0,-55l-25,-25l65,-85z"/>
    <path fill="url(#grad2)" d="m27.5,10l270,0l-30,35l-90,0l0,50l-5,7.5l0,112.5l5,7.5l0,50l-10,12.5l-10,0l-10,-12.5l0,-50l5,-7.5l0,-112.5l-5,-7.5l0,-50l-90,0l-30,-35z"/>
  </g>
</svg>
