<svg xmlns="http://www.w3.org/2000/svg" fill="currentColor" style="color:#000" viewBox="100 100 550 550">
    <path d="M489.46 311.87h-24.664v19.734h14.801c2.465 0 4.934 2.465 4.934 4.934v133.2l-217.06-.004v-133.2c0-2.465 2.464-4.934 4.933-4.934h14.801v-19.734h-24.664c-8.386 0-14.8 6.414-14.8 14.801v177.59c0 8.387 6.413 14.801 14.8 14.801h83.863v24.664h59.2v-24.664h83.862c8.387 0 14.801-6.414 14.801-14.8v-29.599l-.008-147.99c0-8.387-6.41-14.8-14.797-14.8zm-44.398 187.46h-9.867v-9.867h9.867zm19.73 0h-9.867v-9.867h9.867zm19.734 0h-9.867v-9.867h9.867zm-49.824 69.066h69.555v9.867h-256.52v-9.867h69.559c2.465-11.348 12.332-19.734 24.172-19.734h69.062c11.84 0 21.707 8.387 24.176 19.734zm-132.7-108.53h147.99c2.96 0 4.934-1.973 4.934-4.934v-192.39c0-2.96-1.973-4.933-4.934-4.933h-147.99c-2.96 0-4.934 1.973-4.934 4.933v192.39c0 2.961 1.973 4.934 4.934 4.934zm143.06-9.863h-138.13v-143.06h138.13zm-59.199-172.66h49.332v9.867l-49.332-.004zm-39.465 0h19.734v9.867h-19.734zm-29.598 0h19.734v9.867H316.8zm73.008 162.79h-28.117c1.973-5.918 7.398-9.867 13.812-9.867s12.332 3.945 14.305 9.867zm-37.984 0h-35.023v-14.801c0-2.465 2.465-4.934 4.934-4.934h6.414l-4.934-4.933c-1.973-1.973-1.973-4.934 0-6.907l21.211-21.21c1.973-1.973 4.934-1.973 6.906 0l4.934 4.44v-5.921c0-2.465 2.465-4.934 4.933-4.934h29.598c2.465 0 4.934 2.465 4.934 4.934v6.414l4.934-4.441c1.972-1.973 4.933-1.973 6.906 0l21.21 21.21c1.974 1.973 1.974 4.934 0 6.907l-4.933 4.933 6.414.004c2.465 0 4.934 2.465 4.934 4.934v14.8h-35.023c-2.465-11.348-12.332-19.734-24.172-19.734-11.844 0-21.707 7.89-24.176 19.238zm34.039-113.46h-69.062v-9.867h69.062zm-9.867 19.73H316.8v-9.867H376zm9.867-9.867h19.734v9.867h-19.734zm49.332 9.867h-19.734v-9.867h19.734zm-59.199 9.867h59.199v9.867h-59.199zm-29.598 9.867v-9.867h19.734v9.867zm-9.867 0h-19.734v-9.867h19.734zm251.59-152.93H479.59c-8.387 0-14.801 6.414-14.801 14.801v59.2c0 8.386 6.414 14.8 14.8 14.8h34.532v19.734c0 1.973.988 3.945 2.96 4.442.493.488 1.481.488 1.973.488 1.48 0 2.465-.492 3.453-1.48l23.188-23.189h44.398c6.907 0 12.824-5.918 12.824-12.824v-61.172c0-8.386-6.414-14.8-14.8-14.8zm-75.477 55.746-6.906 6.906-14.801-14.8c-1.973-1.973-1.973-4.934 0-6.907l14.8-14.8 6.907 6.905-11.344 11.348zm9.867 6.906-6.906-6.906 29.598-29.598 6.906 6.906zm54.266-14.8-14.801 14.8-6.906-6.906 11.348-11.348-11.348-11.348 6.906-6.906 14.801 14.8c1.973 1.974 1.973 4.935 0 6.907zM233.917 331.6h8.883v44.891c-13.812 2.465-24.664 14.305-24.664 29.105 0 14.801 10.852 26.641 24.664 29.105v44.895h-8.88c-5.425 0-9.866-4.441-9.866-9.867v-18.746l-13.32 13.32c-3.946 3.945-9.868 3.945-13.812 0L184.59 451.48c-3.946-3.945-3.946-9.867 0-13.812l13.32-13.32h-19.242c-5.426 0-9.868-4.441-9.868-9.867v-17.758c0-5.426 4.442-9.867 9.868-9.867h18.746l-13.32-13.32c-3.946-3.946-3.946-9.867 0-13.812l12.332-12.332c3.945-3.946 9.867-3.946 13.812 0l13.32 13.32V341.47c.496-5.426 4.933-9.867 10.359-9.867zm8.883 54.758v37.984c-8.387-1.972-14.801-9.867-14.801-19.238 0-9.37 6.414-16.277 14.8-18.746zm34.53-222.48c0-5.425-4.44-9.867-9.866-9.867l-108.53.004c-5.43 0-9.868 4.438-9.868 9.863v19.734h128.26zm-98.663 9.868H168.8v-9.868h9.867zm14.8 0h-9.866v-9.868h9.867zm14.798 0h-9.867l.004-9.868h9.867zm69.066 108.53V193.48H149.07v88.797c0 5.425 4.441 9.867 9.867 9.867h108.53c5.426-.004 9.867-4.442 9.867-9.867zm-85.344-28.121-6.906 6.906-14.801-14.801c-1.973-1.973-1.973-4.934 0-6.906l14.8-14.801 6.907 6.906-11.348 11.352zm9.867 6.906-6.906-6.906 29.598-29.598 6.906 6.906zm54.262-14.797-14.801 14.8-6.906-6.905 11.348-11.348-11.348-11.348 6.906-6.907 14.801 14.801c1.973 1.973 1.973 4.93 0 6.907z" />
</svg> 