<svg xmlns="http://www.w3.org/2000/svg" width="75" fill="#ffffff99" viewBox="140 140 470 474"><defs><clipPath id="a"><path d="M139.21 139.21h473.58v33.789H139.21z"/></clipPath><clipPath id="b"><path d="M139.21 165h473.58v38H139.21z"/></clipPath><clipPath id="c"><path d="M139.21 194h473.58v38H139.21z"/></clipPath><clipPath id="d"><path d="M139.21 224h473.58v38H139.21z"/></clipPath><clipPath id="e"><path d="M139.21 253h473.58v38H139.21z"/></clipPath><clipPath id="f"><path d="M139.21 283h473.58v38H139.21z"/></clipPath><clipPath id="g"><path d="M139.21 313h473.58v38H139.21z"/></clipPath><clipPath id="h"><path d="M139.21 342h473.58v38H139.21z"/></clipPath><clipPath id="i"><path d="M139.21 372h473.58v38H139.21z"/></clipPath><clipPath id="j"><path d="M139.21 401h473.58v38H139.21z"/></clipPath><clipPath id="k"><path d="M139.21 431h473.58v38H139.21z"/></clipPath><clipPath id="l"><path d="M139.21 461h473.58v38H139.21z"/></clipPath><clipPath id="m"><path d="M139.21 490h473.58v38H139.21z"/></clipPath><clipPath id="n"><path d="M139.21 520h473.58v38H139.21z"/></clipPath><clipPath id="o"><path d="M139.21 549h473.58v38H139.21z"/></clipPath><clipPath id="p"><path d="M139.21 579h473.58v33.793H139.21z"/></clipPath><clipPath id="q"><path d="M196 139.21h360V143H196z"/></clipPath><clipPath id="r"><path d="M139.21 609h473.58v3.793H139.21z"/></clipPath></defs><g clip-path="url(#a)"><path d="M161.05 139.21c7.93 2.988 13.863 7.441 19.797 11.895 9.375 7.035 18.75 14.062 37.293 14.062s27.914-7.035 37.285-14.062c5.941-4.453 11.875-8.906 19.797-11.895h43.676c7.93 2.988 13.863 7.441 19.805 11.895 9.367 7.035 18.742 14.062 37.285 14.062s27.918-7.035 37.285-14.062c5.941-4.453 11.883-8.906 19.805-11.895h43.676c7.93 2.988 13.863 7.441 19.797 11.895 9.375 7.035 18.742 14.062 37.285 14.062s27.918-7.035 37.293-14.062c5.934-4.453 11.875-8.906 19.797-11.895h21.836v3.644c-18.539 0-27.914 7.036-37.285 14.055-10.363 7.77-20.719 15.536-41.645 15.536-20.922 0-31.285-7.77-41.645-15.535-9.367-7.028-18.742-14.055-37.285-14.055-18.543 0-27.914 7.035-37.285 14.055-10.363 7.769-20.719 15.535-41.645 15.535-20.93 0-31.285-7.77-41.645-15.535-9.367-7.028-18.742-14.055-37.285-14.055-18.543 0-27.918 7.035-37.285 14.055-10.363 7.769-20.723 15.535-41.645 15.535-20.93 0-31.285-7.77-41.645-15.535-9.375-7.028-18.75-14.055-37.285-14.055v-3.645z"/></g><g clip-path="url(#b)"><path d="M139.21 165.16c20.922 0 31.277 7.77 41.641 15.535 9.375 7.035 18.75 14.062 37.293 14.062s27.914-7.035 37.285-14.062c10.363-7.77 20.719-15.535 41.645-15.535 20.93 0 31.285 7.77 41.645 15.535 9.367 7.035 18.742 14.062 37.285 14.062 18.543 0 27.918-7.035 37.285-14.062 10.363-7.77 20.723-15.535 41.645-15.535 20.93 0 31.285 7.77 41.645 15.535 9.375 7.035 18.75 14.062 37.285 14.062 18.543 0 27.918-7.035 37.293-14.062 10.363-7.77 20.719-15.535 41.641-15.535v7.281c-18.539 0-27.914 7.035-37.285 14.062-10.363 7.77-20.719 15.535-41.645 15.535-20.922 0-31.285-7.77-41.645-15.535-9.367-7.035-18.742-14.062-37.285-14.062s-27.914 7.035-37.285 14.062c-10.363 7.77-20.719 15.535-41.645 15.535-20.93 0-31.285-7.77-41.645-15.535-9.367-7.035-18.742-14.062-37.285-14.062s-27.918 7.035-37.285 14.062c-10.363 7.77-20.723 15.535-41.645 15.535-20.93 0-31.285-7.77-41.645-15.535-9.375-7.035-18.75-14.062-37.285-14.062v-7.281z"/></g><g clip-path="url(#c)"><path d="M139.21 194.76c20.922 0 31.277 7.77 41.641 15.535 9.375 7.027 18.75 14.055 37.293 14.055s27.914-7.035 37.285-14.055c10.363-7.77 20.719-15.535 41.645-15.535 20.93 0 31.285 7.77 41.645 15.535 9.367 7.027 18.742 14.055 37.285 14.055 18.543 0 27.918-7.035 37.285-14.055 10.363-7.77 20.723-15.535 41.645-15.535 20.93 0 31.285 7.77 41.645 15.535 9.375 7.027 18.75 14.055 37.285 14.055 18.543 0 27.918-7.035 37.293-14.055 10.363-7.77 20.719-15.535 41.641-15.535v7.281c-18.539 0-27.914 7.035-37.285 14.062-10.363 7.77-20.719 15.535-41.645 15.535-20.922 0-31.285-7.77-41.645-15.535-9.367-7.035-18.742-14.062-37.285-14.062s-27.914 7.035-37.285 14.062c-10.363 7.77-20.719 15.535-41.645 15.535-20.93 0-31.285-7.77-41.645-15.535-9.367-7.035-18.742-14.062-37.285-14.062s-27.918 7.035-37.285 14.062c-10.363 7.77-20.723 15.535-41.645 15.535-20.93 0-31.285-7.77-41.645-15.535-9.375-7.035-18.75-14.062-37.285-14.062v-7.281z"/></g><g clip-path="url(#d)"><path d="M139.21 224.36c20.922 0 31.277 7.77 41.641 15.535 9.375 7.035 18.75 14.062 37.293 14.062s27.914-7.035 37.285-14.062c10.363-7.77 20.719-15.535 41.645-15.535 20.93 0 31.285 7.77 41.645 15.535 9.367 7.035 18.742 14.062 37.285 14.062 18.543 0 27.918-7.035 37.285-14.062 10.363-7.77 20.723-15.535 41.645-15.535 20.93 0 31.285 7.77 41.645 15.535 9.375 7.035 18.75 14.062 37.285 14.062 18.543 0 27.918-7.035 37.293-14.062 10.363-7.77 20.719-15.535 41.641-15.535v7.285c-18.539 0-27.914 7.035-37.285 14.055-10.363 7.77-20.719 15.543-41.645 15.543-20.922 0-31.285-7.773-41.645-15.543-9.367-7.027-18.742-14.055-37.285-14.055s-27.914 7.035-37.285 14.055c-10.363 7.77-20.719 15.543-41.645 15.543-20.93 0-31.285-7.773-41.645-15.543-9.367-7.027-18.742-14.055-37.285-14.055s-27.918 7.035-37.285 14.055c-10.363 7.77-20.723 15.543-41.645 15.543-20.93 0-31.285-7.773-41.645-15.543-9.375-7.027-18.75-14.055-37.285-14.055v-7.285z"/></g><g clip-path="url(#e)"><path d="M139.21 253.96c20.922 0 31.277 7.77 41.641 15.535 9.375 7.035 18.75 14.062 37.293 14.062s27.914-7.035 37.285-14.062c10.363-7.77 20.719-15.535 41.645-15.535 20.93 0 31.285 7.77 41.645 15.535 9.367 7.035 18.742 14.062 37.285 14.062 18.543 0 27.918-7.035 37.285-14.062 10.363-7.77 20.723-15.535 41.645-15.535 20.93 0 31.285 7.77 41.645 15.535 9.375 7.035 18.75 14.062 37.285 14.062 18.543 0 27.918-7.035 37.293-14.062 10.363-7.77 20.719-15.535 41.641-15.535v7.285c-18.539 0-27.914 7.028-37.285 14.055-10.363 7.77-20.719 15.535-41.645 15.535-20.922 0-31.285-7.77-41.645-15.535-9.367-7.035-18.742-14.055-37.285-14.055s-27.914 7.028-37.285 14.055c-10.363 7.77-20.719 15.535-41.645 15.535-20.93 0-31.285-7.77-41.645-15.535-9.367-7.035-18.742-14.055-37.285-14.055s-27.918 7.028-37.285 14.055c-10.363 7.77-20.723 15.535-41.645 15.535-20.93 0-31.285-7.77-41.645-15.535-9.375-7.035-18.75-14.055-37.285-14.055v-7.285z"/></g><g clip-path="url(#f)"><path d="M139.21 283.56c20.922 0 31.277 7.77 41.641 15.535 9.375 7.027 18.75 14.055 37.293 14.055s27.914-7.035 37.285-14.055c10.363-7.77 20.719-15.535 41.645-15.535 20.922 0 31.285 7.77 41.645 15.535 9.367 7.027 18.742 14.055 37.285 14.055 18.543 0 27.918-7.035 37.285-14.055 10.363-7.77 20.723-15.535 41.645-15.535 20.93 0 31.285 7.77 41.645 15.535 9.375 7.027 18.742 14.055 37.285 14.055s27.918-7.035 37.293-14.055c10.363-7.77 20.719-15.535 41.641-15.535v7.281c-18.539 0-27.914 7.035-37.285 14.062-10.363 7.77-20.719 15.535-41.645 15.535-20.922 0-31.285-7.77-41.645-15.535-9.367-7.035-18.742-14.062-37.285-14.062s-27.914 7.035-37.285 14.062c-10.363 7.77-20.719 15.535-41.645 15.535-20.93 0-31.285-7.77-41.645-15.535-9.367-7.035-18.742-14.062-37.285-14.062s-27.918 7.035-37.285 14.062c-10.363 7.77-20.723 15.535-41.645 15.535-20.93 0-31.285-7.77-41.645-15.535-9.375-7.035-18.75-14.062-37.285-14.062v-7.281z"/></g><g clip-path="url(#g)"><path d="M139.21 313.16c20.922 0 31.277 7.77 41.641 15.535 9.375 7.035 18.75 14.062 37.293 14.062s27.914-7.035 37.285-14.062c10.363-7.77 20.719-15.535 41.645-15.535 20.93 0 31.285 7.77 41.645 15.535 9.367 7.035 18.742 14.062 37.285 14.062 18.543 0 27.918-7.035 37.285-14.062 10.363-7.77 20.723-15.535 41.645-15.535 20.93 0 31.285 7.77 41.645 15.535 9.375 7.035 18.75 14.062 37.285 14.062 18.543 0 27.918-7.035 37.293-14.062 10.363-7.77 20.719-15.535 41.641-15.535v7.285c-18.539 0-27.914 7.035-37.285 14.055-10.363 7.77-20.719 15.543-41.645 15.543-20.922 0-31.285-7.773-41.645-15.543-9.367-7.027-18.742-14.055-37.285-14.055s-27.914 7.035-37.285 14.055c-10.363 7.77-20.719 15.543-41.645 15.543-20.93 0-31.285-7.773-41.645-15.543-9.367-7.027-18.742-14.055-37.285-14.055s-27.918 7.035-37.285 14.055c-10.363 7.77-20.723 15.543-41.645 15.543-20.93 0-31.285-7.773-41.645-15.543-9.375-7.027-18.75-14.055-37.285-14.055v-7.285z"/></g><g clip-path="url(#h)"><path d="M139.21 342.76c20.922 0 31.277 7.77 41.641 15.535 9.375 7.035 18.75 14.062 37.293 14.062s27.914-7.035 37.285-14.062c10.363-7.77 20.719-15.535 41.645-15.535 20.93 0 31.285 7.77 41.645 15.535 9.367 7.035 18.742 14.062 37.285 14.062 18.543 0 27.918-7.035 37.285-14.062 10.363-7.77 20.723-15.535 41.645-15.535 20.93 0 31.285 7.77 41.645 15.535 9.375 7.035 18.75 14.062 37.285 14.062 18.543 0 27.918-7.035 37.293-14.062 10.363-7.77 20.719-15.535 41.641-15.535v7.285c-18.539 0-27.914 7.027-37.285 14.055-10.363 7.77-20.719 15.535-41.645 15.535-20.922 0-31.285-7.77-41.645-15.535-9.367-7.035-18.742-14.055-37.285-14.055s-27.914 7.027-37.285 14.055c-10.363 7.77-20.719 15.535-41.645 15.535-20.93 0-31.285-7.77-41.645-15.535-9.367-7.035-18.742-14.055-37.285-14.055s-27.918 7.027-37.285 14.055c-10.363 7.77-20.723 15.535-41.645 15.535-20.93 0-31.285-7.77-41.645-15.535-9.375-7.035-18.75-14.055-37.285-14.055v-7.285z"/></g><g clip-path="url(#i)"><path d="M139.21 372.36c20.922 0 31.277 7.77 41.641 15.535 9.375 7.035 18.75 14.055 37.293 14.055s27.914-7.035 37.285-14.055c10.363-7.77 20.719-15.535 41.645-15.535 20.93 0 31.285 7.77 41.645 15.535 9.367 7.035 18.742 14.055 37.285 14.055 18.543 0 27.918-7.035 37.285-14.055 10.363-7.77 20.723-15.535 41.645-15.535 20.93 0 31.285 7.77 41.645 15.535 9.375 7.027 18.75 14.055 37.285 14.055 18.543 0 27.918-7.027 37.293-14.055 10.363-7.77 20.719-15.535 41.641-15.535v7.281c-18.539 0-27.914 7.035-37.285 14.062-10.363 7.77-20.719 15.535-41.645 15.535-20.922 0-31.285-7.77-41.645-15.535-9.367-7.035-18.742-14.062-37.285-14.062s-27.914 7.035-37.285 14.062c-10.363 7.77-20.719 15.535-41.645 15.535-20.93 0-31.285-7.77-41.645-15.535-9.367-7.035-18.742-14.062-37.285-14.062s-27.918 7.035-37.285 14.062c-10.363 7.77-20.723 15.535-41.645 15.535-20.93 0-31.285-7.77-41.645-15.535-9.375-7.035-18.75-14.062-37.285-14.062v-7.281z"/></g><g clip-path="url(#j)"><path d="M139.21 401.96c20.922 0 31.277 7.77 41.641 15.535 9.375 7.035 18.75 14.062 37.293 14.062s27.914-7.035 37.285-14.062c10.363-7.77 20.719-15.535 41.645-15.535 20.93 0 31.285 7.77 41.645 15.535 9.367 7.035 18.742 14.062 37.285 14.062 18.543 0 27.918-7.035 37.285-14.062 10.363-7.77 20.723-15.535 41.645-15.535 20.93 0 31.285 7.77 41.645 15.535 9.375 7.035 18.75 14.062 37.285 14.062 18.543 0 27.918-7.035 37.293-14.062 10.363-7.77 20.719-15.535 41.641-15.535v7.285c-18.539 0-27.914 7.035-37.285 14.055-10.363 7.774-20.719 15.543-41.645 15.543-20.922 0-31.285-7.773-41.645-15.543-9.367-7.027-18.742-14.055-37.285-14.055s-27.914 7.035-37.285 14.055c-10.363 7.77-20.719 15.543-41.645 15.543-20.93 0-31.285-7.77-41.645-15.543-9.367-7.027-18.742-14.055-37.285-14.055s-27.918 7.035-37.285 14.055c-10.363 7.77-20.723 15.543-41.645 15.543-20.93 0-31.285-7.77-41.645-15.543-9.375-7.027-18.75-14.055-37.285-14.055v-7.285z"/></g><g clip-path="url(#k)"><path d="M139.21 431.55c20.922 0 31.277 7.77 41.641 15.535 9.375 7.035 18.75 14.062 37.293 14.062s27.914-7.035 37.285-14.062c10.363-7.77 20.719-15.535 41.645-15.535 20.93 0 31.285 7.77 41.645 15.535 9.367 7.035 18.742 14.062 37.285 14.062 18.543 0 27.918-7.035 37.285-14.062 10.363-7.77 20.723-15.535 41.645-15.535 20.93 0 31.285 7.77 41.645 15.535 9.375 7.035 18.75 14.062 37.285 14.062 18.543 0 27.918-7.035 37.293-14.062 10.363-7.77 20.719-15.535 41.641-15.535v7.285c-18.539 0-27.914 7.028-37.285 14.055-10.363 7.77-20.719 15.535-41.645 15.535-20.922 0-31.285-7.77-41.645-15.535-9.367-7.035-18.742-14.055-37.285-14.055s-27.914 7.028-37.285 14.055c-10.363 7.77-20.719 15.535-41.645 15.535-20.93 0-31.285-7.77-41.645-15.535-9.367-7.035-18.742-14.055-37.285-14.055s-27.918 7.028-37.285 14.055c-10.363 7.77-20.723 15.535-41.645 15.535-20.93 0-31.285-7.77-41.645-15.535-9.375-7.035-18.75-14.055-37.285-14.055v-7.285z"/></g><g clip-path="url(#l)"><path d="M139.21 461.16c20.922 0 31.277 7.77 41.641 15.535 9.375 7.035 18.75 14.055 37.293 14.055s27.914-7.027 37.285-14.055c10.363-7.77 20.719-15.535 41.645-15.535 20.93 0 31.285 7.77 41.645 15.535 9.367 7.035 18.742 14.055 37.285 14.055 18.543 0 27.918-7.027 37.285-14.055 10.363-7.77 20.723-15.535 41.645-15.535 20.93 0 31.285 7.77 41.645 15.535 9.375 7.035 18.75 14.055 37.285 14.055 18.543 0 27.918-7.027 37.293-14.055 10.363-7.77 20.719-15.535 41.641-15.535v7.281c-18.539 0-27.914 7.035-37.285 14.062-10.363 7.77-20.719 15.535-41.645 15.535-20.922 0-31.285-7.77-41.645-15.535-9.367-7.035-18.742-14.062-37.285-14.062s-27.914 7.035-37.285 14.062c-10.363 7.77-20.719 15.535-41.645 15.535-20.93 0-31.285-7.77-41.645-15.535-9.367-7.035-18.742-14.062-37.285-14.062s-27.918 7.035-37.285 14.062c-10.363 7.77-20.723 15.535-41.645 15.535-20.93 0-31.285-7.77-41.645-15.535-9.375-7.035-18.75-14.062-37.285-14.062v-7.281z"/></g><g clip-path="url(#m)"><path d="M139.21 490.75c20.922 0 31.277 7.773 41.641 15.543 9.375 7.027 18.75 14.055 37.293 14.055s27.914-7.035 37.285-14.055c10.363-7.77 20.719-15.543 41.645-15.543 20.93 0 31.285 7.773 41.645 15.543 9.367 7.027 18.742 14.055 37.285 14.055 18.543 0 27.918-7.035 37.285-14.055 10.363-7.77 20.723-15.543 41.645-15.543 20.93 0 31.285 7.773 41.645 15.543 9.375 7.027 18.75 14.055 37.285 14.055 18.543 0 27.918-7.035 37.293-14.055 10.363-7.77 20.719-15.543 41.641-15.543v7.285c-18.539 0-27.914 7.035-37.285 14.062-10.363 7.77-20.719 15.535-41.645 15.535-20.922 0-31.285-7.77-41.645-15.535-9.367-7.035-18.742-14.062-37.285-14.062s-27.914 7.035-37.285 14.062c-10.363 7.77-20.719 15.535-41.645 15.535-20.93 0-31.285-7.77-41.645-15.535-9.367-7.035-18.742-14.062-37.285-14.062s-27.918 7.035-37.285 14.062c-10.363 7.77-20.723 15.535-41.645 15.535-20.93 0-31.285-7.77-41.645-15.535-9.375-7.035-18.75-14.062-37.285-14.062v-7.285z"/></g><g clip-path="url(#n)"><path d="M139.21 520.36c20.922 0 31.277 7.77 41.641 15.535 9.375 7.035 18.75 14.062 37.293 14.062s27.914-7.035 37.285-14.062c10.363-7.77 20.719-15.535 41.645-15.535 20.93 0 31.285 7.77 41.645 15.535 9.367 7.035 18.742 14.062 37.285 14.062 18.543 0 27.918-7.035 37.285-14.062 10.363-7.77 20.723-15.535 41.645-15.535 20.93 0 31.285 7.77 41.645 15.535 9.375 7.035 18.75 14.062 37.285 14.062 18.543 0 27.918-7.035 37.293-14.062 10.363-7.77 20.719-15.535 41.641-15.535v7.285c-18.539 0-27.914 7.035-37.285 14.055-10.363 7.77-20.719 15.535-41.645 15.535-20.922 0-31.285-7.77-41.645-15.535-9.367-7.027-18.742-14.055-37.285-14.055s-27.914 7.035-37.285 14.055c-10.363 7.77-20.719 15.535-41.645 15.535-20.93 0-31.285-7.77-41.645-15.535-9.367-7.027-18.742-14.055-37.285-14.055s-27.918 7.035-37.285 14.055c-10.363 7.77-20.723 15.535-41.645 15.535-20.93 0-31.285-7.77-41.645-15.535-9.375-7.027-18.75-14.055-37.285-14.055v-7.285z"/></g><g clip-path="url(#o)"><path d="M139.21 549.95c20.922 0 31.277 7.77 41.641 15.535 9.375 7.035 18.75 14.062 37.293 14.062s27.914-7.035 37.285-14.062c10.363-7.77 20.719-15.535 41.645-15.535 20.93 0 31.285 7.77 41.645 15.535 9.367 7.035 18.742 14.062 37.285 14.062 18.543 0 27.918-7.035 37.285-14.062 10.363-7.77 20.723-15.535 41.645-15.535 20.93 0 31.285 7.77 41.645 15.535 9.375 7.035 18.75 14.062 37.285 14.062 18.543 0 27.918-7.035 37.293-14.062 10.363-7.77 20.719-15.535 41.641-15.535v7.281c-18.539 0-27.914 7.035-37.285 14.062-10.363 7.77-20.719 15.535-41.645 15.535-20.922 0-31.285-7.77-41.645-15.535-9.367-7.035-18.742-14.062-37.285-14.062s-27.914 7.035-37.285 14.062c-10.363 7.77-20.719 15.535-41.645 15.535-20.93 0-31.285-7.77-41.645-15.535-9.367-7.035-18.742-14.062-37.285-14.062s-27.918 7.035-37.285 14.062c-10.363 7.77-20.723 15.535-41.645 15.535-20.93 0-31.285-7.77-41.645-15.535-9.375-7.035-18.75-14.062-37.285-14.062v-7.281z"/></g><g clip-path="url(#p)"><path d="M139.21 579.55c20.922 0 31.277 7.77 41.641 15.535 9.375 7.027 18.75 14.055 37.293 14.055s27.914-7.035 37.285-14.055c10.363-7.77 20.719-15.535 41.645-15.535 20.93 0 31.285 7.77 41.645 15.535 9.367 7.027 18.742 14.055 37.285 14.055 18.543 0 27.918-7.035 37.285-14.055 10.363-7.77 20.723-15.535 41.645-15.535 20.93 0 31.285 7.77 41.645 15.535 9.375 7.027 18.75 14.055 37.285 14.055 18.543 0 27.918-7.035 37.293-14.055 10.363-7.77 20.719-15.535 41.641-15.535v7.281c-18.539 0-27.914 7.035-37.285 14.062-5.934 4.453-11.875 8.906-19.797 11.895H512.04c-7.93-2.988-13.863-7.441-19.805-11.895-9.367-7.035-18.742-14.062-37.285-14.062s-27.914 7.035-37.285 14.062c-5.941 4.453-11.875 8.906-19.805 11.895h-43.672c-7.93-2.988-13.863-7.441-19.805-11.895-9.367-7.035-18.742-14.062-37.285-14.062-18.543 0-27.918 7.035-37.285 14.062-5.941 4.453-11.883 8.906-19.805 11.895h-43.676c-7.93-2.988-13.863-7.441-19.797-11.895-9.375-7.035-18.75-14.062-37.285-14.062v-7.281z"/></g><g clip-path="url(#q)"><path d="M555.7 139.21c-5.91 2.23-12.914 3.644-21.844 3.644s-15.938-1.414-21.836-3.644zm-157.86 0c-5.902 2.23-12.906 3.644-21.836 3.644-8.938 0-15.938-1.414-21.836-3.644zm-157.86 0c-5.902 2.23-12.914 3.644-21.836 3.644-8.938 0-15.938-1.414-21.844-3.644z"/></g><g clip-path="url(#r)"><path d="M139.21 609.15c8.93 0 15.934 1.414 21.836 3.644H139.21zm136.02 3.644c5.91-2.23 12.914-3.644 21.844-3.644 8.93 0 15.938 1.414 21.836 3.644zm157.86 0c5.902-2.23 12.914-3.644 21.836-3.644 8.938 0 15.938 1.414 21.844 3.644zm157.86 0c5.91-2.23 12.914-3.644 21.836-3.644v3.644z"/></g></svg>
